<?xml version="1.0" encoding="UTF-8"?>
<svg width="1600px" height="1200px" viewBox="0 0 1600 1200" version="1.1" xmlns="http://www.w3.org/2000/svg" xmlns:xlink="http://www.w3.org/1999/xlink">
    <!-- Generator: Sketch 55.2 (78181) - https://sketchapp.com -->
    <title>Waimakariri Copy 2</title>
    <desc>Created with Sketch.</desc>
    <g id="Waimakariri-Copy-2" stroke="none" stroke-width="1" fill="none" fill-rule="evenodd">
        <rect fill="#FFFFFF" x="0" y="0" width="1600" height="1200"></rect>
        <rect id="Background" fill="#E0E7EE" fill-rule="nonzero" x="0" y="0" width="1600" height="1200"></rect>
        <g id="Waimakariri" transform="translate(-277.000000, -291.000000)" fill-rule="nonzero">
            <path d="M937.836465,1388.19875 C1176.85783,1402.74804 1350.02955,1216.84466 1370.62292,956.643155 C1391.21629,696.441646 1176.85783,489.006466 937.836465,525.087563 C698.815106,561.168661 522.913561,709.209392 505.050009,956.643155 C487.186457,1204.07692 698.815106,1373.64945 937.836465,1388.19875 Z" id="Shape" fill="#FAFAFA" transform="translate(937.994910, 954.996896) rotate(39.000000) translate(-937.994910, -954.996896) "></path>
            <path d="M1801.34062,485 C1908.2625,465.625 2002.84062,395.009235 2002.84062,284 C2002.84062,172.990765 1912.626,83 1801.34062,83 C1690.05525,83 1617.47344,184.492187 1599.84062,284 C1582.20781,383.507812 1694.41875,504.375 1801.34062,485 Z" id="Shape" fill="#00CC99" transform="translate(1800.420312, 285.032136) rotate(39.000000) translate(-1800.420312, -285.032136) "></path>
            <path d="M1701.91932,915 C1854.46827,915 1953.68429,1037.38297 1978.13363,1191.15936 C2002.58296,1344.93576 1978.13363,1524.50573 1978.13363,1670.84064 C1978.13363,1817.17555 1864.24021,1947 1701.91932,1947 C1539.59844,1947 1409.40635,1817.46464 1425.70502,1670.84064 C1442.00368,1524.21663 1409.40635,1349.42206 1425.70502,1191.15936 C1442.00368,1032.89666 1549.37038,915 1701.91932,915 Z" id="Shape" fill="#FAFAFA" transform="translate(1705.000000, 1431.000000) rotate(39.000000) translate(-1705.000000, -1431.000000) "></path>
            <path d="M371.235616,470 C409.81643,470 438,440.094293 438,403.203735 C438,366.313176 405.284362,331.845966 371.235616,336.407469 C337.186871,340.968972 299.33208,362.874101 304.471233,403.203735 C309.610386,443.533368 332.654802,470 371.235616,470 Z" id="Shape" fill="#E0436B" transform="translate(371.000000, 403.000000) rotate(39.000000) translate(-371.000000, -403.000000) "></path>
            <path d="M1272.32668,1562 C1314.20204,1562 1339.58957,1499.0246 1345.47246,1448.27985 C1351.35536,1397.5351 1307.23233,1351.20854 1253.23623,1356.39836 C1199.24013,1361.58817 1161,1397.5351 1161,1448.27985 C1161,1499.0246 1230.45132,1562 1272.32668,1562 Z" id="Shape" fill="#FAFAFA" transform="translate(1253.500000, 1459.000000) rotate(39.000000) translate(-1253.500000, -1459.000000) "></path>
            <path d="M1673.99197,1294.95954 C1686.10826,1295.69706 1694.88655,1286.27339 1695.93045,1273.08345 C1696.97436,1259.89351 1686.10826,1249.37837 1673.99197,1251.20736 C1661.87568,1253.03636 1652.95901,1260.54073 1652.05348,1273.08345 C1651.14796,1285.62618 1661.87568,1294.22202 1673.99197,1294.95954 Z" id="Shape" fill="#FAFAFA" transform="translate(1674.000000, 1273.000000) rotate(39.000000) translate(-1674.000000, -1273.000000) "></path>
            <path d="M386.5,1706 C523.75,1706 643.492187,1583.32602 661,1432 C678.507813,1280.67398 547.195312,1142.52344 386.5,1158 C225.804688,1173.47656 112,1280.67398 112,1432 C112,1583.32602 249.25,1706 386.5,1706 Z" id="Shape" fill="#418CFF" transform="translate(387.284989, 1431.406028) rotate(39.000000) translate(-387.284989, -1431.406028) "></path>
            <path d="M1390.46696,659.833565 C1440.30897,662.867462 1476.41967,624.101896 1480.71391,569.843287 C1485.00815,515.584677 1440.30897,472.329185 1390.46696,479.853008 C1340.62495,487.376831 1303.94502,518.247076 1300.22001,569.843287 C1296.49501,621.439497 1340.62495,656.799669 1390.46696,659.833565 Z" id="Shape" fill="#FAFAFA" transform="translate(1390.500000, 569.500000) rotate(39.000000) translate(-1390.500000, -569.500000) "></path>
            <path d="M1942.90946,1748.54391 C2079.49309,1756.8578 2178.44837,1650.6273 2190.21601,1501.94072 C2201.98365,1353.25414 2079.49309,1234.71975 1942.90946,1255.33752 C1806.32583,1275.95529 1705.81066,1360.55 1695.60291,1501.94072 C1685.39517,1643.33144 1806.32583,1740.23003 1942.90946,1748.54391 Z" id="Shape" fill="#FAFAFA" transform="translate(1943.000000, 1501.000000) rotate(39.000000) translate(-1943.000000, -1501.000000) "></path>
        </g>
    </g>
</svg>