<?xml version="1.0" encoding="UTF-8"?>
<svg width="1600px" height="1200px" viewBox="0 0 1600 1200" version="1.1" xmlns="http://www.w3.org/2000/svg" xmlns:xlink="http://www.w3.org/1999/xlink">
    <!-- Generator: Sketch 55.2 (78181) - https://sketchapp.com -->
    <title>Waimakariri Copy 2</title>
    <desc>Created with Sketch.</desc>
    <g id="Waimakariri-Copy-2" stroke="none" stroke-width="1" fill="none" fill-rule="evenodd">
        <rect fill="#FFFFFF" x="0" y="0" width="1600" height="1200"></rect>
        <rect id="Background" fill="#E0E7EE" fill-rule="nonzero" x="0" y="0" width="1600" height="1200"></rect>
        <g id="Waimakariri" transform="translate(-277.000000, -353.000000)" fill-rule="nonzero">
            <path d="M887.841555,1376.20185 C1126.86291,1390.75114 1300.03464,1204.84777 1320.62801,944.646259 C1341.22138,684.44475 1126.86291,477.009571 887.841555,513.090668 C648.820195,549.171765 472.918651,697.212497 455.055099,944.646259 C437.191547,1192.08002 648.820195,1361.65256 887.841555,1376.20185 Z" id="Shape" fill="#FAFAFA" transform="translate(888.000000, 943.000000) rotate(39.000000) translate(-888.000000, -943.000000) "></path>
            <path d="M1801.34062,547 C1908.2625,527.625 2002.84062,457.009235 2002.84062,346 C2002.84062,234.990765 1912.626,145 1801.34062,145 C1690.05525,145 1617.47344,246.492187 1599.84062,346 C1582.20781,445.507812 1694.41875,566.375 1801.34062,547 Z" id="Shape" fill="#00CC99" transform="translate(1800.420312, 347.032136) rotate(39.000000) translate(-1800.420312, -347.032136) "></path>
            <path d="M1565.34062,909 C1672.2625,889.625 1766.84062,819.009235 1766.84062,708 C1766.84062,596.990765 1676.626,507 1565.34062,507 C1454.05525,507 1381.47344,608.492187 1363.84062,708 C1346.20781,807.507812 1458.41875,928.375 1565.34062,909 Z" id="Shape" fill="#00CC99" transform="translate(1564.420312, 709.032136) rotate(39.000000) translate(-1564.420312, -709.032136) "></path>
            <path d="M1701.91932,977 C1854.46827,977 1953.68429,1099.38297 1978.13363,1253.15936 C2002.58296,1406.93576 1978.13363,1586.50573 1978.13363,1732.84064 C1978.13363,1879.17555 1864.24021,2009 1701.91932,2009 C1539.59844,2009 1409.40635,1879.46464 1425.70502,1732.84064 C1442.00368,1586.21663 1409.40635,1411.42206 1425.70502,1253.15936 C1442.00368,1094.89666 1549.37038,977 1701.91932,977 Z" id="Shape" fill="#FAFAFA" transform="translate(1705.000000, 1493.000000) rotate(39.000000) translate(-1705.000000, -1493.000000) "></path>
            <path d="M349.872132,638 C492.678727,638 597,527.30425 597,390.754122 C597,254.203994 475.903309,126.623876 349.872132,143.508244 C223.840955,160.392612 83.7217291,241.474284 102.744265,390.754122 C121.7668,540.03396 207.065537,638 349.872132,638 Z" id="Shape" fill="#E0436B" transform="translate(349.000000, 390.000000) rotate(39.000000) translate(-349.000000, -390.000000) "></path>
            <path d="M1350.51996,574.808716 C1411.27035,574.808716 1455.64895,527.718386 1455.64895,469.629521 C1455.64895,411.540657 1404.13403,357.267663 1350.51996,364.450327 C1296.90589,371.632992 1237.29872,406.125397 1245.39097,469.629521 C1253.48322,533.133646 1289.76958,574.808716 1350.51996,574.808716 Z" id="Shape" fill="#E0436B" transform="translate(1350.148955, 469.308716) rotate(39.000000) translate(-1350.148955, -469.308716) "></path>
            <path d="M1790.44422,1444 C1945.0554,1444 2058,1324.154 2058,1176.31646 C2058,1028.47892 1926.8933,890.352865 1790.44422,908.632917 C1653.99515,926.912969 1502.29348,1014.69696 1522.88845,1176.31646 C1543.48341,1337.93596 1635.83305,1444 1790.44422,1444 Z" id="Shape" fill="#E0436B" transform="translate(1789.500000, 1175.500000) rotate(39.000000) translate(-1789.500000, -1175.500000) "></path>
            <path d="M1272.32668,1624 C1314.20204,1624 1339.58957,1561.0246 1345.47246,1510.27985 C1351.35536,1459.5351 1307.23233,1413.20854 1253.23623,1418.39836 C1199.24013,1423.58817 1161,1459.5351 1161,1510.27985 C1161,1561.0246 1230.45132,1624 1272.32668,1624 Z" id="Shape" fill="#FAFAFA" transform="translate(1253.500000, 1521.000000) rotate(39.000000) translate(-1253.500000, -1521.000000) "></path>
            <path d="M386.5,1768 C523.75,1768 643.492187,1645.32602 661,1494 C678.507813,1342.67398 547.195312,1204.52344 386.5,1220 C225.804688,1235.47656 112,1342.67398 112,1494 C112,1645.32602 249.25,1768 386.5,1768 Z" id="Shape" fill="#418CFF" transform="translate(387.284989, 1493.406028) rotate(39.000000) translate(-387.284989, -1493.406028) "></path>
            <path d="M1788.5,662.187944 C1925.75,662.187944 2045.49219,539.513966 2063,388.187944 C2080.50781,236.861923 1949.19531,98.7113817 1788.5,114.187944 C1627.80469,129.664507 1514,236.861923 1514,388.187944 C1514,539.513966 1651.25,662.187944 1788.5,662.187944 Z" id="Shape" fill="#418CFF" transform="translate(1789.284989, 387.593972) rotate(39.000000) translate(-1789.284989, -387.593972) "></path>
            <path d="M1477.45865,1208 C1484.68798,1208 1490.99512,1201.52217 1491.91731,1193.53136 C1492.83949,1185.54056 1485.92291,1178.24549 1477.45865,1179.06273 C1468.9944,1179.87997 1463,1185.54056 1463,1193.53136 C1463,1201.52217 1470.22933,1208 1477.45865,1208 Z" id="Shape" fill="#418CFF" transform="translate(1477.500000, 1193.500000) rotate(39.000000) translate(-1477.500000, -1193.500000) "></path>
            <path d="M1449.86598,1327 C1473.29897,1327 1493.74281,1306.0029 1496.73195,1280.10167 C1499.7211,1254.20043 1477.30183,1230.55433 1449.86598,1233.20333 C1422.43012,1235.85233 1403,1254.20043 1403,1280.10167 C1403,1306.0029 1426.43299,1327 1449.86598,1327 Z" id="Shape" fill="#418CFF" transform="translate(1450.000000, 1280.000000) rotate(39.000000) translate(-1450.000000, -1280.000000) "></path>
            <path d="M432.458653,753 C439.687979,753 445.995121,746.522171 446.917305,738.531365 C447.839489,730.540558 440.922906,723.245486 432.458653,724.06273 C423.994399,724.879973 418,730.540558 418,738.531365 C418,746.522171 425.229326,753 432.458653,753 Z" id="Shape" fill="#418CFF" transform="translate(432.500000, 738.500000) rotate(39.000000) translate(-432.500000, -738.500000) "></path>
            <path d="M477.865977,852 C501.298966,852 521.742808,831.0029 524.731954,805.101665 C527.721101,779.20043 505.301834,755.554334 477.865977,758.203331 C450.43012,760.852327 431,779.20043 431,805.101665 C431,831.0029 454.432989,852 477.865977,852 Z" id="Shape" fill="#418CFF" transform="translate(478.000000, 805.000000) rotate(39.000000) translate(-478.000000, -805.000000) "></path>
        </g>
    </g>
</svg>