<?xml version="1.0" encoding="UTF-8"?>
<svg width="1024px" height="1024px" viewBox="0 0 1024 1024" version="1.1" xmlns="http://www.w3.org/2000/svg" xmlns:xlink="http://www.w3.org/1999/xlink">
    <!-- Generator: Sketch 55.2 (78181) - https://sketchapp.com -->
    <title>Desktop</title>
    <desc>Created with Sketch.</desc>
    <g id="Desktop" stroke="none" stroke-width="1" fill="none" fill-rule="evenodd">
        <circle id="Oval" fill="#418CFF" opacity="0.431198847" cx="76" cy="61" r="10"></circle>
        <circle id="Oval" fill="#418CFF" opacity="0.431198847" cx="905" cy="207" r="10"></circle>
        <circle id="Oval" fill="#418CFF" opacity="0.431198847" cx="279" cy="782" r="10"></circle>
        <circle id="Oval" fill="#418CFF" opacity="0.431198847" cx="66" cy="992" r="10"></circle>
        <circle id="Oval" fill="#418CFF" opacity="0.431198847" cx="565" cy="291" r="10"></circle>
        <circle id="Oval" fill="#418CFF" opacity="0.431198847" cx="597" cy="758" r="10"></circle>
        <circle id="Oval" fill="#418CFF" opacity="0.431198847" cx="156" cy="412" r="10"></circle>
        <circle id="Oval" fill="#418CFF" opacity="0.431198847" cx="755" cy="470" r="10"></circle>
        <circle id="Oval" fill="#418CFF" opacity="0.431198847" cx="923" cy="945" r="10"></circle>
        <circle id="Oval" fill="#418CFF" opacity="0.431198847" cx="102" cy="630" r="10"></circle>
        <circle id="Oval" fill="#418CFF" opacity="0.431198847" cx="463" cy="81" r="10"></circle>
        <circle id="Oval" fill="#418CFF" opacity="0.431198847" cx="693" cy="911" r="10"></circle>
        <polygon id="Triangle" fill="#3DBB61" opacity="0.631277902" transform="translate(106.000000, 221.000000) rotate(-30.000000) translate(-106.000000, -221.000000) " points="106 211 116 231 96 231"></polygon>
        <polygon id="Triangle" fill="#3DBB61" opacity="0.631277902" transform="translate(687.000000, 112.000000) rotate(-30.000000) translate(-687.000000, -112.000000) " points="687 102 697 122 677 122"></polygon>
        <polygon id="Triangle" fill="#3DBB61" opacity="0.631277902" transform="translate(477.000000, 839.000000) rotate(150.000000) translate(-477.000000, -839.000000) " points="477 829 487 849 467 849"></polygon>
        <polygon id="Triangle" fill="#3DBB61" opacity="0.631277902" transform="translate(349.000000, 213.000000) rotate(150.000000) translate(-349.000000, -213.000000) " points="349 203 359 223 339 223"></polygon>
        <polygon id="Triangle" fill="#3DBB61" opacity="0.631277902" transform="translate(714.000000, 636.000000) rotate(150.000000) translate(-714.000000, -636.000000) " points="714 626 724 646 704 646"></polygon>
        <polygon id="Triangle" fill="#3DBB61" opacity="0.631277902" transform="translate(943.000000, 57.000000) rotate(150.000000) translate(-943.000000, -57.000000) " points="943 47 953 67 933 67"></polygon>
        <polygon id="Triangle" fill="#3DBB61" opacity="0.631277902" transform="translate(836.000000, 758.000000) rotate(150.000000) translate(-836.000000, -758.000000) " points="836 748 846 768 826 768"></polygon>
        <polygon id="Triangle" fill="#3DBB61" opacity="0.631277902" transform="translate(376.000000, 470.000000) rotate(-30.000000) translate(-376.000000, -470.000000) " points="376 460 386 480 366 480"></polygon>
        <polygon id="Triangle" fill="#3DBB61" opacity="0.631277902" transform="translate(947.000000, 516.000000) rotate(-30.000000) translate(-947.000000, -516.000000) " points="947 506 957 526 937 526"></polygon>
        <polygon id="Triangle" fill="#3DBB61" opacity="0.631277902" transform="translate(234.000000, 959.000000) rotate(-30.000000) translate(-234.000000, -959.000000) " points="234 949 244 969 224 969"></polygon>
    </g>
</svg>