<?xml version="1.0" encoding="UTF-8"?>
<svg width="1440px" height="1024px" viewBox="0 0 1440 1024" version="1.1" xmlns="http://www.w3.org/2000/svg" xmlns:xlink="http://www.w3.org/1999/xlink">
    <!-- Generator: Sketch 55.2 (78181) - https://sketchapp.com -->
    <title>Desktop Copy 2</title>
    <desc>Created with Sketch.</desc>
    <g id="Desktop-Copy-2" stroke="none" stroke-width="1" fill="none" fill-rule="evenodd">
        <circle id="Oval" fill="#418CFF" opacity="0.431198847" cx="76" cy="61" r="10"></circle>
        <circle id="Oval" fill="#418CFF" opacity="0.431198847" cx="86" cy="552" r="10"></circle>
        <circle id="Oval" fill="#418CFF" opacity="0.431198847" cx="840" cy="911" r="10"></circle>
        <circle id="Oval" fill="#418CFF" opacity="0.431198847" cx="131" cy="833" r="10"></circle>
        <circle id="Oval" fill="#418CFF" opacity="0.431198847" cx="1315" cy="207" r="10"></circle>
        <circle id="Oval" fill="#418CFF" opacity="0.431198847" cx="66" cy="992" r="10"></circle>
        <circle id="Oval" fill="#418CFF" opacity="0.431198847" cx="1333" cy="945" r="10"></circle>
        <polygon id="Triangle" fill="#3DBB61" opacity="0.631277902" transform="translate(42.000000, 170.000000) rotate(-30.000000) translate(-42.000000, -170.000000) " points="42 160 52 180 32 180"></polygon>
        <polygon id="Triangle" fill="#3DBB61" opacity="0.631277902" transform="translate(46.000000, 703.000000) rotate(-30.000000) translate(-46.000000, -703.000000) " points="46 693 56 713 36 713"></polygon>
        <polygon id="Triangle" fill="#3DBB61" opacity="0.631277902" transform="translate(1353.000000, 57.000000) rotate(150.000000) translate(-1353.000000, -57.000000) " points="1353 47 1363 67 1343 67"></polygon>
        <polygon id="Triangle" fill="#3DBB61" opacity="0.631277902" transform="translate(606.000000, 856.000000) rotate(150.000000) translate(-606.000000, -856.000000) " points="606 846 616 866 596 866"></polygon>
        <polygon id="Triangle" fill="#3DBB61" opacity="0.631277902" transform="translate(744.000000, 112.000000) rotate(-30.000000) translate(-744.000000, -112.000000) " points="744 102 754 122 734 122"></polygon>
        <polygon id="Triangle" fill="#3DBB61" opacity="0.631277902" transform="translate(1246.000000, 758.000000) rotate(150.000000) translate(-1246.000000, -758.000000) " points="1246 748 1256 768 1236 768"></polygon>
        <polygon id="Triangle" fill="#3DBB61" opacity="0.631277902" transform="translate(1374.000000, 336.000000) rotate(150.000000) translate(-1374.000000, -336.000000) " points="1374 326 1384 346 1364 346"></polygon>
        <polygon id="Triangle" fill="#3DBB61" opacity="0.631277902" transform="translate(46.000000, 336.000000) rotate(150.000000) translate(-46.000000, -336.000000) " points="46 326 56 346 36 346"></polygon>
        <polygon id="Triangle" fill="#3DBB61" opacity="0.631277902" transform="translate(1357.000000, 516.000000) rotate(-30.000000) translate(-1357.000000, -516.000000) " points="1357 506 1367 526 1347 526"></polygon>
        <polygon id="Triangle" fill="#3DBB61" opacity="0.631277902" transform="translate(234.000000, 959.000000) rotate(-30.000000) translate(-234.000000, -959.000000) " points="234 949 244 969 224 969"></polygon>
        <circle id="Oval" fill="#418CFF" opacity="0.431198847" cx="295" cy="116" r="10"></circle>
        <circle id="Oval" fill="#418CFF" opacity="0.431198847" cx="1003" cy="540" r="10"></circle>
    </g>
</svg>