<?xml version="1.0" encoding="UTF-8"?>
<svg width="679px" height="1029px" viewBox="0 0 679 1029" version="1.1" xmlns="http://www.w3.org/2000/svg" xmlns:xlink="http://www.w3.org/1999/xlink">
    <!-- Generator: Sketch 55.2 (78181) - https://sketchapp.com -->
    <title>Character / Man / 6</title>
    <desc>Created with Sketch.</desc>
    <g id="Character-/-Man-/-6" stroke="none" stroke-width="1" fill="none" fill-rule="evenodd">
        <g id="Man-/-Head-/-6" transform="translate(245.000000, 69.000000)">
            <g id="Group-30" transform="translate(38.000000, 45.000000)">
                <path d="M99.1604899,70.0328736 C87.7905906,70.0328736 78.5725369,58.4116957 78.5725369,44.0756712 C78.5725369,29.7396466 87.7905906,18.1184687 99.1604899,18.1184687 C110.531295,18.1184687 119.749349,29.7396466 119.749349,44.0756712 C119.749349,58.4116957 110.531295,70.0328736 99.1604899,70.0328736 Z" id="Fill-1" fill="#19141E"></path>
                <g id="Face-color" transform="translate(0.000000, 29.963190)" fill="#EA847A" fill-rule="nonzero">
                    <path d="M71.0284832,116.942427 L70.1668389,87.1290528 C70.1668389,87.1290528 106.314221,90.0136908 114.047275,85.9877276 C114.047275,85.9877276 123.498181,37.1858626 112.226134,10.160881 L111.997812,9.10853742 L35.7164698,0.165887117 L31.4399414,44.0368098 C28.8704112,36.4406871 7.66365101,27.8273595 2.12049664,38.7049055 C-9.89269128,62.2750405 33.0608658,78.1455436 33.0608658,78.1455436 L28.6991879,117.300169" id="Face"></path>
                </g>
                <polygon id="Fill-5" fill="#000000" opacity="0.398925781" points="70.1671107 117.09188 45.7919094 111.853769 70.0502315 128.277229"></polygon>
                <polygon id="Fill-7" fill="#FCB8A4" fill-rule="nonzero" points="89.6518691 73.4425031 98.0744195 94.0807853 87.9802248 94.2097178"></polygon>
                <path d="M80.6697483,74.2369816 C81.1716946,77.0162945 79.3297148,79.6766626 76.5572315,80.178773 C73.7838423,80.6817914 71.1291443,78.8358773 70.628104,76.0574724 C70.1261577,73.2781595 71.9672315,70.6177914 74.7406208,70.114773 C77.5140101,69.6126626 80.167802,71.4576687 80.6697483,74.2369816" id="Fill-9" fill="#2F2F3D" fill-rule="nonzero"></path>
                <path d="M108.973812,74.2369816 C109.475758,77.0162945 107.633779,79.6766626 104.861295,80.178773 C102.087906,80.6817914 99.4332081,78.8358773 98.9321678,76.0574724 C98.4302215,73.2781595 100.271295,70.6177914 103.044685,70.114773 C105.818074,69.6126626 108.471866,71.4576687 108.973812,74.2369816 Z" id="Fill-11" fill="#2F2F3D" fill-rule="nonzero"></path>
                <path d="M37.1043424,81.4879338 C29.8717759,69.0818063 19.4075036,65.2983098 14.7104567,64.1887592 C12.8372338,58.7621026 11.4090766,52.4684651 10.4056913,45.7749472 C7.71475168,27.8605914 20.7109933,11.5161252 31.2083758,6.8228 C41.8344161,2.07318037 60.1563624,-4.50873374 86.9751544,4.42574479 C105.005356,10.4365423 116.530188,-3.95396074 127.139919,2.19212515 C145.269785,12.6974012 128.406564,58.6899902 82.4349866,47.006162 C49.5511611,38.6482479 48.7058255,40.7447632 48.424047,46.820027 C47.5123303,66.4574532 44.4569009,78.0100505 37.1043424,81.4879338 L37.1043424,81.4879338 Z" id="Hair" fill="#2F2F3D" fill-rule="nonzero"></path>
                <g id="Group-21" transform="translate(75.201342, 94.601055)">
                    <path d="M0.428104027,0.375720245 C0.428104027,0.375720245 3.66901007,6.27756074 10.6736074,6.13773252" id="Fill-18" fill="#FFFFFF"></path>
                    <path d="M0.428104027,0.375720245 C0.428104027,0.375720245 3.66901007,6.27756074 10.6736074,6.13773252" id="Stroke-20" stroke="#252535" stroke-width="4"></path>
                </g>
            </g>
        </g>
        <g id="Man-/-Legs-/-6" transform="translate(53.000000, 249.000000)">
            <g id="Group-23" transform="translate(149.000000, 181.237430)">
                <g id="Shoes" transform="translate(0.000000, 460.399550)" fill="#5E93D1" fill-rule="nonzero">
                    <path d="M182.330961,15.8791131 L182.047748,40.3298346 C182.047748,40.3298346 236.83074,48.9636944 255.401827,69.897215 L146.256126,69.897215 L150.827843,-1.13686838e-13 L182.330961,15.8791131 Z M42.5209953,13.8199992 L42.2367748,41.2828826 C42.2367748,41.2828826 65.3110425,44.2970525 74.7034205,69.8974158 L0.000806299213,69.8974158 L5.45542047,39.763749 L21.9825386,30.5545662 L42.5209953,13.8199992 Z"></path>
                </g>
                <g id="Leg-skin" transform="translate(5.039370, 464.212344)" fill="#EA847A" fill-rule="nonzero">
                    <path d="M145.788674,2.59347133 L177.291792,12.0667202 L177.00858,36.5164377 L143.248831,34.9983082 L145.788674,2.59347133 Z M5.97860787,0.533453858 L37.481726,10.0077068 L37.1975055,37.4695861 L0.415143307,35.9504525 L5.97860787,0.533453858 Z" id="Skin"></path>
                </g>
                <g id="Pants" transform="translate(1.007874, 0.000000)" fill="#19141E" fill-rule="nonzero">
                    <path d="M185.837948,468.262151 L185.111483,490.954116 L143.556838,490.954116 L144.285481,468.19411 C139.630081,466.325448 136.303834,461.831041 136.190387,456.520789 L129.501624,116.629338 L57.2270866,459.778743 C56.2087126,464.605777 52.6310058,468.354479 48.0874604,469.73614 L45.3703559,490.954116 L1.7999622,490.954116 L5.54978897,467.52808 C1.92160908,464.71399 -0.181090682,460.085189 0.54223622,455.141018 L67.0820787,0.339725195 L127.213142,0.339516797 L127.209728,0.166000027 L200.039546,0.166000027 L195.674104,455.885223 C195.613596,461.877785 191.447488,466.891043 185.837948,468.262151 L185.837948,468.262151 Z"></path>
                </g>
                <polygon id="Fill-15" fill="#000000" opacity="0.197823661" points="130.140019 122.015299 142.891641 65.444892 133.297688 236.951362"></polygon>
                <g id="Pants-line" transform="translate(7.055118, 0.339424)" fill="#EFEFEF" fill-rule="nonzero">
                    <polygon points="76.5923351 0.428732993 83.5716043 1.56834402 7.46062992 465.042069 0.460752953 463.87292"></polygon>
                </g>
            </g>
        </g>
        <g id="Man-/-Body-/-6" transform="translate(186.000000, 212.000000)">
            <g id="Group-18">
                <g id="Skin-color" transform="translate(0.155800, 0.000000)" fill="#EA847A" fill-rule="nonzero">
                    <path d="M316.9268,62.6815971 L316.4268,54.0525062 C316.4268,54.0525062 316.4368,48.0479314 317.2168,41.5661718 C317.9968,35.0844123 322.4968,27.4196323 317.7368,15.9771396 C312.9768,4.54458827 324.3568,12.4380194 326.8768,17.8759372 C328.9768,22.4091924 327.8668,31.942946 330.4468,35.4323595 C332.6268,34.249339 334.0768,32.7084299 334.0768,32.7084299 L358.6068,1.07505748 C359.3968,0.0113331378 360.8568,-0.306790029 362.0268,0.319514956 L363.3468,1.03529208 C364.7368,1.7908346 365.1768,3.56039472 364.2868,4.85277009 C359.4968,11.8415384 344.6568,32.3406 345.0568,32.5493683 L345.7068,33.3347349 L374.5168,3.13291672 C375.4168,2.12884047 376.9268,1.94989619 378.0368,2.71538006 L379.7668,3.90834194 C381.0268,4.7732393 381.2968,6.50303402 380.3568,7.69599589 C374.6268,15.0525941 353.1268,38.4048229 353.5368,38.6334739 L354.3968,39.4586059 L381.2168,15.9075501 C382.1668,14.8537672 383.7868,14.734471 384.8868,15.619251 L386.1968,16.6829754 C387.3468,17.6075208 387.5168,19.2876088 386.5768,20.4209226 L361.2468,44.1012158 L361.9768,45.244471 L383.9668,29.8850868 C384.9768,28.9903654 386.4968,28.9903654 387.5168,29.8751455 L388.1268,30.4219196 C389.2068,31.3762891 389.3268,33.0166117 388.3868,34.1201015 C385.1668,37.9077554 375.1668,44.2503361 367.3068,52.0741777 C361.2068,58.1483419 358.2168,63.904383 349.6968,70.7241484 C346.0968,73.6170809 342.8868,75.128166 339.8268,76.7287232 L316.9268,62.6815971 Z M119.2173,42.8834006 C119.2173,42.8834006 136.1643,42.8505941 148.3953,42.8098346 C160.6253,42.7680809 176.0053,47.9087525 176.0053,47.9087525 C176.0053,47.9087525 184.0083,65.8787349 156.2083,64.2513361 C128.4083,62.621949 119.2173,42.8834006 119.2173,42.8834006 Z M0.0103004754,178.939112 C-0.604699525,156.303655 26.5243005,115.601784 26.5243005,115.601784 L74.0103005,136.72715 L54.4713005,178.327719 L108.1993,253.197012 L86.0813005,271.204772 C86.0813005,271.204772 0.736300475,205.627657 0.0103004754,178.939112 Z" id="Skin"></path>
                </g>
                <g id="Sweater-color" transform="translate(-0.000228, 42.747801)" fill="#5E93D1" fill-rule="nonzero">
                    <path d="M101.928724,177.8146 L115.140528,195.533709 L75.345528,230.201181 C75.345528,230.201181 2.31852799,176.706782 0.0635279902,134.764231 C-1.37247201,108.049838 22.012528,69.9158173 22.012528,69.9158173 C22.012528,69.9158173 51.364528,23.0314214 85.294528,7.20877038 C92.2575386,3.96157113 109.139441,1.25303092 119.373328,0.1356 C122.510256,-0.206918937 120.634707,1.01463229 121.711654,3.08211642 C122.83675,5.24203507 126.26145,8.44255377 128.630599,10.8347683 C133.561751,15.813929 143.280013,19.5841662 148.500228,20.3559799 C152.478215,20.9441291 160.166732,21.8565321 163.864974,21.3600659 C167.563216,20.8635997 171.584334,19.1949828 172.658919,18.2036391 C173.733504,17.2122953 175.332015,15.9719324 176.161328,14.0613294 C176.990641,12.1507264 176.94847,12.6980227 176.94847,10.9354839 C176.94847,9.17294504 176.85747,9.43360234 176.684798,8.59480102 C176.512126,7.7559997 176.512126,7.25172954 176.410384,6.81829458 C175.960142,4.90020079 176.161328,5.16095191 176.161328,5.16095191 C196.190837,11.2069502 206.336737,13.4445144 213.63346,22.2400197 L269.397228,61.3511463 L307.551228,11.5937006 L356.781228,44.6288032 C356.781228,44.6288032 313.192228,125.79097 281.602228,134.764032 C256.155415,141.992136 230.376373,119.513066 221.312393,110.496881 L232.081528,165.134058 C233.807528,174.567404 225.542528,178.137342 218.178528,177.803313 L101.928724,177.8146 Z" id="Sweater"></path>
                </g>
                <polygon id="Fill-9" fill="#000000" opacity="0.201241629" points="221.1431 153.277508 214.4781 126.95381 232.4741 162.92857"></polygon>
                <polyline id="Stroke-16" stroke="#000000" stroke-width="5" opacity="0.200590588" points="96.9864 214.218275 65.9094 170.170146 103.4484 113.274812"></polyline>
            </g>
        </g>
    </g>
</svg>