<?xml version="1.0" encoding="UTF-8"?>
<svg width="1600px" height="1200px" viewBox="0 0 1600 1200" version="1.1" xmlns="http://www.w3.org/2000/svg" xmlns:xlink="http://www.w3.org/1999/xlink">
    <!-- Generator: Sketch 55.2 (78181) - https://sketchapp.com -->
    <title>Waimakariri Copy 3</title>
    <desc>Created with Sketch.</desc>
    <g id="Waimakariri-Copy-3" stroke="none" stroke-width="1" fill="none" fill-rule="evenodd">
        <rect fill="#FFFFFF" x="0" y="0" width="1600" height="1200"></rect>
        <rect id="Background" fill="#E0E7EE" fill-rule="nonzero" x="0" y="0" width="1600" height="1200"></rect>
        <g id="Waimakariri" transform="translate(-414.000000, -408.000000)" fill-rule="nonzero">
            <path d="M1074.83647,1505.19875 C1313.85783,1519.74804 1487.02955,1333.84466 1507.62292,1073.64315 C1528.21629,813.441646 1313.85783,606.006466 1074.83647,642.087563 C835.815106,678.168661 659.913561,826.209392 642.050009,1073.64315 C624.186457,1321.07692 835.815106,1490.64945 1074.83647,1505.19875 Z" id="Shape" fill="#FAFAFA" transform="translate(1074.994910, 1071.996896) rotate(39.000000) translate(-1074.994910, -1071.996896) "></path>
            <path d="M1938.34062,602 C2045.2625,582.625 2139.84062,512.009235 2139.84062,401 C2139.84062,289.990765 2049.626,200 1938.34062,200 C1827.05525,200 1754.47344,301.492187 1736.84062,401 C1719.20781,500.507812 1831.41875,621.375 1938.34062,602 Z" id="Shape" fill="#418CFF" transform="translate(1937.420312, 402.032136) rotate(39.000000) translate(-1937.420312, -402.032136) "></path>
            <path d="M1834.87709,1146.17855 C1968.08884,1146.17855 2054.72819,1256.34694 2076.07831,1394.7755 C2097.42843,1533.20405 2076.07831,1694.85183 2076.07831,1826.58161 C2076.07831,1958.31138 1976.62208,2075.17855 1834.87709,2075.17855 C1693.13209,2075.17855 1579.44323,1958.57162 1593.67586,1826.58161 C1607.9085,1694.59159 1579.44323,1537.2426 1593.67586,1394.7755 C1607.9085,1252.3084 1701.66533,1146.17855 1834.87709,1146.17855 Z" id="Shape" fill="#FAFAFA" transform="translate(1837.567254, 1610.678551) rotate(39.000000) translate(-1837.567254, -1610.678551) "></path>
            <path d="M709.98574,849.284088 C831.626365,849.284088 920.48574,755.040027 920.48574,638.784088 C920.48574,522.528148 817.337302,413.909088 709.98574,428.284088 C602.634177,442.659088 483.282615,511.690338 499.48574,638.784088 C515.688865,765.877838 588.345115,849.284088 709.98574,849.284088 Z" id="Shape" fill="#418CFF" transform="translate(709.242870, 638.142044) rotate(39.000000) translate(-709.242870, -638.142044) "></path>
            <path d="M909.235616,1508 C947.81643,1508 976,1478.09429 976,1441.20373 C976,1404.31318 943.284362,1369.84597 909.235616,1374.40747 C875.186871,1378.96897 837.33208,1400.8741 842.471233,1441.20373 C847.610386,1481.53337 870.654802,1508 909.235616,1508 Z" id="Shape" fill="#418CFF" transform="translate(909.000000, 1441.000000) rotate(39.000000) translate(-909.000000, -1441.000000) "></path>
            <path d="M491.154733,531 C516.491387,531 535,511.360431 535,487.133796 C535,462.90716 513.515103,440.271978 491.154733,443.267592 C468.794363,446.263205 443.9345,460.648663 447.309466,487.133796 C450.684432,513.618928 465.818079,531 491.154733,531 Z" id="Shape" fill="#00CC99" transform="translate(491.000000, 487.000000) rotate(39.000000) translate(-491.000000, -487.000000) "></path>
            <path d="M948.154733,796 C973.491387,796 992,776.360431 992,752.133796 C992,727.90716 970.515103,705.271978 948.154733,708.267592 C925.794363,711.263205 900.9345,725.648663 904.309466,752.133796 C907.684432,778.618928 922.818079,796 948.154733,796 Z" id="Shape" fill="#00CC99" transform="translate(948.000000, 752.000000) rotate(39.000000) translate(-948.000000, -752.000000) "></path>
            <path d="M1031.07033,794 C1042.58699,794 1051,785.072923 1051,774.060816 C1051,763.048709 1041.23414,752.75999 1031.07033,754.121633 C1020.90653,755.483275 1009.60659,762.02212 1011.14067,774.060816 C1012.67474,786.099513 1019.55367,794 1031.07033,794 Z" id="Shape" fill="#00CC99" transform="translate(1031.000000, 774.000000) rotate(39.000000) translate(-1031.000000, -774.000000) "></path>
            <path d="M1409.32668,1679 C1451.20204,1679 1476.58957,1616.0246 1482.47246,1565.27985 C1488.35536,1514.5351 1444.23233,1468.20854 1390.23623,1473.39836 C1336.24013,1478.58817 1298,1514.5351 1298,1565.27985 C1298,1616.0246 1367.45132,1679 1409.32668,1679 Z" id="Shape" fill="#FAFAFA" transform="translate(1390.500000, 1576.000000) rotate(39.000000) translate(-1390.500000, -1576.000000) "></path>
            <path d="M554.991968,908.959541 C567.108258,909.697063 575.886549,900.273389 576.930452,887.083451 C577.974356,873.893513 567.108258,863.378365 554.991968,865.207361 C542.875678,867.036357 533.95901,874.540726 533.053484,887.083451 C532.147959,899.626176 542.875678,908.222019 554.991968,908.959541 Z" id="Shape" fill="#00CC99" transform="translate(555.000000, 887.000000) rotate(39.000000) translate(-555.000000, -887.000000) "></path>
            <path d="M1810.99197,1411.95954 C1823.10826,1412.69706 1831.88655,1403.27339 1832.93045,1390.08345 C1833.97436,1376.89351 1823.10826,1366.37837 1810.99197,1368.20736 C1798.87568,1370.03636 1789.95901,1377.54073 1789.05348,1390.08345 C1788.14796,1402.62618 1798.87568,1411.22202 1810.99197,1411.95954 Z" id="Shape" fill="#FAFAFA" transform="translate(1811.000000, 1390.000000) rotate(39.000000) translate(-1811.000000, -1390.000000) "></path>
            <path d="M1997.97554,805.876783 C2034.87515,808.122872 2061.60903,779.423503 2064.7882,739.254146 C2067.96736,699.084789 2034.87515,667.061385 1997.97554,672.631509 C1961.07593,678.201632 1933.92062,701.055846 1931.16288,739.254146 C1928.40515,777.452446 1961.07593,803.630694 1997.97554,805.876783 Z" id="Shape" fill="#418CFF" transform="translate(1998.000000, 739.000000) rotate(39.000000) translate(-1998.000000, -739.000000) "></path>
            <path d="M523.5,1823 C660.75,1823 780.492187,1700.32602 798,1549 C815.507813,1397.67398 684.195312,1259.52344 523.5,1275 C362.804688,1290.47656 249,1397.67398 249,1549 C249,1700.32602 386.25,1823 523.5,1823 Z" id="Shape" fill="#418CFF" transform="translate(524.284989, 1548.406028) rotate(39.000000) translate(-524.284989, -1548.406028) "></path>
            <path d="M1527.46696,776.833565 C1577.30897,779.867462 1613.41967,741.101896 1617.71391,686.843287 C1622.00815,632.584677 1577.30897,589.329185 1527.46696,596.853008 C1477.62495,604.376831 1440.94502,635.247076 1437.22001,686.843287 C1433.49501,738.439497 1477.62495,773.799669 1527.46696,776.833565 Z" id="Shape" fill="#FAFAFA" transform="translate(1527.500000, 686.500000) rotate(39.000000) translate(-1527.500000, -686.500000) "></path>
            <path d="M348.90946,1480.54391 C485.493094,1488.8578 584.448366,1382.6273 596.216007,1233.94072 C607.983647,1085.25414 485.493094,966.719755 348.90946,987.337524 C212.325826,1007.95529 111.810658,1092.55 101.602914,1233.94072 C91.3951695,1375.33144 212.325826,1472.23003 348.90946,1480.54391 Z" id="Shape" fill="#418CFF" transform="translate(349.000000, 1233.000000) rotate(39.000000) translate(-349.000000, -1233.000000) "></path>
            <path d="M2079.90946,1865.54391 C2216.49309,1873.8578 2315.44837,1767.6273 2327.21601,1618.94072 C2338.98365,1470.25414 2216.49309,1351.71975 2079.90946,1372.33752 C1943.32583,1392.95529 1842.81066,1477.55 1832.60291,1618.94072 C1822.39517,1760.33144 1943.32583,1857.23003 2079.90946,1865.54391 Z" id="Shape" fill="#418CFF" transform="translate(2080.000000, 1618.000000) rotate(39.000000) translate(-2080.000000, -1618.000000) "></path>
            <path d="M1872.15004,665.662821 C1889.5812,662.498102 1905,650.963698 1905,632.83141 C1905,614.699123 1890.29257,600 1872.15004,600 C1854.0075,600 1842.1747,616.577769 1839.30007,632.83141 C1836.42544,649.085051 1854.71887,668.82754 1872.15004,665.662821 Z" id="Shape" fill="#00CC99" transform="translate(1872.000000, 633.000000) rotate(39.000000) translate(-1872.000000, -633.000000) "></path>
            <path d="M1591.1692,488.511586 C1601.73354,486.593575 1611.07827,479.603027 1611.07827,468.613762 C1611.07827,457.624497 1602.16467,448.715937 1591.1692,448.715937 C1580.17372,448.715937 1573.00233,458.76307 1571.26013,468.613762 C1569.51793,478.464453 1580.60486,490.429598 1591.1692,488.511586 Z" id="Shape" fill="#00CC99" transform="translate(1591.078268, 468.715937) rotate(39.000000) translate(-1591.078268, -468.715937) "></path>
        </g>
    </g>
</svg>