<?xml version="1.0" encoding="UTF-8"?>
<svg width="2021px" height="1134px" viewBox="0 0 2021 1134" version="1.1" xmlns="http://www.w3.org/2000/svg" xmlns:xlink="http://www.w3.org/1999/xlink">
    <!-- Generator: Sketch 55.2 (78181) - https://sketchapp.com -->
    <title>Illustration 20</title>
    <desc>Created with Sketch.</desc>
    <g id="Scene" stroke="none" stroke-width="1" fill="none" fill-rule="evenodd">
        <g id="Illustration-20" transform="translate(0.000000, -21.000000)">
            <g id="Background">
                <g id="Group-31" transform="translate(525.000000, 42.000000)">
                    <polygon id="Fill-1" fill="#ECF6FF" points="75.781 619.211 105.449 619.211 105.449 60.715 75.781 60.715"></polygon>
                    <polygon id="Fill-2" fill="#B6D4FF" points="373.314 633.654 382.912 633.654 382.912 47.551 373.314 47.551"></polygon>
                    <path d="M265.0217,47.7503 L265.0217,339.9633" id="Stroke-3" stroke="#DCEEFF" stroke-width="15"></path>
                    <path d="M166.8205,47.7503 L166.8205,339.9633" id="Stroke-4" stroke="#DCEEFF" stroke-width="15"></path>
                    <path d="M373.3137,340.6028 L96.2527,340.6028" id="Stroke-5" stroke="#DCEEFF" stroke-width="15"></path>
                    <path d="M59.62,633.654 L373.314,633.654 L373.314,47.552 L59.62,47.552 L59.62,633.654 Z M88.619,604.654 L344.314,604.654 L344.314,76.551 L88.619,76.551 L88.619,604.654 Z" id="Fill-6" fill="#DCEEFF"></path>
                    <polygon id="Fill-7" fill="#ECF6FF" points="51.74 604.704 381.193 604.704 381.193 591.461 51.74 591.461"></polygon>
                    <polygon id="Fill-8" fill="#B6D4FF" points="381.192 604.704 389.325 604.704 389.325 591.461 381.192 591.461"></polygon>
                    <path d="M275.7424,520.4314 C278.5004,544.3974 269.5304,564.8744 269.5304,564.8744 C269.5304,564.8744 256.0894,546.4964 253.3314,522.5304 C250.5724,498.5654 259.5424,478.0874 259.5424,478.0874 C259.5424,478.0874 272.9834,496.4664 275.7424,520.4314" id="Fill-9" fill="#D2E9FC"></path>
                    <path d="M200.2551,539.1716 C199.3941,563.2806 187.4591,582.1836 187.4591,582.1836 C187.4591,582.1836 176.9211,562.0006 177.7821,537.8916 C178.6431,513.7836 190.5771,494.8796 190.5771,494.8796 C190.5771,494.8796 201.1161,515.0636 200.2551,539.1716" id="Fill-11" fill="#D2E9FC"></path>
                    <path d="M269.923,539.6604 C281.916,561.1894 281.573,583.2054 281.573,583.2054 C281.573,583.2054 261.784,570.3164 249.79,548.7874 C237.797,527.2594 238.14,505.2434 238.14,505.2434 C238.14,505.2434 257.929,518.1314 269.923,539.6604" id="Fill-13" fill="#D2E9FC"></path>
                    <path d="M286.8068,523.0032 C283.7398,546.9382 270.0608,565.1742 270.0608,565.1742 C270.0608,565.1742 261.3558,544.6042 264.4228,520.6692 C267.4908,496.7332 281.1688,478.4982 281.1688,478.4982 C281.1688,478.4982 289.8738,499.0682 286.8068,523.0032" id="Fill-15" fill="#D2E9FC"></path>
                    <path d="M296.7922,540.3025 C286.9162,562.6895 268.4422,577.0795 268.4422,577.0795 C268.4422,577.0795 265.9802,555.1745 275.8562,532.7865 C285.7322,510.4005 304.2062,496.0095 304.2062,496.0095 C304.2062,496.0095 306.6672,517.9155 296.7922,540.3025" id="Fill-17" fill="#D2E9FC"></path>
                    <polygon id="Fill-19" fill="#DCEEFF" points="0 20.249 434.29 20.249 434.29 0 0 0"></polygon>
                    <polygon id="Fill-21" fill="#B6D4FF" points="430.658 20.249 440.933 20.249 440.933 0 430.658 0"></polygon>
                    <polygon id="Fill-22" fill="#B6D4FF" points="430.526 144.98 436.907 144.98 436.907 131.984 430.526 131.984"></polygon>
                    <polygon id="Fill-23" fill="#DCEEFF" points="11.143 131.984 425.836 131.984 425.836 20.25 11.143 20.25"></polygon>
                    <polygon id="Fill-24" fill="#CCE3FF" points="4.405 144.98 431.958 144.98 431.958 131.984 4.405 131.984"></polygon>
                    <polygon id="Fill-25" fill="#B6D4FF" points="11.143 37.24 425.836 37.24 425.836 20.249 11.143 20.249"></polygon>
                    <polygon id="Fill-26" fill="#B6D4FF" points="243.2863 546.7971 299.9743 546.7971 293.9893 591.4611 249.2703 591.4611"></polygon>
                    <path d="M192.5852,545.5066 C202.4912,566.6396 200.5672,588.1846 200.5672,588.1846 C200.5672,588.1846 182.5802,575.4646 172.6742,554.3306 C162.7672,533.1966 164.6902,511.6526 164.6902,511.6526 C164.6902,511.6526 182.6782,524.3726 192.5852,545.5066" id="Fill-27" fill="#D2E9FC"></path>
                    <path d="M207.5314,555.8337 C198.7804,577.4787 181.4994,591.1827 181.4994,591.1827 C181.4994,591.1827 178.4074,569.7937 187.1594,548.1487 C195.9114,526.5047 213.1914,512.7997 213.1914,512.7997 C213.1914,512.7997 216.2834,534.1887 207.5314,555.8337" id="Fill-28" fill="#D2E9FC"></path>
                    <polygon id="Fill-29" fill="#B6D4FF" points="168.674 556.9793 212.44 556.9793 207.819 591.4603 173.295 591.4603"></polygon>
                </g>
                <g id="Group-31" transform="translate(1381.000000, 42.000000)">
                    <polygon id="Fill-1" fill="#ECF6FF" points="75.781 619.211 105.449 619.211 105.449 60.715 75.781 60.715"></polygon>
                    <polygon id="Fill-2" fill="#B6D4FF" points="373.314 633.654 382.912 633.654 382.912 47.551 373.314 47.551"></polygon>
                    <path d="M265.0217,47.7503 L265.0217,339.9633" id="Stroke-3" stroke="#DCEEFF" stroke-width="15"></path>
                    <path d="M166.8205,47.7503 L166.8205,339.9633" id="Stroke-4" stroke="#DCEEFF" stroke-width="15"></path>
                    <path d="M373.3137,340.6028 L96.2527,340.6028" id="Stroke-5" stroke="#DCEEFF" stroke-width="15"></path>
                    <path d="M59.62,633.654 L373.314,633.654 L373.314,47.552 L59.62,47.552 L59.62,633.654 Z M88.619,604.654 L344.314,604.654 L344.314,76.551 L88.619,76.551 L88.619,604.654 Z" id="Fill-6" fill="#DCEEFF"></path>
                    <polygon id="Fill-7" fill="#ECF6FF" points="51.74 604.704 381.193 604.704 381.193 591.461 51.74 591.461"></polygon>
                    <polygon id="Fill-8" fill="#B6D4FF" points="381.192 604.704 389.325 604.704 389.325 591.461 381.192 591.461"></polygon>
                    <path d="M275.7424,520.4314 C278.5004,544.3974 269.5304,564.8744 269.5304,564.8744 C269.5304,564.8744 256.0894,546.4964 253.3314,522.5304 C250.5724,498.5654 259.5424,478.0874 259.5424,478.0874 C259.5424,478.0874 272.9834,496.4664 275.7424,520.4314" id="Fill-9" fill="#D2E9FC"></path>
                    <path d="M200.2551,539.1716 C199.3941,563.2806 187.4591,582.1836 187.4591,582.1836 C187.4591,582.1836 176.9211,562.0006 177.7821,537.8916 C178.6431,513.7836 190.5771,494.8796 190.5771,494.8796 C190.5771,494.8796 201.1161,515.0636 200.2551,539.1716" id="Fill-11" fill="#D2E9FC"></path>
                    <path d="M269.923,539.6604 C281.916,561.1894 281.573,583.2054 281.573,583.2054 C281.573,583.2054 261.784,570.3164 249.79,548.7874 C237.797,527.2594 238.14,505.2434 238.14,505.2434 C238.14,505.2434 257.929,518.1314 269.923,539.6604" id="Fill-13" fill="#D2E9FC"></path>
                    <path d="M286.8068,523.0032 C283.7398,546.9382 270.0608,565.1742 270.0608,565.1742 C270.0608,565.1742 261.3558,544.6042 264.4228,520.6692 C267.4908,496.7332 281.1688,478.4982 281.1688,478.4982 C281.1688,478.4982 289.8738,499.0682 286.8068,523.0032" id="Fill-15" fill="#D2E9FC"></path>
                    <path d="M296.7922,540.3025 C286.9162,562.6895 268.4422,577.0795 268.4422,577.0795 C268.4422,577.0795 265.9802,555.1745 275.8562,532.7865 C285.7322,510.4005 304.2062,496.0095 304.2062,496.0095 C304.2062,496.0095 306.6672,517.9155 296.7922,540.3025" id="Fill-17" fill="#D2E9FC"></path>
                    <polygon id="Fill-19" fill="#DCEEFF" points="0 20.249 434.29 20.249 434.29 0 0 0"></polygon>
                    <polygon id="Fill-21" fill="#B6D4FF" points="430.658 20.249 440.933 20.249 440.933 0 430.658 0"></polygon>
                    <polygon id="Fill-22" fill="#B6D4FF" points="430.526 144.98 436.907 144.98 436.907 131.984 430.526 131.984"></polygon>
                    <polygon id="Fill-23" fill="#DCEEFF" points="11.143 131.984 425.836 131.984 425.836 20.25 11.143 20.25"></polygon>
                    <polygon id="Fill-24" fill="#CCE3FF" points="4.405 144.98 431.958 144.98 431.958 131.984 4.405 131.984"></polygon>
                    <polygon id="Fill-25" fill="#B6D4FF" points="11.143 37.24 425.836 37.24 425.836 20.249 11.143 20.249"></polygon>
                    <polygon id="Fill-26" fill="#B6D4FF" points="243.2863 546.7971 299.9743 546.7971 293.9893 591.4611 249.2703 591.4611"></polygon>
                    <path d="M192.5852,545.5066 C202.4912,566.6396 200.5672,588.1846 200.5672,588.1846 C200.5672,588.1846 182.5802,575.4646 172.6742,554.3306 C162.7672,533.1966 164.6902,511.6526 164.6902,511.6526 C164.6902,511.6526 182.6782,524.3726 192.5852,545.5066" id="Fill-27" fill="#D2E9FC"></path>
                    <path d="M207.5314,555.8337 C198.7804,577.4787 181.4994,591.1827 181.4994,591.1827 C181.4994,591.1827 178.4074,569.7937 187.1594,548.1487 C195.9114,526.5047 213.1914,512.7997 213.1914,512.7997 C213.1914,512.7997 216.2834,534.1887 207.5314,555.8337" id="Fill-28" fill="#D2E9FC"></path>
                    <polygon id="Fill-29" fill="#B6D4FF" points="168.674 556.9793 212.44 556.9793 207.819 591.4603 173.295 591.4603"></polygon>
                </g>
                <g id="Group-14" transform="translate(1091.000000, 21.000000)">
                    <path d="M155.4015,70.763 C155.4015,109.844 123.7195,141.526 84.6375,141.526 C45.5565,141.526 13.8755,109.844 13.8755,70.763 C13.8755,31.681 45.5565,0 84.6375,0 C123.7195,0 155.4015,31.681 155.4015,70.763" id="Fill-1" fill="#CCE3FF"></path>
                    <path d="M141.5265,70.763 C141.5265,109.844 109.8435,141.526 70.7625,141.526 C31.6815,141.526 0.0005,109.844 0.0005,70.763 C0.0005,31.681 31.6815,0 70.7625,0 C109.8435,0 141.5265,31.681 141.5265,70.763" id="Fill-4" fill="#DCEEFF"></path>
                    <path d="M124.3869,70.7577 C124.3869,98.3797 103.5099,121.1177 76.6849,124.0647 C74.7379,124.2797 72.7689,124.3867 70.7689,124.3867 C41.1469,124.3867 17.1389,100.3797 17.1389,70.7577 C17.1389,41.1467 41.1469,17.1387 70.7689,17.1387 C72.7689,17.1387 74.7379,17.2467 76.6849,17.4617 C103.5099,20.4087 124.3869,43.1467 124.3869,70.7577" id="Fill-6" fill="#CCE3FF"></path>
                    <path d="M124.3869,70.7577 C124.3869,98.3797 103.5099,121.1177 76.6849,124.0647 C49.8479,121.1177 28.9709,98.3797 28.9709,70.7577 C28.9709,43.1467 49.8479,20.4087 76.6849,17.4617 C103.5099,20.4087 124.3869,43.1467 124.3869,70.7577" id="Fill-8" fill="#ECF6FF"></path>
                    <path d="M73.089,40.9427 L90.464,78.8377" id="Stroke-10" stroke="#CCE3FF" stroke-width="8"></path>
                    <path d="M92.1193,62.951 L54.0593,104.321" id="Stroke-12" stroke="#CCE3FF" stroke-width="8"></path>
                </g>
                <g id="Group-34" transform="translate(916.400000, 738.600000)">
                    <path d="M294.45072,120.12312 L239.14752,120.12312 L239.14752,8.57752 C239.14752,3.83992 242.98832,0.00072 247.72592,0.00072 L285.87232,0.00072 C290.60992,0.00072 294.45072,3.83992 294.45072,8.57752 L294.45072,120.12312 Z" id="Fill-1" fill="#CCE3FF"></path>
                    <path d="M366.546,105.68952 C366.546,111.17752 364.586,116.20952 361.322,120.12152 L326.642,120.12152 C323.378,116.20952 321.418,111.17752 321.418,105.68952 C321.418,93.22552 331.522,83.12152 343.986,83.12152 C356.442,83.12152 366.546,93.22552 366.546,105.68952" id="Fill-3" fill="#DCEEFF"></path>
                    <polygon id="Fill-5" fill="#DCEEFF" points="336.188 89.6896 351.7768 89.6896 351.7768 76.3968 336.188 76.3968"></polygon>
                    <polygon id="Fill-7" fill="#DCEEFF" points="332.084 76.3968 355.8792 76.3968 355.8792 69.5048 332.084 69.5048"></polygon>
                    <polygon id="Fill-8" fill="#B6D4FF" points="334.78744 120.12312 301.48424 120.12312 318.13624 94.08392"></polygon>
                    <polygon id="Fill-9" fill="#B6D4FF" points="239.1472 105.5032 294.4504 105.5032 294.4504 40.1712 239.1472 40.1712"></polygon>
                    <polygon id="Fill-10" fill="#B6D4FF" points="247.1888 115.7 266.1632 115.7 266.1632 111.2688 247.1888 111.2688"></polygon>
                    <polygon id="Fill-11" fill="#B6D4FF" points="239.1472 13.3608 294.4504 13.3608 294.4504 11.8648 239.1472 11.8648"></polygon>
                    <path d="M412.14368,242.95432 L412.14368,281.15352" id="Fill-12" fill="#CCE3FF"></path>
                    <path d="M412.14368,242.95432 L412.14368,281.15352" id="Stroke-13" stroke="#CCE3FF" stroke-width="8.8"></path>
                    <path d="M351.58976,242.95432 L351.58976,281.15352" id="Fill-15" fill="#CCE3FF"></path>
                    <path d="M351.58976,242.95432 L351.58976,281.15352" id="Stroke-16" stroke="#CCE3FF" stroke-width="8.8"></path>
                    <path d="M87.7132,242.95432 L87.7132,281.15352" id="Fill-18" fill="#CCE3FF"></path>
                    <path d="M87.7132,242.95432 L87.7132,281.15352" id="Stroke-19" stroke="#CCE3FF" stroke-width="8.8"></path>
                    <path d="M27.15928,242.95432 L27.15928,281.15352" id="Fill-21" fill="#CCE3FF"></path>
                    <path d="M27.15928,242.95432 L27.15928,281.15352" id="Stroke-22" stroke="#CCE3FF" stroke-width="8.8"></path>
                    <polygon id="Fill-24" fill="#DCEEFF" points="0 242.9544 324.9232 242.9544 324.9232 120.1232 0 120.1232"></polygon>
                    <polygon id="Fill-25" fill="#CCE3FF" points="18.7072 229.2624 154.256 229.2624 154.256 133.7544 18.7072 133.7544"></polygon>
                    <polygon id="Fill-26" fill="#CCE3FF" points="170.6656 229.2624 306.2152 229.2624 306.2152 133.7544 170.6656 133.7544"></polygon>
                    <polygon id="Fill-27" fill="#B6D4FF" points="324.924 242.9544 438.8104 242.9544 438.8104 120.1232 324.924 120.1232"></polygon>
                    <path d="M80.24992,90.12152 L80.24992,90.12232 C80.24992,95.64472 84.72752,100.12232 90.25072,100.12232 L180.22592,100.12232 L180.22592,80.12152 L90.25072,80.12152 C84.72752,80.12152 80.24992,84.59912 80.24992,90.12152" id="Fill-28" fill="#CCE3FF"></path>
                    <path d="M140.76632,90.12152 L140.76632,90.12232 C140.76632,93.31912 143.35832,95.91112 146.55512,95.91112 L179.98472,95.91112 C180.11752,95.91112 180.22552,95.80392 180.22552,95.67112 L180.22552,84.57272 C180.22552,84.43992 180.11752,84.33272 179.98472,84.33272 L146.55512,84.33272 C143.35832,84.33272 140.76632,86.92472 140.76632,90.12152" id="Fill-29" fill="#DCEEFF"></path>
                    <path d="M67.69208,100.12232 L67.69208,120.12312 L165.89928,120.12312 C171.42248,120.12312 175.90008,115.64552 175.90008,110.12312 C175.90008,104.59992 171.42248,100.12232 165.89928,100.12232 L67.69208,100.12232 Z" id="Fill-30" fill="#CCE3FF"></path>
                    <path d="M67.69208,104.38872 L67.69208,115.85672 L108.07128,115.85672 C111.23848,115.85672 113.80568,113.28952 113.80568,110.12312 C113.80568,106.95592 111.23848,104.38872 108.07128,104.38872 L67.69208,104.38872 Z" id="Fill-31" fill="#DCEEFF"></path>
                    <path d="M114.2772,133.75432 L114.2772,133.75432 C114.2772,141.05032 108.3628,146.96472 101.0668,146.96472 L71.8964,146.96472 C64.6012,146.96472 58.6868,141.05032 58.6868,133.75432 L114.2772,133.75432 Z" id="Fill-32" fill="#B6D4FF"></path>
                    <path d="M266.23664,133.75432 L266.23664,133.75432 C266.23664,141.05032 260.32144,146.96472 253.02544,146.96472 L223.85584,146.96472 C216.55984,146.96472 210.64544,141.05032 210.64544,133.75432 L266.23664,133.75432 Z" id="Fill-33" fill="#B6D4FF"></path>
                </g>
                <g id="Background-Object-/-Sofa-/-3" transform="translate(388.500000, 838.000000) scale(-1, 1) translate(-388.500000, -838.000000) translate(0.000000, 656.000000)">
                    <g id="Group-20" transform="translate(0.600000, 0.400000)">
                        <polygon id="Fill-1" fill="#B6D4FF" points="184.5128 264.9432 636.0128 264.9432 636.0128 158.0056 184.5128 158.0056"></polygon>
                        <path d="M311.1796,180.63536 L636.69,180.63536 C653.6324,180.63536 667.7716,167.69856 669.2732,150.82176 L679.4532,36.41136 C681.1556,17.27616 666.0796,0.80016 646.8692,0.80016 L321.3588,0.80016 C304.4156,0.80016 290.2764,13.73696 288.7748,30.61376 L278.5964,145.02416 C276.894,164.15936 291.9684,180.63536 311.1796,180.63536" id="Fill-2" fill="#B6D4FF"></path>
                        <path d="M43.25928,316.89944 L169.94808,316.89944 C188.68728,316.89944 203.40888,300.85464 201.79928,282.18344 L191.31128,160.54264 C189.88648,144.01224 176.05208,131.31944 159.46088,131.31944 L32.77208,131.31944 C14.03208,131.31944 -0.68952,147.36424 0.92008,166.03464 L11.40808,287.67624 C12.83368,304.20664 26.66728,316.89944 43.25928,316.89944" id="Fill-4" fill="#B6D4FF"></path>
                        <path d="M213.24368,180.63536 L574.86688,180.63536 C591.81008,180.63536 605.94928,167.69856 607.45088,150.82176 L617.62928,36.41136 C619.33168,17.27616 604.25728,0.80016 585.04608,0.80016 L223.42288,0.80016 C206.47968,0.80016 192.34048,13.73696 190.83888,30.61376 L180.65968,145.02416 C178.95808,164.15936 194.03248,180.63536 213.24368,180.63536" id="Fill-7" fill="#DCEEFF"></path>
                        <polygon id="Fill-9" fill="#CCE3FF" points="56.6352 316.8992 608.8264 316.8992 608.8264 260.8976 56.6352 260.8976"></polygon>
                        <path d="M132.02336,260.89752 L520.52976,260.89752 C539.82496,260.89752 555.46656,245.25592 555.46656,225.96152 C555.46656,206.66712 539.82496,191.02552 520.52976,191.02552 L132.02336,191.02552 C112.72896,191.02552 97.08736,206.66712 97.08736,225.96152 C97.08736,245.25592 112.72896,260.89752 132.02336,260.89752" id="Fill-11" fill="#DCEEFF"></path>
                        <polygon id="Fill-12" fill="#B6D4FF" points="713.7632 362.27208 727.0144 362.27208 721.4144 316.89928 696.9632 316.89928"></polygon>
                        <polygon id="Fill-13" fill="#B6D4FF" points="599.87648 362.27208 613.12688 362.27208 607.52688 316.89928 583.07648 316.89928"></polygon>
                        <polygon id="Fill-14" fill="#B6D4FF" points="58.72728 362.27208 45.47688 362.27208 51.07688 316.89928 75.52728 316.89928"></polygon>
                        <polygon id="Fill-15" fill="#B6D4FF" points="172.61472 362.27208 159.36352 362.27208 164.96352 316.89928 189.41472 316.89928"></polygon>
                        <path d="M43.25928,316.89944 L62.24248,316.89944 C80.98248,316.89944 95.70408,300.85464 94.09448,282.18344 L83.60728,160.54264 C82.18168,144.01224 68.34728,131.31944 51.75528,131.31944 L32.77208,131.31944 C14.03208,131.31944 -0.68952,147.36424 0.92008,166.03464 L11.40808,287.67624 C12.83368,304.20664 26.66728,316.89944 43.25928,316.89944" id="Fill-16" fill="#CCE3FF"></path>
                        <path d="M590.31008,316.89944 L732.99888,316.89944 C749.59088,316.89944 763.42528,304.20664 764.85008,287.67624 L775.33728,166.03464 C776.94768,147.36424 762.22688,131.31944 743.48688,131.31944 L600.79728,131.31944 C584.20608,131.31944 570.37168,144.01224 568.94688,160.54264 L558.45968,282.18344 C556.84928,300.85464 571.57008,316.89944 590.31008,316.89944" id="Fill-17" fill="#B6D4FF"></path>
                        <path d="M590.31008,316.89944 L609.29328,316.89944 C625.88608,316.89944 639.72048,304.20664 641.14528,287.67624 L651.63248,166.03464 C653.24208,147.36424 638.52128,131.31944 619.78128,131.31944 L600.79728,131.31944 C584.20608,131.31944 570.37168,144.01224 568.94688,160.54264 L558.45968,282.18344 C556.84928,300.85464 571.57008,316.89944 590.31008,316.89944" id="Fill-18" fill="#CCE3FF"></path>
                    </g>
                </g>
                <g id="Group-14" transform="translate(1560.000000, 676.400000)">
                    <polygon id="Fill-1" fill="#B6D4FF" points="384.65064 272.48792 414.84584 343.45032 428.53864 343.45032 410.37304 269.00952"></polygon>
                    <polygon id="Fill-2" fill="#B6D4FF" points="230.4 272.48792 260.5944 343.45032 274.2872 343.45032 256.1216 269.00952"></polygon>
                    <polygon id="Fill-3" fill="#B6D4FF" points="0 343.4504 13.6928 343.4504 43.8872 272.488 18.1656 269.0096"></polygon>
                    <polygon id="Fill-4" fill="#B6D4FF" points="154.25064 343.4504 167.94344 343.4504 198.13864 272.488 172.41624 269.0096"></polygon>
                    <path d="M16.83768,106.41608 L16.83768,278.24008 L195.40808,278.62168 L224.77368,108.65288 L16.83768,106.41608 Z M30.43768,120.16328 L208.65288,122.08008 L183.96008,264.99768 L30.43768,264.66968 L30.43768,120.16328 Z" id="Fill-5" fill="#B6D4FF"></path>
                    <polygon id="Fill-6" fill="#CCE3FF" points="251.16624 0.79952 203.16704 278.62192 412.56624 278.62192 460.56704 0.79952"></polygon>
                    <polygon id="Fill-7" fill="#DCEEFF" points="194.85792 0.79952 146.85792 278.62192 353.71792 278.62192 401.71792 0.79952"></polygon>
                    <path d="M143.56888,278.62192 L389.80408,278.62192 C402.37528,278.62192 412.56648,268.43072 412.56648,255.85872 L412.56648,203.39792 C412.56648,190.82592 402.37528,180.63472 389.80408,180.63472 L143.56888,180.63472 C130.99688,180.63472 120.80568,190.82592 120.80568,203.39792 L120.80568,255.85872 C120.80568,268.43072 130.99688,278.62192 143.56888,278.62192" id="Fill-8" fill="#CCE3FF"></path>
                    <polygon id="Fill-10" fill="#DCEEFF" points="15.9128 278.6216 233.996 278.6216 233.996 180.6344 15.9128 180.6344"></polygon>
                    <path d="M233.99624,106.41608 L233.99624,278.24008 L412.56664,278.62168 L441.93304,108.65288 L233.99624,106.41608 Z M247.59624,120.16328 L425.81144,122.08008 L401.11864,264.99768 L247.59624,264.66968 L247.59624,120.16328 Z" id="Fill-12" fill="#B6D4FF"></path>
                </g>
            </g>
            <g id="Person-/-Man-/-4" transform="translate(464.000000, 315.000000)">
                <g id="Group-29" transform="translate(43.000000, 0.000000)">
                    <path d="M153.229564,54.3756444 L50.0468009,56.9889778 L49.9675596,55.3356444 L48.7388754,30.0378667 L47.8031167,10.7845333 C47.5003974,4.61564444 52.6742263,-0.424355556 58.8434675,0.0289777778 L141.815266,6.10897778 C147.015805,6.48231111 151.101625,10.6778667 151.359827,15.8689778 L151.805003,24.9623111 L153.033687,50.4289778 L153.229564,54.3756444 Z" id="Fill-1" fill="#2F2F3D" fill-rule="nonzero"></path>
                    <path d="M153.033954,50.4285333 C138.111673,52.4285333 120.704423,54.0018667 102.09698,54.8996444 C83.0790855,55.8240889 65.2453575,55.9218667 49.9669364,55.3352 L48.7382522,30.0374222 C63.8831206,27.9752 81.6456206,26.3485333 100.671529,25.4329778 C119.280752,24.5352 136.749436,24.4196444 151.80527,24.9618667 L153.033954,50.4285333 Z" id="Fill-3" fill="#5E93D1"></path>
                    <g id="Face-color" transform="translate(38.285088, 37.908889)" fill="#FCBDA4" fill-rule="nonzero">
                        <path d="M70.1608956,112.544 L69.3141719,83.3573333 C69.3141719,83.3573333 104.835611,86.1813333 112.434755,82.24 C112.434755,82.24 121.721115,34.4648889 110.64515,8.008 L110.420782,6.97688889 L35.4603605,0 L30.445259,40.0920877 C27.9202239,32.6556432 7.89331667,25.3022222 2.44525965,35.9511111 C-9.35901228,59.0257778 32.8507421,74.5626667 32.8507421,74.5626667 L28.564593,112.895111" id="Face"></path>
                    </g>
                    <polygon id="Fill-8" fill="#000000" opacity="0.398111979" points="107.599082 121.265778 83.6468623 116.137778 107.484226 132.216"></polygon>
                    <polygon id="Fill-10" fill="#EA847A" fill-rule="nonzero" points="127.358104 73.5704889 135.634806 93.7749333 125.714517 93.9011556"></polygon>
                    <path d="M117.920741,79.3118222 C118.413105,82.0327111 116.603912,84.6371556 113.878548,85.1287111 C111.153184,85.6211556 108.545346,83.8149333 108.052092,81.0940444 C107.558838,78.3731556 109.368921,75.7696 112.093395,75.2771556 C114.818759,74.7847111 117.427487,76.5909333 117.920741,79.3118222" id="Fill-12" fill="#662A00"></path>
                    <path d="M143.953889,79.3118222 C144.446253,82.0327111 142.63706,84.6371556 139.911696,85.1287111 C137.186332,85.6211556 134.578494,83.8149333 134.085239,81.0940444 C133.591985,78.3731556 135.402068,75.7696 138.126542,75.2771556 C140.851906,74.7847111 143.460634,76.5909333 143.953889,79.3118222" id="Fill-14" fill="#662A00"></path>
                    <g id="Group-19" transform="translate(116.635965, 99.248000)">
                        <path d="M0.430039474,0.374133333 C0.430039474,0.374133333 3.89617544,5.98746667 10.7634518,5.51191111" id="Fill-16" fill="#FFFFFF"></path>
                        <path d="M0.430039474,0.374133333 C0.430039474,0.374133333 3.89617544,5.98746667 10.7634518,5.51191111" id="Stroke-18" stroke="#A94747" stroke-width="4"></path>
                    </g>
                    <path d="M152.919258,60.7742547 L151.739295,54.7077333 C149.703062,46.6375111 88.5047947,49.7184 88.5047947,49.7184 L89.3390535,60.5726222 L88.30967,65.760701 C38.7905407,67.1771803 0.364891294,62.8577143 0.00258201754,55.3985778 C-0.392733772,47.2599111 44.6768276,38.4661333 100.668323,35.7559111 C156.658929,33.0465778 202.369543,37.4474667 202.764858,45.5861333 C203.028543,51.0270557 182.973053,56.7611635 152.919278,60.774252 L152.919258,60.7742547 Z" id="Path" fill="#2F2F3D" fill-rule="nonzero"></path>
                </g>
                <g id="Group-17" transform="translate(0.000000, 325.216480)">
                    <g id="Shoes" transform="translate(0.662996, 445.047100)" fill="#5E93D1" fill-rule="nonzero">
                        <path d="M176.494742,15.5938155 L176.21498,39.6052348 C176.21498,39.6052348 230.139583,48.0839714 248.419345,68.6403967 L140.985813,68.6403967 L145.485813,7.10542736e-14 L176.494742,15.5938155 Z M41.8541667,13.5717961 L41.5744048,40.5402721 C41.5744048,40.5402721 64.2867063,43.5022589 73.531746,68.6406925 L0,68.6406925 L7.35416667,39.0494185 L10.2321429,12.0730544 L41.8541667,13.5717961 Z"></path>
                    </g>
                    <g id="Legs-skin" transform="translate(7.936508, 449.315260)" fill="#FCBDA4" fill-rule="nonzero">
                        <path d="M138.212004,2.02310406 L169.220933,11.3261486 L168.942163,35.3365818 L135.712996,33.8457283 L138.212004,2.02310406 Z M3.57132937,5.68434189e-14 L34.5802579,9.30403055 L34.3014881,36.2715206 L0.0802579365,34.780667 L3.57132937,5.68434189e-14 Z" id="Skin"></path>
                    </g>
                    <g id="Pants" transform="translate(0.000000, -0.000099)" fill="#2F2F3D" fill-rule="nonzero">
                        <polygon points="128.561716 115.403553 55.7939484 474.499642 0.000297619048 474.499642 66.7364087 0 198.730357 0 194.137103 472.665656 177.014087 472.912159 144.414881 473.395306 144.295833 473.395306 135.982341 473.513628"></polygon>
                    </g>
                    <polygon id="Fill-15" fill="#000000" opacity="0.200892857" points="128.761706 112.742547 141.313294 57.1885313 131.868849 225.612585"></polygon>
                </g>
                <g id="Group-17" transform="translate(4.000000, 132.818182)">
                    <g id="Hands" transform="translate(-0.000037, 208.596940)" fill="#FCBDA4" fill-rule="nonzero">
                        <path d="M211.130837,7.46495894 C213.693837,1.63634604 227.163837,7.10542736e-15 227.163837,7.10542736e-15 C227.163837,7.10542736e-15 248.658837,23.9208739 250.581837,27.5733255 C252.505837,31.2257771 256.063837,49.3110792 255.894837,52.884 C255.724837,56.4569208 244.639837,72.5121994 244.639837,72.5121994 C237.761837,70.8828123 242.253837,62.5917273 242.253837,62.5917273 C242.253837,62.5917273 236.092837,67.6280147 233.530837,67.5435132 C209.409837,66.7482053 210.701837,54.9408651 211.273837,53.4635806 C212.554837,50.142176 218.992837,53.9397713 218.992837,53.9397713 C218.992837,53.9397713 203.796837,24.135607 211.130837,7.46495894 Z M36.0674367,12.272993 L40.4404367,20.5740194 C40.4404367,20.5740194 42.6714367,24.3974622 45.0074367,31.0700956 C47.3424367,37.7437232 46.3724367,41.8256411 51.4244367,52.3077994 C57.1594367,64.2056059 46.9014367,59.2995501 43.2224367,54.1061894 C40.3524367,50.0521073 40.6774367,44.5734299 36.9564367,42.1179167 C35.7094367,44.1071806 32.8594367,46.9533889 31.2694367,64.1201103 C30.9844367,67.1979519 32.3794367,77.1850311 32.3794367,77.1850311 C32.4104367,80.1783713 32.7944367,86.4175619 29.3874367,87.3709372 C28.5434367,87.6065472 27.4444367,86.6740487 27.4444367,86.6740487 C27.4444367,86.6740487 27.7744367,90.5790106 24.2934367,91.356424 C22.9234367,91.6616235 20.2064367,83.2303654 20.2064367,83.2303654 C20.2064367,83.2303654 19.7914367,87.5121044 17.1914367,87.988295 C16.4564367,88.1225032 7.77843666,63.6946205 7.77843666,63.6946205 L8.30043666,69.2120692 L9.45243666,74.862732 C9.45243666,74.862732 9.35943666,77.9047848 6.91643666,78.4426117 C5.94643666,78.6563507 4.08443666,73.5822862 2.33943666,67.6144944 C-0.374563343,58.3272862 -0.319563343,51.3484592 0.478436657,44.4084035 C1.44343666,36.0208874 1.01343666,33.2045032 4.74743666,22.9191836 C6.28843666,18.6762158 9.64443666,12.2640457 11.4234367,9.53017478 L36.0674367,12.272993 Z"></path>
                    </g>
                    <path d="M223.9179,230.134176 C223.9179,230.134176 227.3029,242.494255 238.9199,246.346528 C242.9809,247.693581 241.9669,263.591786 251.9229,261.690006" id="Stroke-4" stroke="#000000" stroke-width="3" opacity="0.145089286"></path>
                    <g id="Sweater" fill="#5E93D1" fill-rule="nonzero">
                        <path d="M99.8287643,19.1332139 L101.0246,0.000497067449 L156.5736,3.42926833 L155.489458,20.7861793 C186.662701,32.7214633 189.355509,44.3784548 196.8197,59.7025724 C204.9937,76.4865519 213.4687,128.030458 213.4687,128.030458 L248.9687,217.005531 L205.4487,241.083479 L194.7467,220.478045 L195.0147,192.981267 L62.0297,192.977291 L61.0997,159.117056 L49.7697,227.036352 L0.0297,229.37257 C0.0297,229.37257 -0.9553,158.637883 8.5157,117.718297 C14.5447,91.6530739 44.0047,43.2198158 71.9007,26.5650739 C78.7125057,22.4975534 88.9379497,20.269279 99.8287643,19.1332139 L99.8287643,19.1332139 Z"></path>
                    </g>
                    <polyline id="Stroke-11" stroke="#000000" stroke-width="5" opacity="0.203543527" points="61.3095 166.766328 70.4635 119.248668 93.1055 81.1146475"></polyline>
                    <path d="M193.0146,193.180293 L197.3396,123.940786" id="Stroke-13" stroke="#000000" stroke-width="5" opacity="0.198800223"></path>
                </g>
            </g>
            <g id="Person-/-Robot-/-2" transform="translate(1619.500000, 744.000000) scale(-1, 1) translate(-1619.500000, -744.000000) translate(1413.000000, 332.000000)">
                <g id="Group-27" transform="translate(123.207792, 329.914179)">
                    <path d="M119.679183,22.4224209 L137.689469,221.529701" id="Stroke-1" stroke="#19141E" stroke-width="16" stroke-linecap="round"></path>
                    <path d="M137.689866,239.513645 L130.200814,468.400391" id="Stroke-6" stroke="#19141E" stroke-width="16" stroke-linecap="round"></path>
                    <path d="M48.0957487,20.9722522 L47.1022422,219.573428" id="Stroke-8" stroke="#19141E" stroke-width="16" stroke-linecap="round"></path>
                    <path d="M47.1022422,228.069208 L20.3798981,474.836984" id="Stroke-10" stroke="#19141E" stroke-width="16" stroke-linecap="round"></path>
                    <g id="Legs-color" fill="#6CA1FF" fill-rule="nonzero">
                        <path d="M51.9466148,198.998687 C51.9915724,198.998089 52.0365667,198.998089 52.0815974,198.998089 C62.6485325,198.998089 71.2135519,209.977966 71.2135519,223.522238 C71.2135519,237.066086 62.6490693,248.044703 52.0825909,248.045391 L41.5613571,248.045989 L41.5613571,248.036454 C31.236564,247.682221 22.951987,236.842927 22.951987,223.522238 C22.951987,210.20155 31.236564,199.361291 41.5613571,199.007027 L41.5613571,198.998687 L41.9479529,198.998687 C41.9929146,198.998089 42.0379131,198.998089 42.0829481,198.998089 C42.127983,198.998089 42.1729815,198.998089 42.2179433,198.998687 L51.9466148,198.998687 L51.9466148,198.998687 Z M141.528599,198.998687 C141.573561,198.998089 141.618559,198.998089 141.663594,198.998089 C152.229536,198.998089 160.795549,209.977966 160.795549,223.522238 C160.795549,237.066298 152.229804,248.045047 141.664091,248.045391 L131.142857,248.045989 L131.142857,248.036419 C120.818494,247.681526 112.533487,236.8425 112.533487,223.522238 C112.533487,210.201977 120.818494,199.361986 131.142857,199.007061 L131.142857,198.998687 L131.530446,198.998687 C131.575408,198.998089 131.620407,198.998089 131.665442,198.998089 C131.710476,198.998089 131.755475,198.998089 131.800437,198.998687 L141.528599,198.998687 L141.528599,198.998687 Z M53.020163,28.1145022 C45.3095591,28.1145022 39.0017864,21.7891925 39.0017864,14.0571515 C39.0017864,6.32610672 45.3095591,-0.000199253731 53.020163,-0.000199253731 L116.182338,-0.000199253731 C123.891949,-0.000199253731 130.200715,6.32610672 130.200715,14.0571515 C130.200715,21.7891925 123.891949,28.1145022 116.182338,28.1145022 L53.020163,28.1145022 Z M79.3277182,492.744415 L0.0001987013,492.744415 L12.5332831,460.556968 L79.3277182,492.744415 Z M194.060729,492.744415 L114.73321,492.744415 L127.266294,460.556968 L194.060729,492.744415 Z" id="Legs"></path>
                    </g>
                    <path d="M130.875604,247.893555 C120.551241,247.538661 112.266234,236.699635 112.266234,223.379373 C112.266234,210.059112 120.551241,199.219121 130.875604,198.864196 L130.875604,198.855822 L131.263193,198.855822 C131.308155,198.855224 131.353153,198.855224 131.398188,198.855224 C131.443223,198.855224 131.488222,198.855224 131.533183,198.855822 L141.261346,198.855822 C141.306307,198.855224 141.351306,198.855224 141.396341,198.855224 C151.962282,198.855224 160.528295,209.835101 160.528295,223.379373 C160.528295,236.923433 151.962551,247.902182 141.396838,247.902526 L130.875604,247.903124 L130.875604,247.893555 Z M118.851692,223.379373 C118.851692,231.307679 123.134698,237.735604 128.417172,237.735604 C133.70064,237.735604 137.982653,231.307679 137.982653,223.379373 C137.982653,215.450071 133.70064,209.022146 128.417172,209.022146 C123.134698,209.022146 118.851692,215.450071 118.851692,223.379373 Z M41.4600195,247.993216 C31.1352263,247.638983 22.8506494,236.799688 22.8506494,223.479 C22.8506494,210.158312 31.1352263,199.318053 41.4600195,198.963789 L41.4600195,198.955449 L41.8466152,198.955449 C41.8915769,198.954851 41.9365755,198.954851 41.9816104,198.954851 C42.0266453,198.954851 42.0716439,198.954851 42.1166056,198.955449 L51.8452772,198.955449 C51.8902347,198.954851 51.9352291,198.954851 51.9802597,198.954851 C62.5471948,198.954851 71.1122143,209.934728 71.1122143,223.479 C71.1122143,237.022848 62.5477317,248.001465 51.9812532,248.002153 L41.4600195,248.002751 L41.4600195,247.993216 L41.4600195,247.993216 Z M29.4356104,223.479 C29.4356104,231.407306 33.7186169,237.835231 39.0010909,237.835231 C44.2845584,237.835231 48.5665714,231.407306 48.5665714,223.479 C48.5665714,215.549698 44.2845584,209.121772 39.0010909,209.121772 C33.7186169,209.121772 29.4356104,215.549698 29.4356104,223.479 Z" id="Shape" fill="#000000" opacity="0.403041295"></path>
                    <path d="M29.4574675,223.573646 C29.4574675,231.501951 33.740474,237.929877 39.0229481,237.929877 C44.3064156,237.929877 48.5884286,231.501951 48.5884286,223.573646 C48.5884286,215.644343 44.3064156,209.216418 39.0229481,209.216418 C33.740474,209.216418 29.4574675,215.644343 29.4574675,223.573646" id="Fill-26" fill="#000000" opacity="0.602887835"></path>
                    <path d="M118.922727,223.374392 C118.922727,231.302698 123.205734,237.730623 128.488208,237.730623 C133.771675,237.730623 138.053688,231.302698 138.053688,223.374392 C138.053688,215.44509 133.771675,209.017164 128.488208,209.017164 C123.205734,209.017164 118.922727,215.44509 118.922727,223.374392" id="Fill-22" fill="#000000" opacity="0.603864397"></path>
                    <polygon id="Fill-14" fill="#000000" opacity="0.395879836" points="79.3275195 492.961701 6.82121026e-13 492.961701 12.5330844 460.774254"></polygon>
                    <polygon id="Fill-16" fill="#000000" opacity="0.395879836" points="194.060531 492.961701 114.733011 492.961701 127.266095 460.774254"></polygon>
                </g>
                <g id="Group-25" transform="translate(0.000000, 120.000000)">
                    <path d="M354.8008,211.4785 L331.5308,40.8695" id="Stroke-1" stroke="#19141E" stroke-width="27" stroke-linecap="round"></path>
                    <polygon id="Fill-9" fill="#19141E" points="138.122 190.4228 283.232 190.4228 305.36 166.6018 115.994 166.6018"></polygon>
                    <path d="M51.8213,205.8071 L76.3523,35.3741" id="Stroke-11" stroke="#19141E" stroke-width="27" stroke-linecap="round"></path>
                    <g id="Body-color" transform="translate(0.000000, 0.999300)" fill="#6CA1FF" fill-rule="nonzero">
                        <path d="M343.6259,83.3717522 L343.6259,131.4752 C343.6259,153.3052 325.7649,171.1672 303.9339,171.1672 L117.4209,171.1672 C95.5899,171.1672 77.7289,153.3052 77.7289,131.4752 L77.7289,79.6391228 C56.571115,78.6872865 39.7099,61.2326913 39.7099,39.84 C39.7099,17.837 57.5469,0 79.5499,0 C87.2205082,0 94.3848081,2.16779203 100.463579,5.92415549 C105.612645,3.47107418 111.363975,2.0962 117.4209,2.0962 L303.9339,2.0962 C310.658375,2.0962 317.006181,3.7908316 322.571354,6.77413054 C323.416726,6.46970727 324.278064,6.19156286 325.1547,5.9409 C346.3097,-0.1091 368.3637,12.1369 374.4117,33.2919 C380.4607,54.4479 368.2157,76.5009 347.0607,82.5499 C345.917503,82.8767825 344.77168,83.1502396 343.6259,83.3717522 L343.6259,83.3717522 Z M385.042234,403.963592 C390.464181,410.716065 393.565959,419.380517 393.1983,428.7121 C392.6683,442.1691 385.0613,453.6721 374.1043,459.7801 C369.7783,462.1921 364.5763,458.8771 364.7823,453.9281 C364.7843,453.8931 364.7853,453.8581 364.7873,453.8221 C365.4413,437.2161 356.8293,423.3961 345.5483,422.9511 C339.6693,422.7191 334.2243,426.1631 330.2683,431.8621 C326.7993,436.8611 319.0113,434.5741 318.8153,428.4931 C318.7723,427.1511 318.8003,425.7921 318.9033,424.4211 C319.585275,415.338415 323.580617,407.176232 329.634415,401.085768 C316.238137,391.641254 307.423113,376.073706 307.3639,358.5297 L307.001606,250.6257 C306.9059,221.8857 330.3419,198.2927 359.0809,198.195406 C387.8209,198.0997 411.4149,221.5347 411.5109,250.2747 L411.8732,358.1787 C411.939019,377.768253 401.071038,394.967293 385.042221,403.9636 L385.042234,403.963592 Z M41.5392234,405.099337 C23.306258,398.026419 9.71945301,380.950575 8.1745,360.2404 L0.1455,252.6354 C-1.9935,223.9744 19.7075,198.7754 48.3675,196.6374 C77.0275,194.4984 102.2265,216.1984 104.3655,244.8594 L112.3935,352.4644 C113.736447,370.458885 105.682897,387.088319 92.4091153,397.503039 C101.591392,404.022451 107.749478,414.584819 108.1728,426.4992 C108.2218,427.8732 108.1958,429.2322 108.0998,430.5712 C107.6638,436.6402 99.7938,438.6182 96.5238,433.4872 C92.7948,427.6362 87.4898,423.9802 81.6068,423.9802 C70.3178,423.9802 61.1668,437.4502 61.1668,454.0702 L61.1668,454.1762 C61.1788,459.1292 55.8498,462.2372 51.6208,459.6562 C40.9138,453.1212 33.7668,441.3272 33.7668,427.8602 C33.7668,419.287184 36.6664655,411.391143 41.5392234,405.099337 L41.5392234,405.099337 Z M176.508,212.3007 L176.508,189.3007 L244.847,189.3007 L244.847,212.3007 L176.508,212.3007 Z" id="Body"></path>
                    </g>
                    <g id="Overlay" transform="translate(13.303755, 1.000000)" fill="#000000" opacity="0.394763765">
                        <path d="M94.8690449,426.4985 C94.9180449,427.8725 94.8920449,429.2315 94.7960449,430.5705 C94.3600449,436.6395 86.4900449,438.6175 83.2200449,433.4865 C79.4910449,427.6355 74.1860449,423.9795 68.3030449,423.9795 C57.0140449,423.9795 47.8630449,437.4495 47.8630449,454.0695 L47.8630449,454.1755 C47.8750449,459.1285 42.5460449,462.2365 38.3170449,459.6555 C27.6100449,453.1205 20.4630449,441.3265 20.4630449,427.8595 C20.4630449,406.9295 37.7460449,390.0345 58.8290449,390.6675 C78.2530449,391.2505 94.1790449,407.0785 94.8690449,426.4985 Z M277.526245,83.72 C277.526245,109.22 258.965245,130.38 234.616245,134.44 C234.265245,134.38 233.925245,134.32 233.576245,134.25 C209.736245,129.79 191.696245,108.86 191.696245,83.72 C191.696245,58.58 209.736245,37.65 233.576245,33.19 C233.925245,33.12 234.265245,33.06 234.616245,33 C258.965245,37.06 277.526245,58.22 277.526245,83.72 Z M196.084845,83.7886 C196.084845,100.2406 209.420845,113.5766 225.872845,113.5766 C242.324845,113.5766 255.660845,100.2406 255.660845,83.7886 C255.660845,67.3366 242.324845,53.9996 225.872845,53.9996 C209.420845,53.9996 196.084845,67.3366 196.084845,83.7886 Z M26.1962449,39.84 C26.1962449,17.837 44.0332449,-4.54747351e-13 66.0362449,-4.54747351e-13 C88.0392449,-4.54747351e-13 105.876245,17.837 105.876245,39.84 C105.876245,61.843 88.0392449,79.68 66.0362449,79.68 C44.0332449,79.68 26.1962449,61.843 26.1962449,39.84 Z M35.8085449,32.4553 C35.8085449,43.1293 44.4615449,51.7823 55.1355449,51.7823 C65.8095449,51.7823 74.4625449,43.1293 74.4625449,32.4553 C74.4625449,21.7813 65.8095449,13.1283 55.1355449,13.1283 C44.4615449,13.1283 35.8085449,21.7813 35.8085449,32.4553 Z M309.196245,6.87904083 C310.041617,6.57461756 310.902955,6.29647315 311.779591,6.04581029 C332.934591,-0.00418971 354.988591,12.2418103 361.036591,33.3968103 C367.085591,54.5528103 354.840591,76.6058103 333.685591,82.6548103 C332.542394,82.9816928 331.396571,83.2551499 330.250791,83.4766625 L330.250791,41.8931103 C330.250791,26.7865855 321.698398,13.581018 309.196245,6.87904083 Z M371.736873,403.768186 C377.15882,410.520659 380.260598,419.185111 379.892939,428.516694 C379.362939,441.973694 371.755939,453.476694 360.798939,459.584694 C356.472939,461.996694 351.270939,458.681694 351.476939,453.732694 C351.478939,453.697694 351.479939,453.662694 351.481939,453.626694 C352.135939,437.020694 343.523939,423.200694 332.242939,422.755694 C326.363939,422.523694 320.918939,425.967694 316.962939,431.666694 C313.493939,436.665694 305.705939,434.378694 305.509939,428.297694 C305.466939,426.955694 305.494939,425.596694 305.597939,424.225694 C306.279914,415.143009 310.275255,406.980826 316.329054,400.890362 C302.932776,391.445848 294.117751,375.8783 294.058539,358.334294 L293.696245,250.430294 C293.600539,221.690294 317.036539,198.097294 345.775539,198 C374.515539,197.904294 398.109539,221.339294 398.205539,250.079294 L398.567839,357.983294 C398.633658,377.572847 387.765676,394.771886 371.73686,403.768194 L371.736873,403.768186 Z M164.405245,124.9751 C164.405245,119.3251 168.986245,114.7441 174.636245,114.7441 C180.287245,114.7441 184.867245,119.3251 184.867245,124.9751 C184.867245,130.6251 180.287245,135.2061 174.636245,135.2061 C168.986245,135.2061 164.405245,130.6251 164.405245,124.9751 Z M134.834845,124.9751 C134.834845,119.3251 139.415845,114.7441 145.064845,114.7441 C150.715845,114.7441 155.296845,119.3251 155.296845,124.9751 C155.296845,130.6251 150.715845,135.2061 145.064845,135.2061 C139.415845,135.2061 134.834845,130.6251 134.834845,124.9751 Z M0.0311449428,260.6279 C-0.405855057,254.9939 3.80714494,250.0739 9.44114494,249.6369 C15.0751449,249.2009 19.9961449,253.4139 20.4321449,259.0469 C20.8691449,264.6809 16.6551449,269.6009 11.0221449,270.0379 C5.38814494,270.4739 0.468144943,266.2609 0.0311449428,260.6279 Z M2.21864494,288.8511 C1.78164494,283.2171 5.99464494,278.2971 11.6276449,277.8601 C17.2616449,277.4241 22.1826449,281.6371 22.6186449,287.2701 C23.0556449,292.9041 18.8426449,297.8241 13.2086449,298.2611 C7.57464494,298.6971 2.65564494,294.4841 2.21864494,288.8511 Z M4.45794494,317.7568 C4.02094494,312.1238 8.23394494,307.2028 13.8679449,306.7658 C19.5019449,306.3298 24.4219449,310.5428 24.8579449,316.1758 C25.2949449,321.8098 21.0819449,326.7308 15.4489449,327.1668 C9.81494494,327.6038 4.89494494,323.3908 4.45794494,317.7568 Z M162.696245,212 L162.696245,189 L231.696245,189 L231.696245,212 L162.696245,212 Z" id="Shape"></path>
                    </g>
                    <path d="M247.6798,135.5061 C272.0288,131.4461 290.5898,110.2861 290.5898,84.7861 C290.5898,59.2861 272.0288,38.1261 247.6798,34.0661 C250.4398,33.6061 253.2788,33.3661 256.1698,33.3661 C284.5688,33.3661 307.5898,56.3861 307.5898,84.7861 C307.5898,113.1861 284.5688,136.2061 256.1698,136.2061 C253.2788,136.2061 250.4398,135.9661 247.6798,135.5061 L247.6798,135.5061 Z" id="Path" fill="#19141E"></path>
                </g>
                <g id="Group-31" transform="translate(118.000000, 0.000000)">
                    <path d="M150.6712,51.2464 L120.2062,51.2464" id="Stroke-3" stroke="#19141E" stroke-width="5" stroke-linecap="round"></path>
                    <path d="M57.6756,9.6986 C51.8836,9.6986 47.1436,14.4376 47.1436,20.2306" id="Stroke-8" stroke="#FFFFFF" stroke-width="5" stroke-linecap="round"></path>
                    <path d="M12.5242,51.2464 L49.9952,51.2464" id="Stroke-12" stroke="#19141E" stroke-width="5" stroke-linecap="round"></path>
                    <g id="Face-color" transform="translate(-0.000200, 0.999500)" fill="#6CA1FF" fill-rule="nonzero">
                        <path d="M149.2684,106.501726 C154.800292,106.896055 159.166,111.509121 159.166,117.1414 L159.166,121.9364 L16.92,121.9364 L16.92,117.1414 C16.92,111.509148 21.2847517,106.896099 26.8174,106.501731 L26.8174,104.6024 C26.8174,98.1103962 31.5604715,92.6725854 37.7525,91.5830824 L37.7525,13.283 C37.7525,5.977 43.7305,0 51.0355,0 L125.0505,0 C132.3565,0 138.3335,5.977 138.3335,13.283 L138.3335,91.5831175 C144.525431,92.6727025 149.2684,98.1104661 149.2684,104.6024 L149.2684,106.501726 L149.2684,106.501726 Z M171.8482,50.2469 C171.8482,57.3739 166.0712,63.1519 158.9442,63.1519 C151.8172,63.1519 146.0392,57.3739 146.0392,50.2469 C146.0392,43.1199 151.8172,37.3429 158.9442,37.3429 C166.0712,37.3429 171.8482,43.1199 171.8482,50.2469 Z M2.98427949e-13,50.2469 C2.98427949e-13,43.1199 5.778,37.3429 12.905,37.3429 C20.032,37.3429 25.81,43.1199 25.81,50.2469 C25.81,57.3739 20.032,63.1519 12.905,63.1519 C5.778,63.1519 2.98427949e-13,57.3739 2.98427949e-13,50.2469 Z" id="Face"></path>
                    </g>
                    <g id="Overlay" transform="translate(-0.000200, 38.342400)" fill="#000000" opacity="0.395926339">
                        <path d="M26.8174,69.1588312 L26.8174,65.8643871 C27.3968064,59.890266 32.7654,54.0415 40.0354,54.0415 L136.0504,54.0415 C143.3204,54.0415 148.463701,59.4409252 149.2684,65.433723 L149.2684,69.1588255 C154.800292,69.5531548 159.166,74.1662206 159.166,79.7985 L159.166,84.5935 L16.92,84.5935 L16.92,79.7985 C16.92,74.1662476 21.2847517,69.5531991 26.8174,69.1588312 L26.8174,69.1588312 Z M171.8482,12.904 C171.8482,20.031 166.0712,25.809 158.9442,25.809 C151.8172,25.809 146.0392,20.031 146.0392,12.904 C146.0392,5.777 151.8172,-1.77635684e-15 158.9442,-1.77635684e-15 C166.0712,-1.77635684e-15 171.8482,5.777 171.8482,12.904 Z M1.30917499e-12,12.904 C1.30917499e-12,5.777 5.778,-1.77635684e-15 12.905,-1.77635684e-15 C20.032,-1.77635684e-15 25.81,5.777 25.81,12.904 C25.81,20.031 20.032,25.809 12.905,25.809 C5.778,25.809 1.30917499e-12,20.031 1.30917499e-12,12.904 Z" id="Shape"></path>
                    </g>
                    <path d="M27.66,107.8182 L148.969,107.8182" id="Stroke-19" stroke="#19141E" stroke-width="5"></path>
                    <path d="M58.4569,72.2918 L138.3329,72.2918" id="Stroke-21" stroke="#19141E" stroke-width="7"></path>
                    <path d="M79.3333,34.3211 C73.7033,38.9551 72.8963,47.2761 77.5303,52.9061 C82.1643,58.5361 90.4853,59.3431 96.1153,54.7091 C101.7453,50.0751 102.5523,41.7541 97.9183,36.1241 C93.2843,30.4941 84.9633,29.6871 79.3333,34.3211" id="Fill-23" fill="#FFFFFF"></path>
                    <path d="M86.3885,39.9735 C83.8025,42.1025 83.4315,45.9245 85.5605,48.5115 C87.6895,51.0975 91.5115,51.4685 94.0975,49.3395 C96.6845,47.2105 97.0555,43.3885 94.9265,40.8015 C92.7975,38.2155 88.9745,37.8445 86.3885,39.9735" id="Fill-25" fill="#19141E"></path>
                    <path d="M114.0638,34.3211 C108.4338,38.9551 107.6268,47.2761 112.2608,52.9061 C116.8948,58.5361 125.2158,59.3431 130.8458,54.7091 C136.4758,50.0751 137.2828,41.7541 132.6488,36.1241 C128.0148,30.4941 119.6938,29.6871 114.0638,34.3211" id="Fill-27" fill="#FFFFFF"></path>
                    <path d="M121.119,39.9735 C118.533,42.1025 118.162,45.9245 120.291,48.5115 C122.42,51.0975 126.242,51.4685 128.828,49.3395 C131.415,47.2105 131.786,43.3885 129.657,40.8015 C127.528,38.2155 123.705,37.8445 121.119,39.9735" id="Fill-29" fill="#19141E"></path>
                </g>
            </g>
        </g>
    </g>
</svg>