<?xml version="1.0" encoding="UTF-8"?>
<svg width="2021px" height="999px" viewBox="0 0 2021 999" version="1.1" xmlns="http://www.w3.org/2000/svg" xmlns:xlink="http://www.w3.org/1999/xlink">
    <!-- Generator: Sketch 55.2 (78181) - https://sketchapp.com -->
    <title>Illustration 20</title>
    <desc>Created with Sketch.</desc>
    <g id="Scene" stroke="none" stroke-width="1" fill="none" fill-rule="evenodd">
        <g id="Illustration-20" transform="translate(0.000000, -21.000000)">
            <g id="Background">
                <g id="Group-31" transform="translate(525.000000, 42.000000)">
                    <polygon id="Fill-1" fill="#ECF6FF" points="75.781 619.211 105.449 619.211 105.449 60.715 75.781 60.715"></polygon>
                    <polygon id="Fill-2" fill="#B6D4FF" points="373.314 633.654 382.912 633.654 382.912 47.551 373.314 47.551"></polygon>
                    <path d="M265.0217,47.7503 L265.0217,339.9633" id="Stroke-3" stroke="#DCEEFF" stroke-width="15"></path>
                    <path d="M166.8205,47.7503 L166.8205,339.9633" id="Stroke-4" stroke="#DCEEFF" stroke-width="15"></path>
                    <path d="M373.3137,340.6028 L96.2527,340.6028" id="Stroke-5" stroke="#DCEEFF" stroke-width="15"></path>
                    <path d="M59.62,633.654 L373.314,633.654 L373.314,47.552 L59.62,47.552 L59.62,633.654 Z M88.619,604.654 L344.314,604.654 L344.314,76.551 L88.619,76.551 L88.619,604.654 Z" id="Fill-6" fill="#DCEEFF"></path>
                    <polygon id="Fill-7" fill="#ECF6FF" points="51.74 604.704 381.193 604.704 381.193 591.461 51.74 591.461"></polygon>
                    <polygon id="Fill-8" fill="#B6D4FF" points="381.192 604.704 389.325 604.704 389.325 591.461 381.192 591.461"></polygon>
                    <path d="M275.7424,520.4314 C278.5004,544.3974 269.5304,564.8744 269.5304,564.8744 C269.5304,564.8744 256.0894,546.4964 253.3314,522.5304 C250.5724,498.5654 259.5424,478.0874 259.5424,478.0874 C259.5424,478.0874 272.9834,496.4664 275.7424,520.4314" id="Fill-9" fill="#D2E9FC"></path>
                    <path d="M200.2551,539.1716 C199.3941,563.2806 187.4591,582.1836 187.4591,582.1836 C187.4591,582.1836 176.9211,562.0006 177.7821,537.8916 C178.6431,513.7836 190.5771,494.8796 190.5771,494.8796 C190.5771,494.8796 201.1161,515.0636 200.2551,539.1716" id="Fill-11" fill="#D2E9FC"></path>
                    <path d="M269.923,539.6604 C281.916,561.1894 281.573,583.2054 281.573,583.2054 C281.573,583.2054 261.784,570.3164 249.79,548.7874 C237.797,527.2594 238.14,505.2434 238.14,505.2434 C238.14,505.2434 257.929,518.1314 269.923,539.6604" id="Fill-13" fill="#D2E9FC"></path>
                    <path d="M286.8068,523.0032 C283.7398,546.9382 270.0608,565.1742 270.0608,565.1742 C270.0608,565.1742 261.3558,544.6042 264.4228,520.6692 C267.4908,496.7332 281.1688,478.4982 281.1688,478.4982 C281.1688,478.4982 289.8738,499.0682 286.8068,523.0032" id="Fill-15" fill="#D2E9FC"></path>
                    <path d="M296.7922,540.3025 C286.9162,562.6895 268.4422,577.0795 268.4422,577.0795 C268.4422,577.0795 265.9802,555.1745 275.8562,532.7865 C285.7322,510.4005 304.2062,496.0095 304.2062,496.0095 C304.2062,496.0095 306.6672,517.9155 296.7922,540.3025" id="Fill-17" fill="#D2E9FC"></path>
                    <polygon id="Fill-19" fill="#DCEEFF" points="0 20.249 434.29 20.249 434.29 0 0 0"></polygon>
                    <polygon id="Fill-21" fill="#B6D4FF" points="430.658 20.249 440.933 20.249 440.933 0 430.658 0"></polygon>
                    <polygon id="Fill-22" fill="#B6D4FF" points="430.526 144.98 436.907 144.98 436.907 131.984 430.526 131.984"></polygon>
                    <polygon id="Fill-23" fill="#DCEEFF" points="11.143 131.984 425.836 131.984 425.836 20.25 11.143 20.25"></polygon>
                    <polygon id="Fill-24" fill="#CCE3FF" points="4.405 144.98 431.958 144.98 431.958 131.984 4.405 131.984"></polygon>
                    <polygon id="Fill-25" fill="#B6D4FF" points="11.143 37.24 425.836 37.24 425.836 20.249 11.143 20.249"></polygon>
                    <polygon id="Fill-26" fill="#B6D4FF" points="243.2863 546.7971 299.9743 546.7971 293.9893 591.4611 249.2703 591.4611"></polygon>
                    <path d="M192.5852,545.5066 C202.4912,566.6396 200.5672,588.1846 200.5672,588.1846 C200.5672,588.1846 182.5802,575.4646 172.6742,554.3306 C162.7672,533.1966 164.6902,511.6526 164.6902,511.6526 C164.6902,511.6526 182.6782,524.3726 192.5852,545.5066" id="Fill-27" fill="#D2E9FC"></path>
                    <path d="M207.5314,555.8337 C198.7804,577.4787 181.4994,591.1827 181.4994,591.1827 C181.4994,591.1827 178.4074,569.7937 187.1594,548.1487 C195.9114,526.5047 213.1914,512.7997 213.1914,512.7997 C213.1914,512.7997 216.2834,534.1887 207.5314,555.8337" id="Fill-28" fill="#D2E9FC"></path>
                    <polygon id="Fill-29" fill="#B6D4FF" points="168.674 556.9793 212.44 556.9793 207.819 591.4603 173.295 591.4603"></polygon>
                </g>
                <g id="Group-31" transform="translate(1381.000000, 42.000000)">
                    <polygon id="Fill-1" fill="#ECF6FF" points="75.781 619.211 105.449 619.211 105.449 60.715 75.781 60.715"></polygon>
                    <polygon id="Fill-2" fill="#B6D4FF" points="373.314 633.654 382.912 633.654 382.912 47.551 373.314 47.551"></polygon>
                    <path d="M265.0217,47.7503 L265.0217,339.9633" id="Stroke-3" stroke="#DCEEFF" stroke-width="15"></path>
                    <path d="M166.8205,47.7503 L166.8205,339.9633" id="Stroke-4" stroke="#DCEEFF" stroke-width="15"></path>
                    <path d="M373.3137,340.6028 L96.2527,340.6028" id="Stroke-5" stroke="#DCEEFF" stroke-width="15"></path>
                    <path d="M59.62,633.654 L373.314,633.654 L373.314,47.552 L59.62,47.552 L59.62,633.654 Z M88.619,604.654 L344.314,604.654 L344.314,76.551 L88.619,76.551 L88.619,604.654 Z" id="Fill-6" fill="#DCEEFF"></path>
                    <polygon id="Fill-7" fill="#ECF6FF" points="51.74 604.704 381.193 604.704 381.193 591.461 51.74 591.461"></polygon>
                    <polygon id="Fill-8" fill="#B6D4FF" points="381.192 604.704 389.325 604.704 389.325 591.461 381.192 591.461"></polygon>
                    <path d="M275.7424,520.4314 C278.5004,544.3974 269.5304,564.8744 269.5304,564.8744 C269.5304,564.8744 256.0894,546.4964 253.3314,522.5304 C250.5724,498.5654 259.5424,478.0874 259.5424,478.0874 C259.5424,478.0874 272.9834,496.4664 275.7424,520.4314" id="Fill-9" fill="#D2E9FC"></path>
                    <path d="M200.2551,539.1716 C199.3941,563.2806 187.4591,582.1836 187.4591,582.1836 C187.4591,582.1836 176.9211,562.0006 177.7821,537.8916 C178.6431,513.7836 190.5771,494.8796 190.5771,494.8796 C190.5771,494.8796 201.1161,515.0636 200.2551,539.1716" id="Fill-11" fill="#D2E9FC"></path>
                    <path d="M269.923,539.6604 C281.916,561.1894 281.573,583.2054 281.573,583.2054 C281.573,583.2054 261.784,570.3164 249.79,548.7874 C237.797,527.2594 238.14,505.2434 238.14,505.2434 C238.14,505.2434 257.929,518.1314 269.923,539.6604" id="Fill-13" fill="#D2E9FC"></path>
                    <path d="M286.8068,523.0032 C283.7398,546.9382 270.0608,565.1742 270.0608,565.1742 C270.0608,565.1742 261.3558,544.6042 264.4228,520.6692 C267.4908,496.7332 281.1688,478.4982 281.1688,478.4982 C281.1688,478.4982 289.8738,499.0682 286.8068,523.0032" id="Fill-15" fill="#D2E9FC"></path>
                    <path d="M296.7922,540.3025 C286.9162,562.6895 268.4422,577.0795 268.4422,577.0795 C268.4422,577.0795 265.9802,555.1745 275.8562,532.7865 C285.7322,510.4005 304.2062,496.0095 304.2062,496.0095 C304.2062,496.0095 306.6672,517.9155 296.7922,540.3025" id="Fill-17" fill="#D2E9FC"></path>
                    <polygon id="Fill-19" fill="#DCEEFF" points="0 20.249 434.29 20.249 434.29 0 0 0"></polygon>
                    <polygon id="Fill-21" fill="#B6D4FF" points="430.658 20.249 440.933 20.249 440.933 0 430.658 0"></polygon>
                    <polygon id="Fill-22" fill="#B6D4FF" points="430.526 144.98 436.907 144.98 436.907 131.984 430.526 131.984"></polygon>
                    <polygon id="Fill-23" fill="#DCEEFF" points="11.143 131.984 425.836 131.984 425.836 20.25 11.143 20.25"></polygon>
                    <polygon id="Fill-24" fill="#CCE3FF" points="4.405 144.98 431.958 144.98 431.958 131.984 4.405 131.984"></polygon>
                    <polygon id="Fill-25" fill="#B6D4FF" points="11.143 37.24 425.836 37.24 425.836 20.249 11.143 20.249"></polygon>
                    <polygon id="Fill-26" fill="#B6D4FF" points="243.2863 546.7971 299.9743 546.7971 293.9893 591.4611 249.2703 591.4611"></polygon>
                    <path d="M192.5852,545.5066 C202.4912,566.6396 200.5672,588.1846 200.5672,588.1846 C200.5672,588.1846 182.5802,575.4646 172.6742,554.3306 C162.7672,533.1966 164.6902,511.6526 164.6902,511.6526 C164.6902,511.6526 182.6782,524.3726 192.5852,545.5066" id="Fill-27" fill="#D2E9FC"></path>
                    <path d="M207.5314,555.8337 C198.7804,577.4787 181.4994,591.1827 181.4994,591.1827 C181.4994,591.1827 178.4074,569.7937 187.1594,548.1487 C195.9114,526.5047 213.1914,512.7997 213.1914,512.7997 C213.1914,512.7997 216.2834,534.1887 207.5314,555.8337" id="Fill-28" fill="#D2E9FC"></path>
                    <polygon id="Fill-29" fill="#B6D4FF" points="168.674 556.9793 212.44 556.9793 207.819 591.4603 173.295 591.4603"></polygon>
                </g>
                <g id="Group-14" transform="translate(1091.000000, 21.000000)">
                    <path d="M155.4015,70.763 C155.4015,109.844 123.7195,141.526 84.6375,141.526 C45.5565,141.526 13.8755,109.844 13.8755,70.763 C13.8755,31.681 45.5565,0 84.6375,0 C123.7195,0 155.4015,31.681 155.4015,70.763" id="Fill-1" fill="#CCE3FF"></path>
                    <path d="M141.5265,70.763 C141.5265,109.844 109.8435,141.526 70.7625,141.526 C31.6815,141.526 0.0005,109.844 0.0005,70.763 C0.0005,31.681 31.6815,0 70.7625,0 C109.8435,0 141.5265,31.681 141.5265,70.763" id="Fill-4" fill="#DCEEFF"></path>
                    <path d="M124.3869,70.7577 C124.3869,98.3797 103.5099,121.1177 76.6849,124.0647 C74.7379,124.2797 72.7689,124.3867 70.7689,124.3867 C41.1469,124.3867 17.1389,100.3797 17.1389,70.7577 C17.1389,41.1467 41.1469,17.1387 70.7689,17.1387 C72.7689,17.1387 74.7379,17.2467 76.6849,17.4617 C103.5099,20.4087 124.3869,43.1467 124.3869,70.7577" id="Fill-6" fill="#CCE3FF"></path>
                    <path d="M124.3869,70.7577 C124.3869,98.3797 103.5099,121.1177 76.6849,124.0647 C49.8479,121.1177 28.9709,98.3797 28.9709,70.7577 C28.9709,43.1467 49.8479,20.4087 76.6849,17.4617 C103.5099,20.4087 124.3869,43.1467 124.3869,70.7577" id="Fill-8" fill="#ECF6FF"></path>
                    <path d="M73.089,40.9427 L90.464,78.8377" id="Stroke-10" stroke="#CCE3FF" stroke-width="8"></path>
                    <path d="M92.1193,62.951 L54.0593,104.321" id="Stroke-12" stroke="#CCE3FF" stroke-width="8"></path>
                </g>
                <g id="Group-34" transform="translate(916.400000, 738.600000)">
                    <path d="M294.45072,120.12312 L239.14752,120.12312 L239.14752,8.57752 C239.14752,3.83992 242.98832,0.00072 247.72592,0.00072 L285.87232,0.00072 C290.60992,0.00072 294.45072,3.83992 294.45072,8.57752 L294.45072,120.12312 Z" id="Fill-1" fill="#CCE3FF"></path>
                    <path d="M366.546,105.68952 C366.546,111.17752 364.586,116.20952 361.322,120.12152 L326.642,120.12152 C323.378,116.20952 321.418,111.17752 321.418,105.68952 C321.418,93.22552 331.522,83.12152 343.986,83.12152 C356.442,83.12152 366.546,93.22552 366.546,105.68952" id="Fill-3" fill="#DCEEFF"></path>
                    <polygon id="Fill-5" fill="#DCEEFF" points="336.188 89.6896 351.7768 89.6896 351.7768 76.3968 336.188 76.3968"></polygon>
                    <polygon id="Fill-7" fill="#DCEEFF" points="332.084 76.3968 355.8792 76.3968 355.8792 69.5048 332.084 69.5048"></polygon>
                    <polygon id="Fill-8" fill="#B6D4FF" points="334.78744 120.12312 301.48424 120.12312 318.13624 94.08392"></polygon>
                    <polygon id="Fill-9" fill="#B6D4FF" points="239.1472 105.5032 294.4504 105.5032 294.4504 40.1712 239.1472 40.1712"></polygon>
                    <polygon id="Fill-10" fill="#B6D4FF" points="247.1888 115.7 266.1632 115.7 266.1632 111.2688 247.1888 111.2688"></polygon>
                    <polygon id="Fill-11" fill="#B6D4FF" points="239.1472 13.3608 294.4504 13.3608 294.4504 11.8648 239.1472 11.8648"></polygon>
                    <path d="M412.14368,242.95432 L412.14368,281.15352" id="Fill-12" fill="#CCE3FF"></path>
                    <path d="M412.14368,242.95432 L412.14368,281.15352" id="Stroke-13" stroke="#CCE3FF" stroke-width="8.8"></path>
                    <path d="M351.58976,242.95432 L351.58976,281.15352" id="Fill-15" fill="#CCE3FF"></path>
                    <path d="M351.58976,242.95432 L351.58976,281.15352" id="Stroke-16" stroke="#CCE3FF" stroke-width="8.8"></path>
                    <path d="M87.7132,242.95432 L87.7132,281.15352" id="Fill-18" fill="#CCE3FF"></path>
                    <path d="M87.7132,242.95432 L87.7132,281.15352" id="Stroke-19" stroke="#CCE3FF" stroke-width="8.8"></path>
                    <path d="M27.15928,242.95432 L27.15928,281.15352" id="Fill-21" fill="#CCE3FF"></path>
                    <path d="M27.15928,242.95432 L27.15928,281.15352" id="Stroke-22" stroke="#CCE3FF" stroke-width="8.8"></path>
                    <polygon id="Fill-24" fill="#DCEEFF" points="0 242.9544 324.9232 242.9544 324.9232 120.1232 0 120.1232"></polygon>
                    <polygon id="Fill-25" fill="#CCE3FF" points="18.7072 229.2624 154.256 229.2624 154.256 133.7544 18.7072 133.7544"></polygon>
                    <polygon id="Fill-26" fill="#CCE3FF" points="170.6656 229.2624 306.2152 229.2624 306.2152 133.7544 170.6656 133.7544"></polygon>
                    <polygon id="Fill-27" fill="#B6D4FF" points="324.924 242.9544 438.8104 242.9544 438.8104 120.1232 324.924 120.1232"></polygon>
                    <path d="M80.24992,90.12152 L80.24992,90.12232 C80.24992,95.64472 84.72752,100.12232 90.25072,100.12232 L180.22592,100.12232 L180.22592,80.12152 L90.25072,80.12152 C84.72752,80.12152 80.24992,84.59912 80.24992,90.12152" id="Fill-28" fill="#CCE3FF"></path>
                    <path d="M140.76632,90.12152 L140.76632,90.12232 C140.76632,93.31912 143.35832,95.91112 146.55512,95.91112 L179.98472,95.91112 C180.11752,95.91112 180.22552,95.80392 180.22552,95.67112 L180.22552,84.57272 C180.22552,84.43992 180.11752,84.33272 179.98472,84.33272 L146.55512,84.33272 C143.35832,84.33272 140.76632,86.92472 140.76632,90.12152" id="Fill-29" fill="#DCEEFF"></path>
                    <path d="M67.69208,100.12232 L67.69208,120.12312 L165.89928,120.12312 C171.42248,120.12312 175.90008,115.64552 175.90008,110.12312 C175.90008,104.59992 171.42248,100.12232 165.89928,100.12232 L67.69208,100.12232 Z" id="Fill-30" fill="#CCE3FF"></path>
                    <path d="M67.69208,104.38872 L67.69208,115.85672 L108.07128,115.85672 C111.23848,115.85672 113.80568,113.28952 113.80568,110.12312 C113.80568,106.95592 111.23848,104.38872 108.07128,104.38872 L67.69208,104.38872 Z" id="Fill-31" fill="#DCEEFF"></path>
                    <path d="M114.2772,133.75432 L114.2772,133.75432 C114.2772,141.05032 108.3628,146.96472 101.0668,146.96472 L71.8964,146.96472 C64.6012,146.96472 58.6868,141.05032 58.6868,133.75432 L114.2772,133.75432 Z" id="Fill-32" fill="#B6D4FF"></path>
                    <path d="M266.23664,133.75432 L266.23664,133.75432 C266.23664,141.05032 260.32144,146.96472 253.02544,146.96472 L223.85584,146.96472 C216.55984,146.96472 210.64544,141.05032 210.64544,133.75432 L266.23664,133.75432 Z" id="Fill-33" fill="#B6D4FF"></path>
                </g>
                <g id="Background-Object-/-Sofa-/-3" transform="translate(388.500000, 838.000000) scale(-1, 1) translate(-388.500000, -838.000000) translate(0.000000, 656.000000)">
                    <g id="Group-20" transform="translate(0.600000, 0.400000)">
                        <polygon id="Fill-1" fill="#B6D4FF" points="184.5128 264.9432 636.0128 264.9432 636.0128 158.0056 184.5128 158.0056"></polygon>
                        <path d="M311.1796,180.63536 L636.69,180.63536 C653.6324,180.63536 667.7716,167.69856 669.2732,150.82176 L679.4532,36.41136 C681.1556,17.27616 666.0796,0.80016 646.8692,0.80016 L321.3588,0.80016 C304.4156,0.80016 290.2764,13.73696 288.7748,30.61376 L278.5964,145.02416 C276.894,164.15936 291.9684,180.63536 311.1796,180.63536" id="Fill-2" fill="#B6D4FF"></path>
                        <path d="M43.25928,316.89944 L169.94808,316.89944 C188.68728,316.89944 203.40888,300.85464 201.79928,282.18344 L191.31128,160.54264 C189.88648,144.01224 176.05208,131.31944 159.46088,131.31944 L32.77208,131.31944 C14.03208,131.31944 -0.68952,147.36424 0.92008,166.03464 L11.40808,287.67624 C12.83368,304.20664 26.66728,316.89944 43.25928,316.89944" id="Fill-4" fill="#B6D4FF"></path>
                        <path d="M213.24368,180.63536 L574.86688,180.63536 C591.81008,180.63536 605.94928,167.69856 607.45088,150.82176 L617.62928,36.41136 C619.33168,17.27616 604.25728,0.80016 585.04608,0.80016 L223.42288,0.80016 C206.47968,0.80016 192.34048,13.73696 190.83888,30.61376 L180.65968,145.02416 C178.95808,164.15936 194.03248,180.63536 213.24368,180.63536" id="Fill-7" fill="#DCEEFF"></path>
                        <polygon id="Fill-9" fill="#CCE3FF" points="56.6352 316.8992 608.8264 316.8992 608.8264 260.8976 56.6352 260.8976"></polygon>
                        <path d="M132.02336,260.89752 L520.52976,260.89752 C539.82496,260.89752 555.46656,245.25592 555.46656,225.96152 C555.46656,206.66712 539.82496,191.02552 520.52976,191.02552 L132.02336,191.02552 C112.72896,191.02552 97.08736,206.66712 97.08736,225.96152 C97.08736,245.25592 112.72896,260.89752 132.02336,260.89752" id="Fill-11" fill="#DCEEFF"></path>
                        <polygon id="Fill-12" fill="#B6D4FF" points="713.7632 362.27208 727.0144 362.27208 721.4144 316.89928 696.9632 316.89928"></polygon>
                        <polygon id="Fill-13" fill="#B6D4FF" points="599.87648 362.27208 613.12688 362.27208 607.52688 316.89928 583.07648 316.89928"></polygon>
                        <polygon id="Fill-14" fill="#B6D4FF" points="58.72728 362.27208 45.47688 362.27208 51.07688 316.89928 75.52728 316.89928"></polygon>
                        <polygon id="Fill-15" fill="#B6D4FF" points="172.61472 362.27208 159.36352 362.27208 164.96352 316.89928 189.41472 316.89928"></polygon>
                        <path d="M43.25928,316.89944 L62.24248,316.89944 C80.98248,316.89944 95.70408,300.85464 94.09448,282.18344 L83.60728,160.54264 C82.18168,144.01224 68.34728,131.31944 51.75528,131.31944 L32.77208,131.31944 C14.03208,131.31944 -0.68952,147.36424 0.92008,166.03464 L11.40808,287.67624 C12.83368,304.20664 26.66728,316.89944 43.25928,316.89944" id="Fill-16" fill="#CCE3FF"></path>
                        <path d="M590.31008,316.89944 L732.99888,316.89944 C749.59088,316.89944 763.42528,304.20664 764.85008,287.67624 L775.33728,166.03464 C776.94768,147.36424 762.22688,131.31944 743.48688,131.31944 L600.79728,131.31944 C584.20608,131.31944 570.37168,144.01224 568.94688,160.54264 L558.45968,282.18344 C556.84928,300.85464 571.57008,316.89944 590.31008,316.89944" id="Fill-17" fill="#B6D4FF"></path>
                        <path d="M590.31008,316.89944 L609.29328,316.89944 C625.88608,316.89944 639.72048,304.20664 641.14528,287.67624 L651.63248,166.03464 C653.24208,147.36424 638.52128,131.31944 619.78128,131.31944 L600.79728,131.31944 C584.20608,131.31944 570.37168,144.01224 568.94688,160.54264 L558.45968,282.18344 C556.84928,300.85464 571.57008,316.89944 590.31008,316.89944" id="Fill-18" fill="#CCE3FF"></path>
                    </g>
                </g>
                <g id="Group-14" transform="translate(1560.000000, 676.400000)">
                    <polygon id="Fill-1" fill="#B6D4FF" points="384.65064 272.48792 414.84584 343.45032 428.53864 343.45032 410.37304 269.00952"></polygon>
                    <polygon id="Fill-2" fill="#B6D4FF" points="230.4 272.48792 260.5944 343.45032 274.2872 343.45032 256.1216 269.00952"></polygon>
                    <polygon id="Fill-3" fill="#B6D4FF" points="0 343.4504 13.6928 343.4504 43.8872 272.488 18.1656 269.0096"></polygon>
                    <polygon id="Fill-4" fill="#B6D4FF" points="154.25064 343.4504 167.94344 343.4504 198.13864 272.488 172.41624 269.0096"></polygon>
                    <path d="M16.83768,106.41608 L16.83768,278.24008 L195.40808,278.62168 L224.77368,108.65288 L16.83768,106.41608 Z M30.43768,120.16328 L208.65288,122.08008 L183.96008,264.99768 L30.43768,264.66968 L30.43768,120.16328 Z" id="Fill-5" fill="#B6D4FF"></path>
                    <polygon id="Fill-6" fill="#CCE3FF" points="251.16624 0.79952 203.16704 278.62192 412.56624 278.62192 460.56704 0.79952"></polygon>
                    <polygon id="Fill-7" fill="#DCEEFF" points="194.85792 0.79952 146.85792 278.62192 353.71792 278.62192 401.71792 0.79952"></polygon>
                    <path d="M143.56888,278.62192 L389.80408,278.62192 C402.37528,278.62192 412.56648,268.43072 412.56648,255.85872 L412.56648,203.39792 C412.56648,190.82592 402.37528,180.63472 389.80408,180.63472 L143.56888,180.63472 C130.99688,180.63472 120.80568,190.82592 120.80568,203.39792 L120.80568,255.85872 C120.80568,268.43072 130.99688,278.62192 143.56888,278.62192" id="Fill-8" fill="#CCE3FF"></path>
                    <polygon id="Fill-10" fill="#DCEEFF" points="15.9128 278.6216 233.996 278.6216 233.996 180.6344 15.9128 180.6344"></polygon>
                    <path d="M233.99624,106.41608 L233.99624,278.24008 L412.56664,278.62168 L441.93304,108.65288 L233.99624,106.41608 Z M247.59624,120.16328 L425.81144,122.08008 L401.11864,264.99768 L247.59624,264.66968 L247.59624,120.16328 Z" id="Fill-12" fill="#B6D4FF"></path>
                </g>
            </g>
        </g>
    </g>
</svg>