<?xml version="1.0" encoding="UTF-8"?>
<svg width="1527px" height="828px" viewBox="0 0 1527 828" version="1.1" xmlns="http://www.w3.org/2000/svg" xmlns:xlink="http://www.w3.org/1999/xlink">
    <!-- Generator: Sketch 55.2 (78181) - https://sketchapp.com -->
    <title>Illustration 7</title>
    <desc>Created with Sketch.</desc>
    <g id="Scene" stroke="none" stroke-width="1" fill="none" fill-rule="evenodd">
        <g id="Illustration-7" transform="translate(0.000000, -37.000000)">
            <g id="Background">
                <g id="Background-Object-/-Chair-/-5" transform="translate(230.500000, 687.500000) scale(-1, 1) translate(-230.500000, -687.500000) translate(0.000000, 515.000000)">
                    <g id="Group-14" transform="translate(0.000000, 0.400000)">
                        <polygon id="Fill-1" fill="#B6D4FF" points="384.65064 272.48792 414.84584 343.45032 428.53864 343.45032 410.37304 269.00952"></polygon>
                        <polygon id="Fill-2" fill="#B6D4FF" points="230.4 272.48792 260.5944 343.45032 274.2872 343.45032 256.1216 269.00952"></polygon>
                        <polygon id="Fill-3" fill="#B6D4FF" points="0 343.4504 13.6928 343.4504 43.8872 272.488 18.1656 269.0096"></polygon>
                        <polygon id="Fill-4" fill="#B6D4FF" points="154.25064 343.4504 167.94344 343.4504 198.13864 272.488 172.41624 269.0096"></polygon>
                        <path d="M16.83768,106.41608 L16.83768,278.24008 L195.40808,278.62168 L224.77368,108.65288 L16.83768,106.41608 Z M30.43768,120.16328 L208.65288,122.08008 L183.96008,264.99768 L30.43768,264.66968 L30.43768,120.16328 Z" id="Fill-5" fill="#B6D4FF"></path>
                        <polygon id="Fill-6" fill="#CCE3FF" points="251.16624 0.79952 203.16704 278.62192 412.56624 278.62192 460.56704 0.79952"></polygon>
                        <polygon id="Fill-7" fill="#DCEEFF" points="194.85792 0.79952 146.85792 278.62192 353.71792 278.62192 401.71792 0.79952"></polygon>
                        <path d="M143.56888,278.62192 L389.80408,278.62192 C402.37528,278.62192 412.56648,268.43072 412.56648,255.85872 L412.56648,203.39792 C412.56648,190.82592 402.37528,180.63472 389.80408,180.63472 L143.56888,180.63472 C130.99688,180.63472 120.80568,190.82592 120.80568,203.39792 L120.80568,255.85872 C120.80568,268.43072 130.99688,278.62192 143.56888,278.62192" id="Fill-8" fill="#CCE3FF"></path>
                        <polygon id="Fill-10" fill="#DCEEFF" points="15.9128 278.6216 233.996 278.6216 233.996 180.6344 15.9128 180.6344"></polygon>
                        <path d="M233.99624,106.41608 L233.99624,278.24008 L412.56664,278.62168 L441.93304,108.65288 L233.99624,106.41608 Z M247.59624,120.16328 L425.81144,122.08008 L401.11864,264.99768 L247.59624,264.66968 L247.59624,120.16328 Z" id="Fill-12" fill="#B6D4FF"></path>
                    </g>
                </g>
                <g id="Group-36" transform="translate(1042.600000, 139.200000)">
                    <polygon id="Fill-1" fill="#DCEEFF" points="0 720.4608 21.2272 720.4608 21.2272 651.4992 0 651.4992"></polygon>
                    <polygon id="Fill-2" fill="#DCEEFF" points="176.8136 720.4608 198.0408 720.4608 198.0408 651.4992 176.8136 651.4992"></polygon>
                    <polygon id="Fill-3" fill="#B6D4FF" points="75.2896 720.4608 96.516 720.4608 96.516 651.4992 75.2896 651.4992"></polygon>
                    <polygon id="Fill-4" fill="#B6D4FF" points="252.1024 720.4608 273.3296 720.4608 273.3296 651.4992 252.1024 651.4992"></polygon>
                    <polygon id="Fill-5" fill="#B6D4FF" points="75.1672 663.7352 273.2064 663.7352 273.2064 77.9288 75.1672 77.9288"></polygon>
                    <polygon id="Fill-6" fill="#DCEEFF" points="0.3992 663.7352 198.44 663.7352 198.44 77.9288 0.3992 77.9288"></polygon>
                    <path d="M135.17256,38.09416 C135.17256,54.92616 126.28056,69.69416 112.94296,77.92856 L63.97976,77.92856 C50.64136,69.69416 41.74936,54.92616 41.74936,38.09416 C41.74936,30.26136 43.67656,22.88696 47.07336,16.41096 L129.84936,16.41096 C133.24536,22.88696 135.17256,30.26136 135.17256,38.09416" id="Fill-7" fill="#DCEEFF"></path>
                    <polygon id="Fill-9" fill="#DCEEFF" points="147.5904 77.9184 167.7784 77.9184 167.7784 0.8 147.5904 0.8"></polygon>
                    <polygon id="Fill-11" fill="#CCE3FF" points="127.4016 77.9184 147.5896 77.9184 147.5896 0.8 127.4016 0.8"></polygon>
                    <polygon id="Fill-12" fill="#CCE3FF" points="167.7784 77.9184 187.9664 77.9184 187.9664 0.8 167.7784 0.8"></polygon>
                    <path d="M242.1984,77.9184 L187.9664,77.9184 L187.9664,0.8 L242.1984,0.8 C244.464,0.8 246.3008,2.636 246.3008,4.9024 L246.3008,73.816 C246.3008,76.0816 244.464,77.9184 242.1984,77.9184" id="Fill-13" fill="#B6D4FF"></path>
                    <polygon id="Fill-14" fill="#CCE3FF" points="205.7576 31.4512 228.5104 31.4512 228.5104 23.8152 205.7576 23.8152"></polygon>
                    <polygon id="Fill-15" fill="#CCE3FF" points="18.1272 644.432 180.788 644.432 180.788 475.8232 18.1272 475.8232"></polygon>
                    <polygon id="Fill-16" fill="#B6D4FF" points="18.128 644.432 74.2456 644.432 74.2456 475.8232 18.128 475.8232"></polygon>
                    <polygon id="Fill-17" fill="#CCE3FF" points="18.1272 454.8992 180.788 454.8992 180.788 286.2912 18.1272 286.2912"></polygon>
                    <polygon id="Fill-18" fill="#B6D4FF" points="18.128 454.8992 74.2456 454.8992 74.2456 286.2912 18.128 286.2912"></polygon>
                    <polygon id="Fill-19" fill="#CCE3FF" points="18.1272 265.3664 180.788 265.3664 180.788 96.7584 18.1272 96.7584"></polygon>
                    <polygon id="Fill-20" fill="#B6D4FF" points="18.128 265.3664 74.2456 265.3664 74.2456 96.7584 18.128 96.7584"></polygon>
                    <polygon id="Fill-21" fill="#DCEEFF" points="57.0744 644.432 73.1736 644.432 73.1736 582.9328 57.0744 582.9328"></polygon>
                    <polygon id="Fill-22" fill="#CCE3FF" points="40.9752 644.432 57.0744 644.432 57.0744 582.9328 40.9752 582.9328"></polygon>
                    <polygon id="Fill-23" fill="#CCE3FF" points="73.1736 644.432 89.2728 644.432 89.2728 582.9328 73.1736 582.9328"></polygon>
                    <path d="M131.68896,644.43168 L89.27216,644.43168 L89.27216,582.93248 L131.68896,582.93248 C133.95536,582.93248 135.79216,584.76928 135.79216,587.03488 L135.79216,640.32848 C135.79216,642.59488 133.95536,644.43168 131.68896,644.43168" id="Fill-24" fill="#B6D4FF"></path>
                    <polygon id="Fill-25" fill="#CCE3FF" points="96.1664 597.9808 128.8984 597.9808 128.8984 591.892 96.1664 591.892"></polygon>
                    <polygon id="Fill-26" fill="#CCE3FF" points="103.46 607.3752 121.6048 607.3752 121.6048 601.2864 103.46 601.2864"></polygon>
                    <path d="M113.42488,239.25432 C112.17688,249.74232 106.86488,258.99032 99.10568,265.36632 L48.36088,265.36632 C40.60168,258.99032 35.28888,249.74232 34.03368,239.25432 L113.42488,239.25432 Z" id="Fill-27" fill="#DCEEFF"></path>
                    <path d="M113.42488,217.45592 C111.06328,237.27752 94.19128,252.65592 73.73048,252.65592 C53.26888,252.65592 36.39768,237.27752 34.03528,217.45592 L113.42488,217.45592 Z" id="Fill-28" fill="#DCEEFF"></path>
                    <path d="M113.42488,195.68952 C112.17688,206.17752 106.86488,215.42552 99.10568,221.80152 L48.36088,221.80152 C40.60168,215.42552 35.28888,206.17752 34.03368,195.68952 L113.42488,195.68952 Z" id="Fill-29" fill="#DCEEFF"></path>
                    <path d="M113.42488,173.89032 C111.06328,193.71272 94.19128,209.09112 73.73048,209.09112 C53.26888,209.09112 36.39768,193.71272 34.03528,173.89032 L113.42488,173.89032 Z" id="Fill-30" fill="#DCEEFF"></path>
                    <path d="M87.28432,414.39504 C87.28432,429.83104 85.63872,443.94944 82.89472,454.89904 L54.13952,454.89904 C51.40112,443.94944 49.74912,429.83104 49.74912,414.39504" id="Fill-31" fill="#ECF6FF"></path>
                    <path d="M85.8616,421.17784 C92.3816,422.46504 96.624,428.79464 95.3368,435.31464 C94.0488,441.83464 87.72,446.07704 81.2,444.78984" id="Stroke-32" stroke="#ECF6FF" stroke-width="6.4"></path>
                    <path d="M144.88432,414.39504 C144.88432,429.83104 143.23872,443.94944 140.49472,454.89904 L111.73952,454.89904 C109.00112,443.94944 107.34912,429.83104 107.34912,414.39504" id="Fill-33" fill="#ECF6FF"></path>
                    <path d="M137.228,421.17784 C143.748,422.46504 147.9904,428.79464 146.7032,435.31464 C145.4152,441.83464 139.0864,446.07704 132.5664,444.78984" id="Stroke-34" stroke="#ECF6FF" stroke-width="6.4"></path>
                </g>
                <g id="Group-23" transform="translate(679.800000, 571.800000)">
                    <path d="M47.18384,85.2412 L47.18384,85.2412 C47.18384,90.7636 51.66144,95.2412 57.18384,95.2412 L147.15904,95.2412 L147.15904,75.2404 L57.18384,75.2404 C51.66144,75.2404 47.18384,79.718 47.18384,85.2412" id="Fill-1" fill="#CCE3FF"></path>
                    <path d="M107.69944,85.2412 L107.69944,85.2412 C107.69944,88.438 110.29144,91.03 113.48904,91.03 L146.91784,91.03 C147.05064,91.03 147.15864,90.9228 147.15864,90.79 L147.15864,79.6916 C147.15864,79.5588 147.05064,79.4516 146.91784,79.4516 L113.48904,79.4516 C110.29144,79.4516 107.69944,82.0436 107.69944,85.2412" id="Fill-3" fill="#DCEEFF"></path>
                    <path d="M34.626,95.2412 L34.626,115.242 L132.8332,115.242 C138.3556,115.242 142.8332,110.7644 142.8332,105.242 C142.8332,99.7188 138.3556,95.2412 132.8332,95.2412 L34.626,95.2412 Z" id="Fill-5" fill="#CCE3FF"></path>
                    <path d="M34.626,99.5084 L34.626,110.9756 L75.0052,110.9756 C78.1716,110.9756 80.7388,108.4084 80.7388,105.242 C80.7388,102.0748 78.1716,99.5084 75.0052,99.5084 L34.626,99.5084 Z" id="Fill-7" fill="#DCEEFF"></path>
                    <path d="M72.35496,63.04664 L78.74216,0.79944 L98.71656,0.79944 L105.10456,63.04664 C105.77336,69.56984 100.65496,75.24024 94.09816,75.24024 L83.36136,75.24024 C76.80456,75.24024 71.68536,69.56984 72.35496,63.04664" id="Fill-9" fill="#DCEEFF"></path>
                    <polygon id="Fill-12" fill="#DCEEFF" points="0 257.7608 121.6 257.7608 121.6 115.2424 0 115.2424"></polygon>
                    <polygon id="Fill-14" fill="#B6D4FF" points="121.6 257.7608 202.5152 257.7608 202.5152 115.2424 121.6 115.2424"></polygon>
                    <polygon id="Fill-15" fill="#CCE3FF" points="10.8992 244.1192 108.608 244.1192 108.608 191.8312 10.8992 191.8312"></polygon>
                    <polygon id="Fill-16" fill="#CCE3FF" points="10.8992 180.0808 108.608 180.0808 108.608 127.7928 10.8992 127.7928"></polygon>
                    <polygon id="Fill-17" fill="#DCEEFF" points="0 291.4496 11.9128 291.4496 11.9128 257.7608 0 257.7608"></polygon>
                    <polygon id="Fill-18" fill="#B6D4FF" points="190.6024 291.4496 202.5152 291.4496 202.5152 257.7608 190.6024 257.7608"></polygon>
                    <polygon id="Fill-19" fill="#DCEEFF" points="109.6864 291.4496 121.6 291.4496 121.6 257.7608 109.6864 257.7608"></polygon>
                    <polygon id="Fill-20" fill="#B6D4FF" points="79.6304 291.4496 91.5432 291.4496 91.5432 257.7608 79.6304 257.7608"></polygon>
                    <path d="M50.062,153.93728 C50.062,159.28928 54.4012,163.62848 59.754,163.62848 C65.1068,163.62848 69.4452,159.28928 69.4452,153.93728 C69.4452,148.58448 65.1068,144.24528 59.754,144.24528 C54.4012,144.24528 50.062,148.58448 50.062,153.93728" id="Fill-21" fill="#B6D4FF"></path>
                    <path d="M50.062,217.9756 C50.062,223.3276 54.4012,227.6668 59.754,227.6668 C65.1068,227.6668 69.4452,223.3276 69.4452,217.9756 C69.4452,212.6228 65.1068,208.2836 59.754,208.2836 C54.4012,208.2836 50.062,212.6228 50.062,217.9756" id="Fill-22" fill="#B6D4FF"></path>
                </g>
                <g id="Pictures" transform="translate(58.000000, 20.000000)">
                    <g id="Background-Object-/-Picture-/-3" transform="translate(364.000000, 98.500000) scale(-1, 1) translate(-364.000000, -98.500000) translate(262.000000, 20.000000)">
                        <g id="Group-10" transform="translate(0.400000, 0.400000)">
                            <polygon id="Fill-1" fill="#DCEEFF" points="97.676 155.8048 202.4712 155.8048 202.4712 0.4 97.676 0.4"></polygon>
                            <polygon id="Stroke-2" stroke="#DCEEFF" stroke-width="7.2" points="97.676 155.8048 202.4712 155.8048 202.4712 0.4 97.676 0.4"></polygon>
                            <polygon id="Fill-4" fill="#FFFFFF" points="0.4 155.8048 196.7992 155.8048 196.7992 0.4 0.4 0.4"></polygon>
                            <polygon id="Stroke-5" stroke="#DCEEFF" stroke-width="7.2" points="0.4 155.8048 196.7992 155.8048 196.7992 0.4 0.4 0.4"></polygon>
                            <polygon id="Fill-7" fill="#FFFFFF" points="18.4776 138.8984 178.7216 138.8984 178.7216 17.3064 18.4776 17.3064"></polygon>
                            <polygon id="Stroke-8" stroke="#DCEEFF" stroke-width="7.2" points="18.4776 138.8984 178.7216 138.8984 178.7216 17.3064 18.4776 17.3064"></polygon>
                            <polygon id="Fill-9" fill="#B6D4FF" points="59.0144 109.5248 138.9984 109.5248 138.9984 46.6792 59.0144 46.6792"></polygon>
                        </g>
                    </g>
                    <g id="Background-Object-/-Pluteus-/-4" transform="translate(361.500000, 206.000000) scale(-1, 1) translate(-361.500000, -206.000000) translate(164.000000, 178.000000)">
                        <g id="Group-7" transform="translate(0.200000, 0.000000)">
                            <polygon id="Fill-1" fill="#DCEEFF" points="0 14.22096 338.5416 14.22096 338.5416 0.00016 0 0.00016"></polygon>
                            <polygon id="Fill-2" fill="#CCE3FF" points="338.5416 14.22096 394.236 14.22096 394.236 0.00016 338.5416 0.00016"></polygon>
                            <polygon id="Fill-3" fill="#B6D4FF" points="82.51272 14.22072 108.94952 55.69752 108.94952 14.22072"></polygon>
                            <polygon id="Fill-4" fill="#CCE3FF" points="67.88232 14.22072 94.31912 55.69752 108.94952 55.69752 82.51272 14.22072"></polygon>
                            <polygon id="Fill-5" fill="#B6D4FF" points="276.41376 14.22072 302.85136 55.69752 302.85136 14.22072"></polygon>
                            <polygon id="Fill-6" fill="#CCE3FF" points="261.78336 14.22072 288.22096 55.69752 302.85136 55.69752 276.41376 14.22072"></polygon>
                        </g>
                    </g>
                    <g id="Background-Object-/-Picture-/-6" transform="translate(522.000000, 140.000000) scale(-1, 1) translate(-522.000000, -140.000000) translate(489.000000, 104.000000)">
                        <g id="Group-8" transform="translate(0.200000, 0.000000)">
                            <polygon id="Fill-1" fill="#DCEEFF" points="4.6128 71.38424 65.5072 71.38424 65.5072 0.40024 4.6128 0.40024"></polygon>
                            <polygon id="Stroke-2" stroke="#DCEEFF" stroke-width="4" points="4.6128 71.38424 65.5072 71.38424 65.5072 0.40024 4.6128 0.40024"></polygon>
                            <polygon id="Fill-4" fill="#FFFFFF" points="0.4 71.38424 62.428 71.38424 62.428 0.40024 0.4 0.40024"></polygon>
                            <polygon id="Stroke-5" stroke="#DCEEFF" stroke-width="4" points="0.4 71.38424 62.428 71.38424 62.428 0.40024 0.4 0.40024"></polygon>
                            <polygon id="Fill-7" fill="#CCE3FF" points="15.0816 52.91304 44.888 52.91304 44.888 18.74184 15.0816 18.74184"></polygon>
                        </g>
                    </g>
                    <g id="Background-Object-/-Picture-/-6" transform="translate(200.000000, 140.000000) scale(-1, 1) translate(-200.000000, -140.000000) translate(167.000000, 104.000000)">
                        <g id="Group-8" transform="translate(0.200000, 0.000000)">
                            <polygon id="Fill-1" fill="#DCEEFF" points="4.6128 71.38424 65.5072 71.38424 65.5072 0.40024 4.6128 0.40024"></polygon>
                            <polygon id="Stroke-2" stroke="#DCEEFF" stroke-width="4" points="4.6128 71.38424 65.5072 71.38424 65.5072 0.40024 4.6128 0.40024"></polygon>
                            <polygon id="Fill-4" fill="#FFFFFF" points="0.4 71.38424 62.428 71.38424 62.428 0.40024 0.4 0.40024"></polygon>
                            <polygon id="Stroke-5" stroke="#DCEEFF" stroke-width="4" points="0.4 71.38424 62.428 71.38424 62.428 0.40024 0.4 0.40024"></polygon>
                            <polygon id="Fill-7" fill="#CCE3FF" points="15.0816 52.91304 44.888 52.91304 44.888 18.74184 15.0816 18.74184"></polygon>
                        </g>
                    </g>
                </g>
                <g id="Group-16" transform="translate(1389.600000, 508.000000)">
                    <path d="M130.43352,44.91904 C130.43352,44.91904 69.09432,180.30384 61.77032,327.50384 C61.77032,327.50384 96.10152,178.33504 130.43352,44.91904" id="Fill-1" fill="#DCEEFF"></path>
                    <path d="M20.68424,148.96048 C20.68424,148.96048 64.83384,150.10928 71.55544,297.30928 C71.55544,297.30928 52.71464,186.21168 20.68424,148.96048" id="Fill-3" fill="#DCEEFF"></path>
                    <path d="M65.76784,0.79952 C65.76784,0.79952 91.54064,156.53872 66.17264,315.01232 C66.17264,315.01232 67.67984,149.49712 65.76784,0.79952" id="Fill-5" fill="#DCEEFF"></path>
                    <path d="M100.53352,356.68704 L36.79192,356.68704 C36.31352,356.68704 35.83672,356.67824 35.36152,356.66064 C6.29672,355.57424 -9.87368,318.81104 6.58712,292.28784 L21.18952,268.76144 L116.13592,268.76144 L130.73752,292.28784 C147.19912,318.81104 131.02872,355.57424 101.96392,356.66064 C101.48872,356.67824 101.01272,356.68704 100.53352,356.68704" id="Fill-8" fill="#ECF6FF"></path>
                    <path d="M-8e-05,322.87144 L137.32552,322.87144" id="Stroke-11" stroke="#B6D4FF" stroke-width="7.2"></path>
                    <path d="M3.18736,300.13352 L134.58016,300.13352" id="Stroke-14" stroke="#B6D4FF" stroke-width="7.2"></path>
                </g>
            </g>
        </g>
    </g>
</svg>