<?xml version="1.0" encoding="UTF-8"?>
<svg width="1876px" height="901px" viewBox="0 0 1876 901" version="1.1" xmlns="http://www.w3.org/2000/svg" xmlns:xlink="http://www.w3.org/1999/xlink">
    <!-- Generator: Sketch 55.2 (78181) - https://sketchapp.com -->
    <title>Illustration 13</title>
    <desc>Created with Sketch.</desc>
    <g id="Scene" stroke="none" stroke-width="1" fill="none" fill-rule="evenodd">
        <g id="Illustration-13" transform="translate(-1.000000, 0.000000)">
            <g id="Background">
                <g id="Group-12" transform="translate(1023.400000, 119.000000)">
                    <path d="M286.15872,143.37906 C286.15872,222.23406 222.23412,286.15806 143.37912,286.15806 C64.52412,286.15806 0.59952,222.23406 0.59952,143.37906 C0.59952,64.52406 64.52412,0.60006 143.37912,0.60006 C222.23412,0.60006 286.15872,64.52406 286.15872,143.37906" id="Fill-1" fill="#ECF6FF"></path>
                    <path d="M143.37924,102.11442 L143.37924,394.15182" id="Stroke-4" stroke="#B6D4FF" stroke-width="4.8"></path>
                    <path d="M143.37924,237.52254 L175.16364,205.73874" id="Stroke-6" stroke="#B6D4FF" stroke-width="4.8"></path>
                    <path d="M144.57924,142.11726 L160.94484,125.75166" id="Stroke-8" stroke="#B6D4FF" stroke-width="4.8"></path>
                    <path d="M143.37924,190.10352 L112.91784,159.64272" id="Stroke-10" stroke="#B6D4FF" stroke-width="4.8"></path>
                </g>
                <g id="Group-10" transform="translate(1590.000000, 0.000000)">
                    <path d="M286.0377,247.8296 C286.0377,353.7606 242.2217,449.9706 143.0187,449.9706 C43.8157,449.9706 -0.0003,353.7606 -0.0003,247.8296 C-0.0003,123.5666 74.9647,-0.000400000001 143.0187,-0.000400000001 C211.0727,-0.000400000001 286.0377,123.5666 286.0377,247.8296" id="Fill-1" fill="#ECF6FF"></path>
                    <path d="M143.0192,224.9854 L143.0192,526.6604" id="Stroke-4" stroke="#DCEEFF" stroke-width="8" stroke-linecap="square"></path>
                    <path d="M146.0192,362.8711 L184.7282,319.4071" id="Stroke-6" stroke="#DCEEFF" stroke-width="8" stroke-linecap="square"></path>
                    <path d="M137.3141,303.8643 L98.6041,260.3993" id="Stroke-8" stroke="#DCEEFF" stroke-width="8" stroke-linecap="square"></path>
                </g>
                <g id="Group-14" transform="translate(1426.621164, 102.292800)">
                    <path d="M27.4376796,216.771923 C23.5264246,207.918483 2.08837164,209.417261 2.08528169,184.729946 C2.07971979,147.558579 69.7946743,151.801222 73.7875039,123.793984 C77.7809515,95.7872128 34.2683166,96.4562432 32.9210997,72.8336768 C31.5738828,49.2106432 64.6604182,0.4672 114.860317,0.4672 C154.443775,0.4672 121.658818,38.0777344 153.603927,54.8969344 C185.549654,71.7161344 222.035131,50.1688704 240.092164,76.6170624 C264.96562,113.048384 201.362767,156.801664 207.637832,184.729946 C213.912897,212.658694 251.198052,206.05529 252.339479,236.74192 C253.480287,267.429018 199.318458,272.829382 204.421197,299.143021 C207.637832,315.73049 241.914615,310.192301 243.712346,342.900038 C245.235072,370.592384 127.466065,404.858234 38.9990256,348.506438 C-49.4686315,292.154176 42.3664499,250.563098 27.4376796,216.771923" id="Fill-1" fill="#CCE3FF"></path>
                    <path d="M124.942443,149.694758 L124.942443,421.851839" id="Stroke-4" stroke="#ECF6FF" stroke-width="8" stroke-linecap="square"></path>
                    <path d="M126.796411,333.968202 L173.055391,298.996413" id="Stroke-6" stroke="#ECF6FF" stroke-width="8" stroke-linecap="square"></path>
                    <path d="M127.414401,234.353734 L150.930752,216.575839" id="Stroke-8" stroke="#ECF6FF" stroke-width="8" stroke-linecap="square"></path>
                    <path d="M122.470486,273.933002 L85.5839331,246.046769" id="Stroke-10" stroke="#ECF6FF" stroke-width="8" stroke-linecap="square"></path>
                    <path d="M123.322013,187.832013 L105.399702,174.283213" id="Stroke-12" stroke="#ECF6FF" stroke-width="8" stroke-linecap="square"></path>
                </g>
                <g id="Group-44" transform="translate(530.000000, 466.000000)">
                    <polygon id="Fill-1" fill="#ECF6FF" points="698.0383 370.2872 698.0383 370.2762 679.9283 229.9572 899.4873 229.9572 917.5983 370.2872"></polygon>
                    <g id="Group-43" transform="translate(0.000000, 0.448000)">
                        <g id="Group-4" transform="translate(361.000000, 316.000000)" fill="#B6D4FF">
                            <path d="M117.8976,59.2034 C117.8976,91.6764 91.5736,118.0004 59.1006,118.0004 C26.6286,118.0004 0.3046,91.6764 0.3046,59.2034 C0.3046,26.7304 26.6286,0.4064 59.1006,0.4064 C91.5736,0.4064 117.8976,26.7304 117.8976,59.2034" id="Fill-2"></path>
                        </g>
                        <g id="Group-7" transform="translate(818.000000, 316.000000)" fill="#B6D4FF">
                            <path d="M118.3703,59.2034 C118.3703,91.6764 92.0463,118.0004 59.5733,118.0004 C27.1003,118.0004 0.7763,91.6764 0.7763,59.2034 C0.7763,26.7304 27.1003,0.4064 59.5733,0.4064 C92.0463,0.4064 118.3703,26.7304 118.3703,59.2034" id="Fill-5"></path>
                        </g>
                        <path d="M730.6496,369.8441 L86.3796,369.8441 C47.2996,369.8441 14.2906,340.8231 9.2906,302.0641 L0.000599999999,230.0741 L124.3706,229.5141 L124.3596,229.4641 L90.5806,0.0541 L596.9796,0.0541 L679.2806,227.7341 L679.9296,229.5141 L730.6496,369.8441 Z" id="Fill-8" fill="#CCE3FF"></path>
                        <polygon id="Fill-10" fill="#FFFFFF" points="730.6496 369.8441 578.9506 369.8441 564.7006 330.4341 558.7696 314.0141 528.2296 229.5141 445.2906 0.0541 596.9796 0.0541 679.2806 227.7341 679.9296 229.5141"></polygon>
                        <polygon id="Fill-12" fill="#FFFFFF" points="478.59 229.4642 319.83 229.4642 286.05 0.0542 395.66 0.0542 428.95 92.1532 440.42 123.8732 467.59 199.0332 470.44 206.9032"></polygon>
                        <path d="M773.0099,369.8343 L521.0099,369.8343 L521.0099,229.5143 L672.7329,229.5143 C719.7209,229.5143 759.4029,264.4033 765.4169,311.0063 L773.0099,369.8343 Z" id="Fill-14" fill="#CCE3FF"></path>
                        <polygon id="Fill-16" fill="#CCE3FF" points="813.7004 229.514 813.7004 369.834 773.0104 369.834 754.8994 229.514"></polygon>
                        <g id="Group-20" transform="translate(754.000000, 229.000000)" fill="#ECF6FF">
                            <path d="M19.0099,140.8392 L19.0099,140.8282 L0.8999,0.5092 L152.5939,0.5092 C191.4049,0.5092 224.1789,29.3252 229.1469,67.8172 L238.5709,140.8392 L19.0099,140.8392 Z" id="Fill-18"></path>
                        </g>
                        <path d="M121.0548,371.0404 C121.0548,331.9354 154.3058,300.2344 195.3238,300.2344 C236.3408,300.2344 269.5918,331.9354 269.5918,371.0404 L121.0548,371.0404 Z" id="Fill-21" fill="#FFFFFF"></path>
                        <path d="M578.5266,371.0404 C578.5266,331.9354 611.7776,300.2344 652.7956,300.2344 C693.8126,300.2344 727.0636,331.9354 727.0636,371.0404 L578.5266,371.0404 Z" id="Fill-23" fill="#FFFFFF"></path>
                        <g id="Group-27" transform="translate(593.000000, 316.000000)" fill="#B6D4FF">
                            <path d="M118.592,59.2034 C118.592,91.6764 92.268,118.0004 59.795,118.0004 C27.323,118.0004 0.999,91.6764 0.999,59.2034 C0.999,26.7304 27.323,0.4064 59.795,0.4064 C92.268,0.4064 118.592,26.7304 118.592,59.2034" id="Fill-25"></path>
                        </g>
                        <path d="M967.0324,298.9408 C967.0324,312.9398 957.7854,324.2888 946.3784,324.2888 C934.9704,324.2888 925.7224,312.9398 925.7224,298.9408 C925.7224,284.9408 934.9704,273.5918 946.3784,273.5918 C957.7854,273.5918 967.0324,284.9408 967.0324,298.9408" id="Fill-28" fill="#FFFFFF"></path>
                        <path d="M836.5627,298.9408 C836.5627,312.9398 827.3157,324.2888 815.9077,324.2888 C804.4997,324.2888 795.2527,312.9398 795.2527,298.9408 C795.2527,284.9408 804.4997,273.5918 815.9077,273.5918 C827.3157,273.5918 836.5627,284.9408 836.5627,298.9408" id="Fill-30" fill="#FFFFFF"></path>
                        <g id="Group-34" transform="translate(136.000000, 316.000000)" fill="#B6D4FF">
                            <path d="M118.1193,59.2034 C118.1193,91.6764 91.7963,118.0004 59.3233,118.0004 C26.8503,118.0004 0.5263,91.6764 0.5263,59.2034 C0.5263,26.7304 26.8503,0.4064 59.3233,0.4064 C91.7963,0.4064 118.1193,26.7304 118.1193,59.2034" id="Fill-32"></path>
                        </g>
                        <polygon id="Fill-35" fill="#CCE3FF" points="862.659 309.893 905.649 309.893 905.649 287.989 862.659 287.989"></polygon>
                        <polygon id="Fill-37" fill="#FFFFFF" points="347.1203 229.4642 347.1203 229.4842 235.2903 229.4842 201.5103 0.0542 313.3303 0.0542"></polygon>
                        <polygon id="Fill-38" fill="#FFFFFF" points="193.3097 229.4642 81.4797 229.4642 3.3747 229.5132 94.9137 0.0522 159.5197 0.0542"></polygon>
                        <polyline id="Stroke-39" stroke="#CCE3FF" stroke-width="7" points="679.9279 229.5101 679.2779 227.7311 596.9799 0.0541"></polyline>
                        <path d="M5.048,269.2005 L602.795,269.2005" id="Stroke-40" stroke="#FFFFFF" stroke-width="3"></path>
                        <polyline id="Stroke-41" stroke="#CCE3FF" stroke-width="7" points="3.3752 229.513 94.9142 0.052 595.6282 0.052"></polyline>
                        <path d="M490.4523,217.3822 L422.1443,217.3822 C404.4723,217.3822 390.1443,203.0552 390.1443,185.3822 C390.1443,167.7092 404.4723,153.3822 422.1443,153.3822 L490.4523,153.3822 L490.4523,217.3822 Z" id="Fill-42" fill="#B6D4FF"></path>
                    </g>
                </g>
                <g id="Group-12" transform="translate(0.400000, 251.000000)">
                    <path d="M286.15872,143.37906 C286.15872,222.23406 222.23412,286.15806 143.37912,286.15806 C64.52412,286.15806 0.59952,222.23406 0.59952,143.37906 C0.59952,64.52406 64.52412,0.60006 143.37912,0.60006 C222.23412,0.60006 286.15872,64.52406 286.15872,143.37906" id="Fill-1" fill="#ECF6FF"></path>
                    <path d="M143.37924,102.11442 L143.37924,394.15182" id="Stroke-4" stroke="#B6D4FF" stroke-width="4.8"></path>
                    <path d="M143.37924,237.52254 L175.16364,205.73874" id="Stroke-6" stroke="#B6D4FF" stroke-width="4.8"></path>
                    <path d="M144.57924,142.11726 L160.94484,125.75166" id="Stroke-8" stroke="#B6D4FF" stroke-width="4.8"></path>
                    <path d="M143.37924,190.10352 L112.91784,159.64272" id="Stroke-10" stroke="#B6D4FF" stroke-width="4.8"></path>
                </g>
                <g id="Group-12" transform="translate(260.800000, 186.400000)">
                    <path d="M197.87394,245.50806 C197.87394,313.49406 153.47994,344.00406 98.93454,344.00406 C44.39394,344.00406 -6e-05,313.49406 -6e-05,245.50806 C-6e-05,118.86606 53.99394,0.60006 98.93454,0.60006 C143.87994,0.60006 197.87394,118.86606 197.87394,245.50806" id="Fill-1" fill="#ECF6FF"></path>
                    <path d="M98.93724,135.4365 L98.93724,400.4331" id="Stroke-4" stroke="#CCE3FF" stroke-width="4.8" stroke-linecap="square"></path>
                    <path d="M100.73724,299.3865 L137.47884,262.6443" id="Stroke-6" stroke="#CCE3FF" stroke-width="4.8" stroke-linecap="square"></path>
                    <path d="M100.13724,181.17768 L122.96844,158.34648" id="Stroke-8" stroke="#CCE3FF" stroke-width="4.8" stroke-linecap="square"></path>
                    <path d="M97.73724,245.73162 L63.86364,211.85802" id="Stroke-10" stroke="#CCE3FF" stroke-width="4.8" stroke-linecap="square"></path>
                </g>
            </g>
        </g>
    </g>
</svg>