<?xml version="1.0" encoding="UTF-8"?>
<svg width="2005px" height="1069px" viewBox="0 0 2005 1069" version="1.1" xmlns="http://www.w3.org/2000/svg" xmlns:xlink="http://www.w3.org/1999/xlink">
    <!-- Generator: Sketch 55.2 (78181) - https://sketchapp.com -->
    <title>Illustration 3</title>
    <desc>Created with Sketch.</desc>
    <g id="Scene" stroke="none" stroke-width="1" fill="none" fill-rule="evenodd">
        <g id="Illustration-3" transform="translate(-67.000000, 2.000000)">
            <g id="Background">
                <g id="Background-Object-/-Sofa-/-2" transform="translate(640.000000, 897.500000) scale(-1, 1) translate(-640.000000, -897.500000) translate(136.000000, 732.000000)">
                    <g id="Group-24" transform="translate(0.800000, 0.200000)">
                        <path d="M352.82096,277.82192 L941.97616,277.82192 C954.50256,277.82192 965.20896,268.80592 967.34176,256.46352 L1006.44656,30.12352 C1009.16576,14.38832 997.04976,0.00032 981.08176,0.00032 L391.92576,0.00032 C379.40096,0.00032 368.69376,9.01632 366.56096,21.35872 L327.45536,247.69872 C324.73696,263.43392 336.85216,277.82192 352.82096,277.82192" id="Fill-1" fill="#B6D4FF"></path>
                        <path d="M296.51232,277.82192 L883.12752,277.82192 C895.65312,277.82192 906.36032,268.80592 908.49312,256.46352 L947.59792,30.12352 C950.31632,14.38832 938.20112,0.00032 922.23232,0.00032 L335.61792,0.00032 C323.09232,0.00032 312.38512,9.01632 310.25232,21.35872 L271.14672,247.69872 C268.42912,263.43392 280.54352,277.82192 296.51232,277.82192" id="Fill-3" fill="#DCEEFF"></path>
                        <path d="M694.65376,277.82192 L940.88816,277.82192 C953.46016,277.82192 963.65136,267.63072 963.65136,255.05872 L963.65136,202.59792 C963.65136,190.02672 953.46016,179.83552 940.88816,179.83552 L694.65376,179.83552 C682.08176,179.83552 671.89056,190.02672 671.89056,202.59792 L671.89056,255.05872 C671.89056,267.63072 682.08176,277.82192 694.65376,277.82192" id="Fill-5" fill="#B6D4FF"></path>
                        <path d="M911.63104,277.82192 L911.63104,329.80592" id="Stroke-7" stroke="#CCE3FF" stroke-width="8"></path>
                        <path d="M728.9436,277.82192 L728.9436,329.80592" id="Stroke-9" stroke="#CCE3FF" stroke-width="8"></path>
                        <path d="M239.74048,277.82192 L239.74048,329.80592" id="Stroke-11" stroke="#CCE3FF" stroke-width="8"></path>
                        <path d="M57.05296,277.82192 L57.05296,329.80592" id="Stroke-13" stroke="#CCE3FF" stroke-width="8"></path>
                        <path d="M31.33112,277.82192 L753.74952,277.82192 C771.05352,277.82192 785.08072,263.79472 785.08072,246.49072 L785.08072,211.16592 C785.08072,193.86272 771.05352,179.83552 753.74952,179.83552 L31.33112,179.83552 C14.02712,179.83552 -8e-05,193.86272 -8e-05,211.16592 L-8e-05,246.49072 C-8e-05,263.79472 14.02712,277.82192 31.33112,277.82192" id="Fill-15" fill="#CCE3FF"></path>
                        <path d="M716.32952,179.8352 L791.04792,179.8352 C805.72072,179.8352 818.35512,169.4808 821.23672,155.0936 L832.90312,96.8504 C836.71912,77.796 822.14632,60.0152 802.71432,60.0152 L727.99592,60.0152 C713.32312,60.0152 700.68872,70.3696 697.80792,84.7568 L686.14152,143 C682.32472,162.0536 696.89752,179.8352 716.32952,179.8352" id="Fill-18" fill="#B6D4FF"></path>
                        <path d="M289.62168,179.8352 L364.34008,179.8352 C379.01288,179.8352 391.64728,169.4808 394.52888,155.0936 L406.19528,96.8504 C410.01128,77.796 395.43848,60.0152 376.00648,60.0152 L301.28808,60.0152 C286.61528,60.0152 273.98088,70.3696 271.10008,84.7568 L259.43368,143 C255.61688,162.0536 270.18968,179.8352 289.62168,179.8352" id="Fill-20" fill="#B6D4FF"></path>
                        <path d="M611.52952,179.8352 L686.24792,179.8352 C700.92072,179.8352 713.55512,169.4808 716.43672,155.0936 L728.10312,96.8504 C731.91912,77.796 717.34632,60.0152 697.91432,60.0152 L623.19592,60.0152 C608.52312,60.0152 595.88872,70.3696 593.00792,84.7568 L581.34152,143 C577.52472,162.0536 592.09752,179.8352 611.52952,179.8352" id="Fill-22" fill="#CCE3FF"></path>
                    </g>
                </g>
                <g id="Group-23" transform="translate(1454.000000, 125.000000)">
                    <polygon id="Fill-1" fill="#DCEEFF" points="392.7334 0.5 382.3294 104.399 245.7284 104.399 256.1324 0.5"></polygon>
                    <polygon id="Stroke-2" stroke="#DCEEFF" stroke-width="5" points="392.7334 0.5 382.3294 104.399 245.7284 104.399 256.1324 0.5"></polygon>
                    <polygon id="Fill-4" fill="#FFFFFF" points="389.6768 0.5 379.2728 104.399 240.1308 104.399 250.5358 0.5"></polygon>
                    <polygon id="Stroke-5" stroke="#DCEEFF" stroke-width="5" points="389.6768 0.5 379.2728 104.399 240.1308 104.399 250.5358 0.5"></polygon>
                    <polygon id="Fill-7" fill="#CCE3FF" points="360.3398 20.8823 354.0178 84.0173 269.4688 84.0173 275.7908 20.8823"></polygon>
                    <polygon id="Fill-8" fill="#DCEEFF" points="105.024 107.219 123.588 107.219 123.588 34.706 105.024 34.706"></polygon>
                    <polygon id="Fill-9" fill="#CCE3FF" points="86.459 107.219 105.023 107.219 105.023 34.706 86.459 34.706"></polygon>
                    <polygon id="Fill-10" fill="#CCE3FF" points="123.588 107.219 142.151 107.219 142.151 34.706 123.588 34.706"></polygon>
                    <path d="M190.664,107.2187 L142.151,107.2187 L142.151,34.7057 L190.664,34.7057 C193.497,34.7057 195.793,37.0017 195.793,39.8347 L195.793,102.0907 C195.793,104.9227 193.497,107.2187 190.664,107.2187" id="Fill-11" fill="#B6D4FF"></path>
                    <polygon id="Fill-13" fill="#CCE3FF" points="150.101 52.45 187.844 52.45 187.844 45.27 150.101 45.27"></polygon>
                    <polygon id="Fill-15" fill="#CCE3FF" points="158.511 63.526 179.434 63.526 179.434 56.347 158.511 56.347"></polygon>
                    <polygon id="Fill-16" fill="#DCEEFF" points="0 124.995 423.178 124.995 423.178 107.219 0 107.219"></polygon>
                    <polygon id="Fill-17" fill="#CCE3FF" points="423.178 124.995 492.795 124.995 492.795 107.219 423.178 107.219"></polygon>
                    <polygon id="Fill-18" fill="#B6D4FF" points="103.1406 124.9951 136.1876 176.8411 136.1876 124.9951"></polygon>
                    <polygon id="Fill-19" fill="#CCE3FF" points="84.8525 124.9951 117.8995 176.8411 136.1875 176.8411 103.1405 124.9951"></polygon>
                    <polygon id="Fill-20" fill="#B6D4FF" points="345.5176 124.9951 378.5646 176.8411 378.5646 124.9951"></polygon>
                    <polygon id="Fill-21" fill="#CCE3FF" points="327.2295 124.9951 360.2765 176.8411 378.5645 176.8411 345.5175 124.9951"></polygon>
                </g>
                <g id="Group-14" transform="translate(1447.000000, 716.400000)">
                    <polygon id="Fill-1" fill="#B6D4FF" points="384.65064 272.48792 414.84584 343.45032 428.53864 343.45032 410.37304 269.00952"></polygon>
                    <polygon id="Fill-2" fill="#B6D4FF" points="230.4 272.48792 260.5944 343.45032 274.2872 343.45032 256.1216 269.00952"></polygon>
                    <polygon id="Fill-3" fill="#B6D4FF" points="0 343.4504 13.6928 343.4504 43.8872 272.488 18.1656 269.0096"></polygon>
                    <polygon id="Fill-4" fill="#B6D4FF" points="154.25064 343.4504 167.94344 343.4504 198.13864 272.488 172.41624 269.0096"></polygon>
                    <path d="M16.83768,106.41608 L16.83768,278.24008 L195.40808,278.62168 L224.77368,108.65288 L16.83768,106.41608 Z M30.43768,120.16328 L208.65288,122.08008 L183.96008,264.99768 L30.43768,264.66968 L30.43768,120.16328 Z" id="Fill-5" fill="#B6D4FF"></path>
                    <polygon id="Fill-6" fill="#CCE3FF" points="251.16624 0.79952 203.16704 278.62192 412.56624 278.62192 460.56704 0.79952"></polygon>
                    <polygon id="Fill-7" fill="#DCEEFF" points="194.85792 0.79952 146.85792 278.62192 353.71792 278.62192 401.71792 0.79952"></polygon>
                    <path d="M143.56888,278.62192 L389.80408,278.62192 C402.37528,278.62192 412.56648,268.43072 412.56648,255.85872 L412.56648,203.39792 C412.56648,190.82592 402.37528,180.63472 389.80408,180.63472 L143.56888,180.63472 C130.99688,180.63472 120.80568,190.82592 120.80568,203.39792 L120.80568,255.85872 C120.80568,268.43072 130.99688,278.62192 143.56888,278.62192" id="Fill-8" fill="#CCE3FF"></path>
                    <polygon id="Fill-10" fill="#DCEEFF" points="15.9128 278.6216 233.996 278.6216 233.996 180.6344 15.9128 180.6344"></polygon>
                    <path d="M233.99624,106.41608 L233.99624,278.24008 L412.56664,278.62168 L441.93304,108.65288 L233.99624,106.41608 Z M247.59624,120.16328 L425.81144,122.08008 L401.11864,264.99768 L247.59624,264.66968 L247.59624,120.16328 Z" id="Fill-12" fill="#B6D4FF"></path>
                </g>
                <g id="Group-8" transform="translate(1162.000000, 192.000000)">
                    <polygon id="Fill-1" fill="#DCEEFF" points="5.766 89.2303 81.884 89.2303 81.884 0.5003 5.766 0.5003"></polygon>
                    <polygon id="Stroke-2" stroke="#DCEEFF" stroke-width="5" points="5.766 89.2303 81.884 89.2303 81.884 0.5003 5.766 0.5003"></polygon>
                    <polygon id="Fill-4" fill="#FFFFFF" points="0.5 89.2303 78.035 89.2303 78.035 0.5003 0.5 0.5003"></polygon>
                    <polygon id="Stroke-5" stroke="#DCEEFF" stroke-width="5" points="0.5 89.2303 78.035 89.2303 78.035 0.5003 0.5 0.5003"></polygon>
                    <polygon id="Fill-7" fill="#CCE3FF" points="18.852 66.1413 56.11 66.1413 56.11 23.4273 18.852 23.4273"></polygon>
                </g>
                <g id="Group-16" transform="translate(1934.600000, 710.000000)">
                    <path d="M130.43352,44.91904 C130.43352,44.91904 69.09432,180.30384 61.77032,327.50384 C61.77032,327.50384 96.10152,178.33504 130.43352,44.91904" id="Fill-1" fill="#DCEEFF"></path>
                    <path d="M20.68424,148.96048 C20.68424,148.96048 64.83384,150.10928 71.55544,297.30928 C71.55544,297.30928 52.71464,186.21168 20.68424,148.96048" id="Fill-3" fill="#DCEEFF"></path>
                    <path d="M65.76784,0.79952 C65.76784,0.79952 91.54064,156.53872 66.17264,315.01232 C66.17264,315.01232 67.67984,149.49712 65.76784,0.79952" id="Fill-5" fill="#DCEEFF"></path>
                    <path d="M100.53352,356.68704 L36.79192,356.68704 C36.31352,356.68704 35.83672,356.67824 35.36152,356.66064 C6.29672,355.57424 -9.87368,318.81104 6.58712,292.28784 L21.18952,268.76144 L116.13592,268.76144 L130.73752,292.28784 C147.19912,318.81104 131.02872,355.57424 101.96392,356.66064 C101.48872,356.67824 101.01272,356.68704 100.53352,356.68704" id="Fill-8" fill="#ECF6FF"></path>
                    <path d="M-8e-05,322.87144 L137.32552,322.87144" id="Stroke-11" stroke="#B6D4FF" stroke-width="7.2"></path>
                    <path d="M3.18736,300.13352 L134.58016,300.13352" id="Stroke-14" stroke="#B6D4FF" stroke-width="7.2"></path>
                </g>
                <g id="Group-8" transform="translate(1042.000000, 0.000000)">
                    <polygon id="Fill-1" fill="#DCEEFF" points="11.971 165.94 207.049 165.94 207.049 0.5 11.971 0.5"></polygon>
                    <polygon id="Stroke-2" stroke="#DCEEFF" stroke-width="5" points="11.971 165.94 207.049 165.94 207.049 0.5 11.971 0.5"></polygon>
                    <polygon id="Fill-4" fill="#FFFFFF" points="0.5 166.162 195.578 166.162 195.578 0.722 0.5 0.722"></polygon>
                    <polygon id="Stroke-5" stroke="#DCEEFF" stroke-width="5" points="0.5 166.162 195.578 166.162 195.578 0.722 0.5 0.722"></polygon>
                    <polygon id="Fill-7" fill="#DCEEFF" points="33.726 131.983 159.573 131.983 159.573 34.457 33.726 34.457"></polygon>
                </g>
                <g id="Background-Object-/-Pluteus-/-2" transform="translate(313.500000, 341.500000) scale(-1, 1) translate(-313.500000, -341.500000) translate(67.000000, 267.000000)">
                    <g id="Group-21">
                        <path d="M460.5146,36.4915 C457.0356,65.6915 432.1816,88.3455 402.0406,88.3455 C371.8996,88.3455 347.0456,65.6915 343.5666,36.4915 L460.5146,36.4915 Z" id="Fill-1" fill="#ECF6FF"></path>
                        <g id="Group-5" transform="translate(117.000000, 0.924000)" fill="#ECF6FF">
                            <path d="M117.125,0.0758 C113.646,29.2758 88.792,51.9298 58.65,51.9298 C28.51,51.9298 3.656,29.2758 0.177,0.0758 L117.125,0.0758 Z" id="Fill-3"></path>
                        </g>
                        <path d="M234.125,36.4915 C230.646,65.6915 205.792,88.3455 175.65,88.3455 C145.51,88.3455 120.656,65.6915 117.177,36.4915 L234.125,36.4915 Z" id="Fill-6" fill="#ECF6FF"></path>
                        <polygon id="Fill-8" fill="#DCEEFF" points="270.8193 44.7151 318.5643 44.7151 305.7083 87.0051 283.6753 87.0051"></polygon>
                        <polygon id="Fill-10" fill="#DCEEFF" points="39.4346 44.7151 87.1796 44.7151 74.3236 87.0051 52.2906 87.0051"></polygon>
                        <polygon id="Fill-12" fill="#DCEEFF" points="270.8193 17.0994 318.5643 17.0994 305.7083 59.3904 283.6753 59.3904"></polygon>
                        <polygon id="Fill-14" fill="#DCEEFF" points="0 97.078 423.178 97.078 423.178 79.302 0 79.302"></polygon>
                        <polygon id="Fill-16" fill="#CCE3FF" points="423.178 97.078 492.795 97.078 492.795 79.302 423.178 79.302"></polygon>
                        <polygon id="Fill-17" fill="#B6D4FF" points="103.1406 97.0784 136.1876 148.9244 136.1876 97.0784"></polygon>
                        <polygon id="Fill-18" fill="#CCE3FF" points="84.8525 97.0784 117.8995 148.9244 136.1875 148.9244 103.1405 97.0784"></polygon>
                        <polygon id="Fill-19" fill="#B6D4FF" points="345.5176 97.0784 378.5646 148.9244 378.5646 97.0784"></polygon>
                        <polygon id="Fill-20" fill="#CCE3FF" points="327.2295 97.0784 360.2765 148.9244 378.5645 148.9244 345.5175 97.0784"></polygon>
                    </g>
                </g>
            </g>
        </g>
    </g>
</svg>