<?xml version="1.0" encoding="UTF-8"?>
<svg width="1251px" height="1073px" viewBox="0 0 1251 1073" version="1.1" xmlns="http://www.w3.org/2000/svg" xmlns:xlink="http://www.w3.org/1999/xlink">
    <!-- Generator: Sketch 55.2 (78181) - https://sketchapp.com -->
    <title>Illustration 8</title>
    <desc>Created with Sketch.</desc>
    <g id="Scene" stroke="none" stroke-width="1" fill="none" fill-rule="evenodd">
        <g id="Illustration-8" transform="translate(-472.000000, -142.000000)">
            <g id="Background" transform="translate(472.000000, 0.000000)">
                <g id="Group-12" transform="translate(869.200000, 505.000000)">
                    <path d="M381.54496,191.17208 C381.54496,296.31208 296.31216,381.54408 191.17216,381.54408 C86.03216,381.54408 0.79936,296.31208 0.79936,191.17208 C0.79936,86.03208 86.03216,0.80008 191.17216,0.80008 C296.31216,0.80008 381.54496,86.03208 381.54496,191.17208" id="Fill-1" fill="#ECF6FF"></path>
                    <path d="M191.17232,136.15256 L191.17232,525.53576" id="Stroke-4" stroke="#B6D4FF" stroke-width="6.4"></path>
                    <path d="M191.17232,316.69672 L233.55152,274.31832" id="Stroke-6" stroke="#B6D4FF" stroke-width="6.4"></path>
                    <path d="M192.77232,189.48968 L214.59312,167.66888" id="Stroke-8" stroke="#B6D4FF" stroke-width="6.4"></path>
                    <path d="M191.17232,253.47136 L150.55712,212.85696" id="Stroke-10" stroke="#B6D4FF" stroke-width="6.4"></path>
                </g>
                <g id="Group-12" transform="translate(151.000000, 386.800000)">
                    <path d="M275.37568,416.14392 C275.37568,507.77592 215.57568,558.89592 137.68848,558.89592 C59.79968,558.89592 -0.00032,507.77592 -0.00032,416.14392 C-0.00032,223.21592 87.88048,0.79992 137.68848,0.79992 C187.49568,0.79992 275.37568,223.21592 275.37568,416.14392" id="Fill-1" fill="#CCE3FF"></path>
                    <path d="M137.68816,279.84784 L137.68816,702.78384" id="Stroke-4" stroke="#ECF6FF" stroke-width="6.4" stroke-linecap="square"></path>
                    <path d="M139.33352,503.89624 L188.06552,455.16424" id="Stroke-6" stroke="#ECF6FF" stroke-width="6.4" stroke-linecap="square"></path>
                    <path d="M133.60848,411.04584 L93.73168,371.16904" id="Stroke-8" stroke="#ECF6FF" stroke-width="6.4" stroke-linecap="square"></path>
                    <path d="M140.08816,348.57864 L170.52976,318.13624" id="Stroke-10" stroke="#ECF6FF" stroke-width="6.4" stroke-linecap="square"></path>
                </g>
                <g id="Group-17" transform="translate(206.000000, 816.000000)">
                    <polygon id="Fill-1" fill="#CCE3FF" points="708.0219 201.2463 750.4589 398.9253 778.5319 398.9253 736.0949 201.2463"></polygon>
                    <polygon id="Fill-2" fill="#D7EBFF" points="25.785 201.245 752.422 201.245 752.422 170.666 25.785 170.666"></polygon>
                    <polygon id="Fill-3" fill="#D7EBFF" points="598.347 311.987 740.018 311.987 740.018 281.407 598.347 281.407"></polygon>
                    <polygon id="Fill-4" fill="#CCE3FF" points="175.9212 0 144.0752 170.666 182.5062 170.666 214.3522 0"></polygon>
                    <polygon id="Fill-5" fill="#CCE3FF" points="729.8244 0 697.9784 170.666 736.4084 170.666 768.2544 0"></polygon>
                    <polygon id="Fill-6" fill="#B6D4FF" points="582.025 201.246 752.422 201.246 752.422 170.667 582.025 170.667"></polygon>
                    <polygon id="Fill-7" fill="#CCE3FF" points="806.5814 111.25 800.8844 141.836 762.4474 141.836 768.1554 111.25"></polygon>
                    <polygon id="Fill-8" fill="#D7EBFF" points="768.1556 111.25 762.4476 141.836 115.7106 141.836 121.4186 111.25"></polygon>
                    <polygon id="Fill-9" fill="#CCE3FF" points="816.9573 55.627 811.2603 86.202 772.8233 86.202 778.5313 55.627"></polygon>
                    <polygon id="Fill-10" fill="#D7EBFF" points="778.5316 55.627 772.8236 86.202 126.0866 86.202 131.7946 55.627"></polygon>
                    <polygon id="Fill-11" fill="#CCE3FF" points="788.9067 0.0036 783.2107 30.5796 821.6357 30.5796 827.3327 0.0036"></polygon>
                    <polygon id="Fill-12" fill="#D7EBFF" points="142.1802 0.0036 136.4722 30.5796 783.2102 30.5796 788.9072 0.0036"></polygon>
                    <polygon id="Fill-13" fill="#CCE3FF" points="598.347 201.2463 555.91 398.9253 583.984 398.9253 626.42 201.2463"></polygon>
                    <polygon id="Fill-14" fill="#CCE3FF" points="152.1117 201.2454 194.5487 398.9244 222.6207 398.9244 180.1847 201.2454"></polygon>
                    <polygon id="Fill-15" fill="#D7EBFF" points="42.436 311.986 184.108 311.986 184.108 281.407 42.436 281.407"></polygon>
                    <polygon id="Fill-16" fill="#CCE3FF" points="42.4359 201.2454 -0.0001 398.9244 28.0739 398.9244 70.5089 201.2454"></polygon>
                </g>
                <g id="Group-10" transform="translate(0.200000, 606.200000)">
                    <path d="M228.83016,199.06368 C228.83016,283.80848 193.77736,360.77648 114.41496,360.77648 C35.05256,360.77648 -0.00024,283.80848 -0.00024,199.06368 C-0.00024,99.65328 59.97176,0.79968 114.41496,0.79968 C168.85816,0.79968 228.83016,99.65328 228.83016,199.06368" id="Fill-1" fill="#ECF6FF"></path>
                    <path d="M114.41536,180.78832 L114.41536,422.12832" id="Stroke-4" stroke="#DCEEFF" stroke-width="6.4" stroke-linecap="square"></path>
                    <path d="M116.81536,291.09688 L147.78256,256.32568" id="Stroke-6" stroke="#DCEEFF" stroke-width="6.4" stroke-linecap="square"></path>
                    <path d="M109.85128,243.89144 L78.88328,209.11944" id="Stroke-8" stroke="#DCEEFF" stroke-width="6.4" stroke-linecap="square"></path>
                </g>
                <g id="Group-13" transform="translate(1122.000000, 142.000000)">
                    <path d="M62.7844,36.9655 L53.2474,36.9655 C48.6594,36.9655 44.9394,40.6845 44.9394,45.2735 L44.9394,733.0755 L71.0924,733.0755 L71.0924,45.2735 C71.0924,40.6845 67.3724,36.9655 62.7844,36.9655" id="Fill-1" fill="#D7EBFF"></path>
                    <polygon id="Fill-3" fill="#CCE3FF" points="37.096 796.341 78.937 796.341 78.937 725.406 37.096 725.406"></polygon>
                    <polygon id="Fill-5" fill="#D7EBFF" points="25.739 964.991 90.292 964.991 90.292 757.678 25.739 757.678"></polygon>
                    <path d="M84.9231,937.527 L31.1101,937.527 C20.2341,937.527 11.4171,946.343 11.4171,957.219 L11.4171,965.871 L104.6141,965.871 L104.6141,957.219 C104.6141,946.343 95.7981,937.527 84.9231,937.527" id="Fill-6" fill="#CCE3FF"></path>
                    <path d="M90.2873,755.7277 L25.7453,755.7277 C20.3953,755.7277 16.0583,760.0637 16.0583,765.4137 L16.0583,766.6067 C16.0583,771.9567 20.3953,776.2927 25.7453,776.2927 L90.2873,776.2927 C95.6373,776.2927 99.9733,771.9567 99.9733,766.6067 L99.9733,765.4137 C99.9733,760.0637 95.6373,755.7277 90.2873,755.7277" id="Fill-7" fill="#CCE3FF"></path>
                    <path d="M58.0158,-0.0003 L58.0158,-0.0003 C48.4008,-0.0003 40.6058,7.7947 40.6058,17.4097 L40.6058,19.5557 C40.6058,29.1707 48.4008,36.9657 58.0158,36.9657 C67.6318,36.9657 75.4258,29.1707 75.4258,19.5557 L75.4258,17.4097 C75.4258,7.7947 67.6318,-0.0003 58.0158,-0.0003" id="Fill-8" fill="#CCE3FF"></path>
                    <path d="M83.7551,203.0294 L32.2771,203.0294 C26.9281,203.0294 22.5911,207.3654 22.5911,212.7154 L22.5911,213.9084 C22.5911,219.2584 26.9281,223.5944 32.2771,223.5944 L83.7551,223.5944 C89.1041,223.5944 93.4411,219.2584 93.4411,213.9084 L93.4411,212.7154 C93.4411,207.3654 89.1041,203.0294 83.7551,203.0294" id="Fill-9" fill="#CCE3FF"></path>
                    <path d="M76.7268,223.5944 L39.3048,223.5944 C35.7928,223.5944 32.9458,226.4414 32.9458,229.9534 L32.9458,230.7374 C32.9458,234.2484 35.7928,237.0954 39.3048,237.0954 L76.7268,237.0954 C80.2398,237.0954 83.0858,234.2484 83.0858,230.7374 L83.0858,229.9534 C83.0858,226.4414 80.2398,223.5944 76.7268,223.5944" id="Fill-10" fill="#CCE3FF"></path>
                    <polygon id="Fill-11" fill="#ECF6FF" points="107.4465 66.7633 79.1735 203.0283 36.8715 203.0283 8.5855 66.7633"></polygon>
                    <polygon id="Fill-12" fill="#CCE3FF" points="116.0324 73.9855 103.6354 49.5955 12.3964 49.5955 0.0004 73.9855"></polygon>
                </g>
            </g>
        </g>
    </g>
</svg>