<?xml version="1.0" encoding="UTF-8"?>
<svg width="1600px" height="1200px" viewBox="0 0 1600 1200" version="1.1" xmlns="http://www.w3.org/2000/svg" xmlns:xlink="http://www.w3.org/1999/xlink">
    <!-- Generator: Sketch 55.2 (78181) - https://sketchapp.com -->
    <title>Waimakariri Copy</title>
    <desc>Created with Sketch.</desc>
    <g id="Waimakariri-Copy" stroke="none" stroke-width="1" fill="none" fill-rule="evenodd">
        <rect fill="#FFFFFF" x="0" y="0" width="1600" height="1200"></rect>
        <rect id="Background" fill="#E0E7EE" fill-rule="nonzero" x="0" y="0" width="1600" height="1200"></rect>
        <g id="Waimakariri" transform="translate(-246.000000, -593.000000)" fill-rule="nonzero">
            <path d="M1046.84156,1586.20185 C1285.86291,1600.75114 1459.03464,1414.84777 1479.62801,1154.64626 C1500.22138,894.44475 1285.86291,687.009571 1046.84156,723.090668 C807.820195,759.171765 631.918651,907.212497 614.055099,1154.64626 C596.191547,1402.08002 807.820195,1571.65256 1046.84156,1586.20185 Z" id="Shape" fill="#FAFAFA" transform="translate(1047.000000, 1153.000000) rotate(39.000000) translate(-1047.000000, -1153.000000) "></path>
            <path d="M1770.34062,787 C1877.2625,767.625 1971.84062,697.009235 1971.84062,586 C1971.84062,474.990765 1881.626,385 1770.34062,385 C1659.05525,385 1586.47344,486.492187 1568.84062,586 C1551.20781,685.507812 1663.41875,806.375 1770.34062,787 Z" id="Shape" fill="#F73859" transform="translate(1769.420312, 587.032136) rotate(39.000000) translate(-1769.420312, -587.032136) "></path>
            <path d="M1670.91932,1217 C1823.46827,1217 1922.68429,1339.38297 1947.13363,1493.15936 C1971.58296,1646.93576 1947.13363,1826.50573 1947.13363,1972.84064 C1947.13363,2119.17555 1833.24021,2249 1670.91932,2249 C1508.59844,2249 1378.40635,2119.46464 1394.70502,1972.84064 C1411.00368,1826.21663 1378.40635,1651.42206 1394.70502,1493.15936 C1411.00368,1334.89666 1518.37038,1217 1670.91932,1217 Z" id="Shape" fill="#FAFAFA" transform="translate(1674.000000, 1733.000000) rotate(39.000000) translate(-1674.000000, -1733.000000) "></path>
            <path d="M444.98574,2052.28409 C566.626365,2052.28409 655.48574,1958.04003 655.48574,1841.78409 C655.48574,1725.52815 552.337302,1616.90909 444.98574,1631.28409 C337.634177,1645.65909 218.282615,1714.69034 234.48574,1841.78409 C250.688865,1968.87784 323.345115,2052.28409 444.98574,2052.28409 Z" id="Shape" fill="#F73859" transform="translate(444.242870, 1841.142044) rotate(39.000000) translate(-444.242870, -1841.142044) "></path>
            <path d="M1359.98574,1765.28409 C1481.62636,1765.28409 1570.48574,1671.04003 1570.48574,1554.78409 C1570.48574,1438.52815 1467.3373,1329.90909 1359.98574,1344.28409 C1252.63418,1358.65909 1133.28261,1427.69034 1149.48574,1554.78409 C1165.68886,1681.87784 1238.34511,1765.28409 1359.98574,1765.28409 Z" id="Shape-Copy" fill="#F73859" transform="translate(1359.242870, 1554.142044) rotate(39.000000) translate(-1359.242870, -1554.142044) "></path>
            <path d="M741.235616,1693 C779.81643,1693 808,1663.09429 808,1626.20373 C808,1589.31318 775.284362,1554.84597 741.235616,1559.40747 C707.186871,1563.96897 669.33208,1585.8741 674.471233,1626.20373 C679.610386,1666.53337 702.654802,1693 741.235616,1693 Z" id="Shape" fill="#E0436B" transform="translate(741.000000, 1626.000000) rotate(39.000000) translate(-741.000000, -1626.000000) "></path>
            <path d="M323.154733,716 C348.491387,716 367,696.360431 367,672.133796 C367,647.90716 345.515103,625.271978 323.154733,628.267592 C300.794363,631.263205 275.9345,645.648663 279.309466,672.133796 C282.684432,698.618928 297.818079,716 323.154733,716 Z" id="Shape" fill="#F73859" transform="translate(323.000000, 672.000000) rotate(39.000000) translate(-323.000000, -672.000000) "></path>
            <path d="M841.991968,1630.95954 C854.108258,1631.69706 862.886549,1622.27339 863.930452,1609.08345 C864.974356,1595.89351 854.108258,1585.37837 841.991968,1587.20736 C829.875678,1589.03636 820.95901,1596.54073 820.053484,1609.08345 C819.147959,1621.62618 829.875678,1630.22202 841.991968,1630.95954 Z" id="Shape" fill="#E0436B" transform="translate(842.000000, 1609.000000) rotate(156.000000) translate(-842.000000, -1609.000000) "></path>
            <path d="M780.154733,981 C805.491387,981 824,961.360431 824,937.133796 C824,912.90716 802.515103,890.271978 780.154733,893.267592 C757.794363,896.263205 732.9345,910.648663 736.309466,937.133796 C739.684432,963.618928 754.818079,981 780.154733,981 Z" id="Shape" fill="#00CC99" transform="translate(780.000000, 937.000000) rotate(39.000000) translate(-780.000000, -937.000000) "></path>
            <path d="M863.070333,979 C874.586994,979 883,970.072923 883,959.060816 C883,948.048709 873.234138,937.75999 863.070333,939.121633 C852.906529,940.483275 841.606591,947.02212 843.140667,959.060816 C844.674742,971.099513 851.553672,979 863.070333,979 Z" id="Shape" fill="#00CC99" transform="translate(863.000000, 959.000000) rotate(39.000000) translate(-863.000000, -959.000000) "></path>
            <path d="M1241.32668,1864 C1283.20204,1864 1308.58957,1801.0246 1314.47246,1750.27985 C1320.35536,1699.5351 1276.23233,1653.20854 1222.23623,1658.39836 C1168.24013,1663.58817 1130,1699.5351 1130,1750.27985 C1130,1801.0246 1199.45132,1864 1241.32668,1864 Z" id="Shape" fill="#FAFAFA" transform="translate(1222.500000, 1761.000000) rotate(39.000000) translate(-1222.500000, -1761.000000) "></path>
            <path d="M386.991968,1093.95954 C399.108258,1094.69706 407.886549,1085.27339 408.930452,1072.08345 C409.974356,1058.89351 399.108258,1048.37837 386.991968,1050.20736 C374.875678,1052.03636 365.95901,1059.54073 365.053484,1072.08345 C364.147959,1084.62618 374.875678,1093.22202 386.991968,1093.95954 Z" id="Shape" fill="#F73859" transform="translate(387.000000, 1072.000000) rotate(39.000000) translate(-387.000000, -1072.000000) "></path>
            <path d="M1642.99197,1596.95954 C1655.10826,1597.69706 1663.88655,1588.27339 1664.93045,1575.08345 C1665.97436,1561.89351 1655.10826,1551.37837 1642.99197,1553.20736 C1630.87568,1555.03636 1621.95901,1562.54073 1621.05348,1575.08345 C1620.14796,1587.62618 1630.87568,1596.22202 1642.99197,1596.95954 Z" id="Shape" fill="#FAFAFA" transform="translate(1643.000000, 1575.000000) rotate(39.000000) translate(-1643.000000, -1575.000000) "></path>
            <path d="M1829.97554,990.876783 C1866.87515,993.122872 1893.60903,964.423503 1896.7882,924.254146 C1899.96736,884.084789 1866.87515,852.061385 1829.97554,857.631509 C1793.07593,863.201632 1765.92062,886.055846 1763.16288,924.254146 C1760.40515,962.452446 1793.07593,988.630694 1829.97554,990.876783 Z" id="Shape" fill="#0F90D1" transform="translate(1830.000000, 924.000000) rotate(39.000000) translate(-1830.000000, -924.000000) "></path>
            <path d="M386.5,991.187944 C523.75,991.187944 643.492187,868.513966 661,717.187944 C678.507813,565.861923 547.195312,427.711382 386.5,443.187944 C225.804688,458.664507 112,565.861923 112,717.187944 C112,868.513966 249.25,991.187944 386.5,991.187944 Z" id="Shape" fill="#418CFF" transform="translate(387.284989, 716.593972) rotate(39.000000) translate(-387.284989, -716.593972) "></path>
            <path d="M1776.24712,710 C1838.28727,710 1878.63745,773.681835 1888.58075,853.699203 C1898.52406,933.716571 1888.58075,1027.1556 1888.58075,1103.3008 C1888.58075,1179.446 1842.26142,1247 1776.24712,1247 C1710.23282,1247 1657.28498,1179.59643 1663.91348,1103.3008 C1670.54199,1027.00517 1657.28498,936.051015 1663.91348,853.699203 C1670.54199,771.347392 1714.20697,710 1776.24712,710 Z" id="Shape" fill="#418CFF" transform="translate(1777.500000, 978.500000) rotate(60.000000) translate(-1777.500000, -978.500000) "></path>
            <path d="M423.90946,1504.54391 C560.493094,1512.8578 659.448366,1406.6273 671.216007,1257.94072 C682.983647,1109.25414 560.493094,990.719755 423.90946,1011.33752 C287.325826,1031.95529 186.810658,1116.55 176.602914,1257.94072 C166.39517,1399.33144 287.325826,1496.23003 423.90946,1504.54391 Z" id="Shape" fill="#00CC99" transform="translate(424.000000, 1257.000000) rotate(39.000000) translate(-424.000000, -1257.000000) "></path>
            <path d="M1911.90946,2050.54391 C2048.49309,2058.8578 2147.44837,1952.6273 2159.21601,1803.94072 C2170.98365,1655.25414 2048.49309,1536.71975 1911.90946,1557.33752 C1775.32583,1577.95529 1674.81066,1662.55 1664.60291,1803.94072 C1654.39517,1945.33144 1775.32583,2042.23003 1911.90946,2050.54391 Z" id="Shape" fill="#418CFF" transform="translate(1912.000000, 1803.000000) rotate(39.000000) translate(-1912.000000, -1803.000000) "></path>
            <path d="M1704.15004,850.662821 C1721.5812,847.498102 1737,835.963698 1737,817.83141 C1737,799.699123 1722.29257,785 1704.15004,785 C1686.0075,785 1674.1747,801.577769 1671.30007,817.83141 C1668.42544,834.085051 1686.71887,853.82754 1704.15004,850.662821 Z" id="Shape" fill="#F73859" transform="translate(1704.000000, 818.000000) rotate(39.000000) translate(-1704.000000, -818.000000) "></path>
            <path d="M1423.1692,673.511586 C1433.73354,671.593575 1443.07827,664.603027 1443.07827,653.613762 C1443.07827,642.624497 1434.16467,633.715937 1423.1692,633.715937 C1412.17372,633.715937 1405.00233,643.76307 1403.26013,653.613762 C1401.51793,663.464453 1412.60486,675.429598 1423.1692,673.511586 Z" id="Shape" fill="#00CC99" transform="translate(1423.078268, 653.715937) rotate(39.000000) translate(-1423.078268, -653.715937) "></path>
            <path d="M1192.5,44 C1303.78538,44 1394,134.214623 1394,245.5 C1394,356.785377 1381,487.648438 1394,595.5 C1407,703.351563 1303.75,810.476563 1192.5,797 C1081.25,783.523438 991,719.601563 991,595.5 C991,471.398438 991,367.445313 991,245.5 C991,123.554687 1081.21462,44 1192.5,44 Z" id="Shape" fill="#00CC99" transform="translate(1193.055013, 421.075640) rotate(39.000000) translate(-1193.055013, -421.075640) "></path>
        </g>
    </g>
</svg>